<?xml version="1.0" encoding="utf-8"?>
<!-- Generator: Adobe Illustrator 24.1.3, SVG Export Plug-In . SVG Version: 6.00 Build 0)  -->
<svg version="1.1" xmlns="http://www.w3.org/2000/svg" xmlns:xlink="http://www.w3.org/1999/xlink" x="0px" y="0px"
	 viewBox="0 0 26.27 26.26" style="enable-background:new 0 0 26.27 26.26;" xml:space="preserve">
<style type="text/css">
	.st0{display:none;}
	.st1{display:inline;fill:#E4E7EC;}
	.st2{fill:#E4E7EC;}
	.st3{display:none;fill:#E4E7EC;}
</style>
<g id="Layer_1" class="st0">
</g>
<g id="Layer_2">
	<path class="st2" d="M24.17,10.98h-1.19c-0.26-1.19-0.73-2.3-1.37-3.29c3.7-2.41-0.65-6.73-3.05-3.03c-0.99-0.64-2.1-1.1-3.28-1.35
		c0.8-4.45-5.12-4.4-4.3,0.03C9.81,3.6,8.72,4.07,7.75,4.72C5.13,0.94,0.94,5.19,4.73,7.78c-0.61,0.96-1.06,2.04-1.3,3.2
		c-4.59-0.85-4.57,5.16,0.01,4.3c0.26,1.15,0.71,2.22,1.32,3.18c-3.86,2.65,0.4,6.89,3.04,3.04c0.96,0.62,2.03,1.08,3.18,1.34
		c-0.85,4.54,5.13,4.58,4.3,0.03c1.17-0.25,2.26-0.7,3.23-1.31c2.42,3.77,6.82-0.57,3.06-3.02c0.65-0.98,1.12-2.08,1.39-3.26
		C26.25,16.25,27.81,11.33,24.17,10.98z M18.64,15.61c-3.09,7.01-14.11,2.11-10.95-4.87C10.67,3.42,22.07,8.51,18.64,15.61z"/>
</g>
</svg>
