
<svg  width="60%" height="60%" x="0px" y="0px"
	 viewBox="0 0 27.4 27.4" style="enable-background:new 0 0 27.4 27.4;" xml:space="preserve">
<style type="text/css">
	.st0{fill:#E4E7EC;}
</style>
<path class="st0" d="M25.2,11.5h-2c-0.2-1.1-0.7-2.1-1.3-3l1.4-1.4c0.8-0.9,0.8-2.3,0-3.1c-0.8-0.8-2.2-0.8-3,0l-1.4,1.4
	c-0.9-0.6-2-1-3-1.3v-2c0-1.2-1-2.2-2.2-2.2c-1.2,0-2.2,1-2.2,2.2v2c-1.1,0.2-2.1,0.7-3,1.3L7.1,4C6.3,3.2,4.9,3.2,4,4
	C3.2,4.9,3.2,6.3,4,7.1l1.4,1.4c-0.6,0.9-1,2-1.3,3h-2c-1.2,0-2.2,1-2.2,2.2c0,1.2,1,2.2,2.2,2.2h2c0.3,1.1,0.7,2.1,1.3,3L4,20.3
	c-0.9,0.8-0.9,2.2,0,3.1c0.8,0.9,2.2,0.9,3.1,0L8.5,22c0.9,0.6,2,1,3,1.3v2c0,1.2,1,2.2,2.2,2.2s2.2-1,2.2-2.2v-2
	c1.1-0.3,2.1-0.7,3-1.3l1.4,1.4c0.8,0.9,2.2,0.9,3.1,0.1c0.9-0.8,0.9-2.2,0.1-3.1c0,0,0,0-0.1-0.1L22,18.9c0.6-0.9,1-2,1.3-3h2
	c1.2,0,2.2-1,2.2-2.2C27.4,12.5,26.4,11.5,25.2,11.5z M13.7,19.5c-3.2,0-5.8-2.6-5.8-5.8s2.6-5.8,5.8-5.8s5.8,2.6,5.8,5.8
	S16.9,19.5,13.7,19.5z"/>
</svg>
