<svg width="100%" height="100%" viewBox="0 0 73 25.574">
  <g id="Group_2393" data-name="Group 2393" transform="translate(-38 -856)">
    <text id="Website" transform="translate(72 873)" fill="#eaedf0" font-size="12" font-family="MrEavesXLModOT-Bold, Mr Eaves XL Mod OT" font-weight="700" letter-spacing="-0.012em"><tspan x="0" y="0">Website</tspan></text>
    <g id="Group_2384" data-name="Group 2384" transform="translate(0 4)">
      <g id="Group_5" data-name="Group 5" transform="translate(46.588 852)">
        <path id="Path_6" data-name="Path 6" d="M201.763,0h-9.588a1.2,1.2,0,0,0,0,2.4h6.695L186.533,14.733a1.2,1.2,0,1,0,1.695,1.695L200.564,4.092v6.695a1.2,1.2,0,0,0,2.4,0V1.2A1.2,1.2,0,0,0,201.763,0Z" transform="translate(-186.182)" fill="#eaedf0"/>
      </g>
      <g id="Group_7" data-name="Group 7" transform="translate(38 856)">
        <path id="Path_7" data-name="Path 7" d="M20.375,100.282a1.2,1.2,0,0,0-1.2,1.2v10.787H2.4V95.488H13.184a1.2,1.2,0,1,0,0-2.4H1.2A1.2,1.2,0,0,0,0,94.29v19.176a1.2,1.2,0,0,0,1.2,1.2H20.375a1.2,1.2,0,0,0,1.2-1.2V101.481A1.2,1.2,0,0,0,20.375,100.282Z" transform="translate(0 -93.091)" fill="#eaedf0"/>
      </g>
    </g>
  </g>
</svg>
