<?xml version="1.0" encoding="utf-8"?>
<!-- Generator: Adobe Illustrator 24.1.3, SVG Export Plug-In . SVG Version: 6.00 Build 0)  -->
<svg version="1.1" id="Layer_1" xmlns="http://www.w3.org/2000/svg" xmlns:xlink="http://www.w3.org/1999/xlink" x="0px" y="0px"
	 viewBox="0 0 90.04 95" style="enable-background:new 0 0 90.04 95;" xml:space="preserve">
<style type="text/css">
	.st0{fill:none;stroke:#22B573;stroke-width:9;stroke-linecap:round;stroke-linejoin:round;stroke-miterlimit:10;}
	.st1{fill:none;stroke:#FFFFFF;stroke-width:9;stroke-linecap:round;stroke-linejoin:round;stroke-miterlimit:10;}
	.st2{fill:none;stroke:#BBFFDD;stroke-width:9;stroke-linecap:round;stroke-linejoin:round;stroke-miterlimit:10;}
</style>
<path class="st1" d="M8.79,66.25C15.76,80.61,30.48,90.5,47.5,90.5c16.5,0,30.83-9.29,38.04-22.93"/>
<path class="st1" d="M85.54,27.43C78.33,13.79,64,4.5,47.5,4.5c-23.74,0-43,19.25-43,43c0,6.73,1.54,13.09,4.29,18.75"/>
<path class="st2" d="M85.54,27.43L72,40.97L72,41c0-8-11-17.39-21-17.39c-0.05,0-4.86,0-4.91,0c-6.6,0-11.94,5.35-11.94,11.94
	S39.5,47.5,46.09,47.5H49c9,0,14.35,5.5,14.35,12.44c0,6.57-6.28,13.06-15.6,13.06c-2,0-1.71,0-2.82,0C34.94,73,23,62,23,52l0,0.04
	L8.79,66.25"/>
</svg>
