<svg id="Layer_1" data-name="Layer 1" xmlns="http://www.w3.org/2000/svg" viewBox="0 0 336.53 95.1"><defs><style>.cls-1{fill:#fff;}.cls-2{fill:#55ff8e;}.cls-3{fill:#fefffe;}.cls-4{fill:#fdfffe;}.cls-5{fill:#fcfffd;}.cls-6{fill:#fbfffc;}.cls-7{fill:#fafffc;}.cls-8{fill:#f9fffb;}.cls-9{fill:#f8fffb;}.cls-10{fill:#f7fffa;}.cls-11{fill:#f7fff9;}.cls-12{fill:#f6fff9;}.cls-13{fill:#f5fff8;}.cls-14{fill:#f4fff8;}.cls-15{fill:#f3fff7;}.cls-16{fill:#f2fff7;}.cls-17{fill:#f1fff6;}.cls-18{fill:#f1fff5;}.cls-19{fill:#f0fff5;}.cls-20{fill:#effff4;}.cls-21{fill:#eefff4;}.cls-22{fill:#edfff3;}.cls-23{fill:#ecfff3;}.cls-24{fill:#ecfff2;}.cls-25{fill:#ebfff2;}.cls-26{fill:#eafff1;}.cls-27{fill:#e9fff0;}.cls-28{fill:#e8fff0;}.cls-29{fill:#e7ffef;}.cls-30{fill:#e6ffef;}.cls-31{fill:#e6ffee;}.cls-32{fill:#e5ffee;}.cls-33{fill:#e4ffed;}.cls-34{fill:#e3ffec;}.cls-35{fill:#e2ffec;}.cls-36{fill:#e1ffeb;}.cls-37{fill:#e0ffea;}.cls-38{fill:#dfffea;}.cls-39{fill:#deffe9;}.cls-40{fill:#ddffe9;}.cls-41{fill:#dcffe8;}.cls-42{fill:#dbffe7;}.cls-43{fill:#daffe6;}.cls-44{fill:#d9ffe6;}.cls-45{fill:#d8ffe5;}.cls-46{fill:#d7ffe5;}.cls-47{fill:#d6ffe4;}.cls-48{fill:#d6ffe3;}.cls-49{fill:#d5ffe3;}.cls-50{fill:#d4ffe2;}.cls-51{fill:#d3ffe2;}.cls-52{fill:#d2ffe1;}.cls-53{fill:#d1ffe1;}.cls-54{fill:#d0ffe0;}.cls-55{fill:#cfffdf;}.cls-56{fill:#ceffde;}.cls-57{fill:#cdffde;}.cls-58{fill:#cfd;}.cls-59{fill:#cbffdd;}.cls-60{fill:#cbffdc;}.cls-61{fill:#caffdc;}.cls-62{fill:#c9ffdb;}.cls-63{fill:#c8ffda;}.cls-64{fill:#c7ffda;}.cls-65{fill:#c6ffd9;}.cls-66{fill:#c5ffd9;}.cls-67{fill:#c5ffd8;}.cls-68{fill:#c4ffd8;}.cls-69{fill:#c3ffd7;}.cls-70{fill:#c2ffd7;}.cls-71{fill:#c1ffd6;}.cls-72{fill:#c0ffd5;}.cls-73{fill:#bfffd4;}.cls-74{fill:#beffd4;}.cls-75{fill:#bdffd3;}.cls-76{fill:#bcffd3;}.cls-77{fill:#bbffd2;}.cls-78{fill:#baffd1;}.cls-79{fill:#b9ffd0;}.cls-80{fill:#b8ffd0;}.cls-81{fill:#b7ffcf;}.cls-82{fill:#b6ffcf;}.cls-83{fill:#b5ffce;}.cls-84{fill:#b4ffcd;}.cls-85{fill:#b3ffcc;}.cls-86{fill:#b2ffcc;}.cls-87{fill:#b1ffcb;}.cls-88{fill:#b0ffcb;}.cls-89{fill:#afffca;}.cls-90{fill:#aeffc9;}.cls-91{fill:#adffc8;}.cls-92{fill:#acffc8;}.cls-93{fill:#abffc7;}.cls-94{fill:#aaffc7;}.cls-95{fill:#aaffc6;}.cls-96{fill:#a9ffc6;}.cls-97{fill:#a8ffc5;}.cls-98{fill:#a7ffc5;}.cls-99{fill:#a6ffc4;}.cls-100{fill:#a5ffc3;}.cls-101{fill:#a4ffc2;}.cls-102{fill:#a3ffc2;}.cls-103{fill:#a2ffc1;}.cls-104{fill:#a1ffc1;}.cls-105{fill:#a0ffc0;}.cls-106{fill:#9fffbf;}.cls-107{fill:#9effbe;}.cls-108{fill:#9dffbe;}.cls-109{fill:#9cffbd;}.cls-110{fill:#9bffbd;}.cls-111{fill:#9affbc;}.cls-112{fill:#9fb;}.cls-113{fill:#98ffba;}.cls-114{fill:#97ffba;}.cls-115{fill:#96ffb9;}.cls-116{fill:#95ffb9;}.cls-117{fill:#94ffb8;}.cls-118{fill:#93ffb7;}.cls-119{fill:#92ffb6;}.cls-120{fill:#91ffb6;}.cls-121{fill:#90ffb5;}.cls-122{fill:#8fffb5;}.cls-123{fill:#8fffb4;}.cls-124{fill:#8effb4;}.cls-125{fill:#8dffb3;}.cls-126{fill:#8cffb3;}.cls-127{fill:#8bffb2;}.cls-128{fill:#8affb1;}.cls-129{fill:#89ffb1;}.cls-130{fill:#89ffb0;}.cls-131{fill:#88ffb0;}.cls-132{fill:#87ffaf;}.cls-133{fill:#86ffaf;}.cls-134{fill:#85ffae;}.cls-135{fill:#84ffad;}.cls-136{fill:#83ffac;}.cls-137{fill:#82ffac;}.cls-138{fill:#81ffab;}.cls-139{fill:#80ffab;}.cls-140{fill:#7fffaa;}.cls-141{fill:#7effaa;}.cls-142{fill:#7effa9;}.cls-143{fill:#7dffa8;}.cls-144{fill:#7cffa8;}.cls-145{fill:#7bffa7;}.cls-146{fill:#7affa7;}.cls-147{fill:#79ffa6;}.cls-148{fill:#78ffa5;}.cls-149{fill:#77ffa4;}.cls-150{fill:#76ffa4;}.cls-151{fill:#75ffa3;}.cls-152{fill:#74ffa3;}.cls-153{fill:#73ffa2;}.cls-154{fill:#72ffa1;}.cls-155{fill:#71ffa1;}.cls-156{fill:#70ffa0;}.cls-157{fill:#6fff9f;}.cls-158{fill:#6eff9f;}.cls-159{fill:#6eff9e;}.cls-160{fill:#6dff9e;}.cls-161{fill:#6cff9d;}.cls-162{fill:#6bff9d;}.cls-163{fill:#6aff9c;}.cls-164{fill:#69ff9b;}.cls-165{fill:#68ff9b;}.cls-166{fill:#68ff9a;}.cls-167{fill:#67ff9a;}.cls-168{fill:#6f9;}.cls-169{fill:#65ff99;}.cls-170{fill:#64ff98;}.cls-171{fill:#63ff98;}.cls-172{fill:#63ff97;}.cls-173{fill:#62ff96;}.cls-174{fill:#61ff96;}.cls-175{fill:#60ff95;}.cls-176{fill:#5fff95;}.cls-177{fill:#5eff94;}.cls-178{fill:#5dff94;}.cls-179{fill:#5dff93;}.cls-180{fill:#5cff92;}.cls-181{fill:#5bff92;}.cls-182{fill:#5aff91;}.cls-183{fill:#59ff91;}.cls-184{fill:#58ff90;}.cls-185{fill:#57ff8f;}.cls-186{fill:#56ff8f;}</style></defs><path class="cls-1" d="M113.74,64c-9.51,0-16.68-6.86-16.68-17.12s7-17.13,16.68-17.13c7.21,0,12.15,2.71,14.53,7.58,1.14,2.34.22,4.06-2.27,4.48l-.6.11c-2.11.35-3.11-.36-4.44-1.87a8.18,8.18,0,0,0-6.78-3.1c-5,0-8.32,4-8.32,9.93s3.37,9.88,8.32,9.88a8.31,8.31,0,0,0,6.7-3.05c1.33-1.51,2.3-2.21,4.4-1.88l.45.08c2.65.42,3.6,2.09,2.57,4.32C126,61.16,120.87,64,113.74,64Z"/><path class="cls-1" d="M133.54,46.9c0-11.14,6.23-17.13,14.5-17.13,4.64,0,9.07,2.3,10.79,6.36V33.69c0-2.14,1.41-3.38,3.87-3.38h1.08c2.49,0,3.86,1.37,3.86,3.86V59.56c0,2.49-1.37,3.87-3.86,3.87H162.7c-2.44,0-3.87-1.22-3.87-3.31V57.85c-1.68,3.95-6.15,6.25-10.75,6.25C139.83,64.1,133.54,58.05,133.54,46.9Zm25.56,0c0-6.12-3.4-9.93-8.41-9.93s-8.36,3.79-8.36,9.93,3.38,10,8.43,10S159.1,53.05,159.1,46.88Z"/><path class="cls-1" d="M188.93,64c-5.56,0-10.94-1.89-13.83-5.06-1.79-2-1.51-4.3,1.48-4.92l.9-.18c1.78-.37,2.63.2,4.55,1.62a12,12,0,0,0,6.9,2.35c3.7,0,5.95-1.39,5.95-3.68,0-6.65-20.12-1.83-20.12-14.42,0-6.26,6.13-9.89,14-9.89,4.57,0,9.59,1.51,12.47,4.34C203.13,36,202.78,38.34,200,39l-.76.17c-2.15.48-3.06-.54-4.56-1.42a11.4,11.4,0,0,0-5.76-1.83c-3.3,0-5.5,1.16-5.5,3.28,0,6.5,20.35,1.12,20.35,14.15,0,6.48-6,10.66-14.84,10.66Z"/><path class="cls-1" d="M213.21,63.48c-2.49,0-3.87-1.37-3.87-3.86V23.38c0-2.49,1.38-3.86,3.87-3.86h1.08c2.49,0,3.86,1.37,3.86,3.86V35.63c1.28-2.87,4.68-5.94,10.25-5.94,8.26,0,12.88,4.24,12.88,15.54V59.62c0,2.49-1.37,3.86-3.87,3.86h-1.08c-2.49,0-3.86-1.37-3.86-3.86V46.05c0-6.37-2.26-8.9-7.2-8.9s-7.12,3-7.12,9.4V59.62c0,2.49-1.37,3.86-3.86,3.86Z"/><path class="cls-2" d="M254.14,63.48c-2.5,0-3.87-1.37-3.87-3.86V37h-1.39a3.16,3.16,0,0,1-3.48-3.36c0-2.14,1.38-3.3,3.48-3.3h1.39V29.11c0-7.54,4.25-11.35,12.6-11.35a26.66,26.66,0,0,1,2.67.13c2.64.25,3.67,1.5,3.38,3.53s-1.2,3-3.1,2.91c-.53,0-.89,0-1.37,0-3.5,0-5.28,1.57-5.28,4.92v1.08h4.94c2.49,0,3.86,1.16,3.86,3.3S266.6,37,264.11,37h-4.94V59.62c0,2.49-1.37,3.86-3.86,3.86h-1.17Z"/><path class="cls-2" d="M303.76,34.19V59.64c0,2.49-1.37,3.86-3.86,3.86h-1.08c-2.49,0-3.87-1.37-3.87-3.74V58.08c-1.46,3.41-5.25,5.9-10.24,5.9-8.92,0-12.88-4.92-12.88-15.4V34.19c0-2.49,1.37-3.86,3.86-3.86h1.08c2.49,0,3.86,1.37,3.86,3.86V47.77c0,6.09,2.25,8.9,7.2,8.9,5.11,0,7.12-3.27,7.12-9.41V34.19c0-2.49,1.38-3.86,3.87-3.86h1.08C302.39,30.33,303.76,31.7,303.76,34.19Z"/><path class="cls-2" d="M311.37,59.62V23.38c0-2.49,1.37-3.86,3.86-3.86h1.14c2.49,0,3.86,1.37,3.86,3.86V59.62c0,2.49-1.37,3.86-3.86,3.86h-1.14C312.74,63.48,311.37,62.11,311.37,59.62Z"/><path class="cls-2" d="M327.66,59.62V23.38c0-2.49,1.37-3.86,3.87-3.86h1.14c2.49,0,3.86,1.37,3.86,3.86V59.62c0,2.49-1.37,3.86-3.86,3.86h-1.14C329,63.48,327.66,62.11,327.66,59.62Z"/><circle class="cls-1" cx="85.65" cy="67.5" r="4.55"/><circle class="cls-1" cx="85.31" cy="68.13" r="4.55"/><circle class="cls-1" cx="84.96" cy="68.75" r="4.55"/><circle class="cls-1" cx="84.61" cy="69.36" r="4.55"/><circle class="cls-1" cx="84.24" cy="69.97" r="4.55"/><circle class="cls-1" cx="83.87" cy="70.57" r="4.55"/><circle class="cls-1" cx="83.49" cy="71.17" r="4.55"/><circle class="cls-1" cx="83.09" cy="71.75" r="4.55"/><circle class="cls-1" cx="82.69" cy="72.33" r="4.55"/><circle class="cls-1" cx="82.28" cy="72.91" r="4.55"/><circle class="cls-1" cx="81.86" cy="73.47" r="4.55"/><circle class="cls-1" cx="81.42" cy="74.03" r="4.55"/><circle class="cls-1" cx="80.99" cy="74.58" r="4.55"/><circle class="cls-1" cx="80.54" cy="75.13" r="4.55"/><circle class="cls-1" cx="80.08" cy="75.67" r="4.55"/><circle class="cls-1" cx="79.61" cy="76.19" r="4.55"/><circle class="cls-1" cx="79.14" cy="76.72" r="4.55"/><circle class="cls-1" cx="78.66" cy="77.23" r="4.55"/><circle class="cls-1" cx="78.17" cy="77.74" r="4.55"/><circle class="cls-1" cx="77.67" cy="78.23" r="4.55"/><circle class="cls-1" cx="77.16" cy="78.72" r="4.55"/><circle class="cls-1" cx="76.65" cy="79.2" r="4.55"/><circle class="cls-1" cx="76.13" cy="79.68" r="4.55"/><circle class="cls-1" cx="75.6" cy="80.14" r="4.55"/><circle class="cls-1" cx="75.06" cy="80.6" r="4.55"/><circle class="cls-1" cx="74.51" cy="81.04" r="4.55"/><circle class="cls-1" cx="73.96" cy="81.48" r="4.55"/><circle class="cls-1" cx="73.4" cy="81.91" r="4.55"/><circle class="cls-1" cx="72.83" cy="82.33" r="4.55"/><circle class="cls-1" cx="72.26" cy="82.74" r="4.55"/><circle class="cls-1" cx="71.68" cy="83.14" r="4.55"/><circle class="cls-1" cx="71.09" cy="83.54" r="4.55"/><circle class="cls-1" cx="70.49" cy="83.92" r="4.55"/><circle class="cls-1" cx="69.89" cy="84.29" r="4.55"/><circle class="cls-1" cx="69.28" cy="84.66" r="4.55"/><circle class="cls-1" cx="68.67" cy="85.01" r="4.55"/><circle class="cls-1" cx="68.05" cy="85.36" r="4.55"/><circle class="cls-1" cx="67.42" cy="85.69" r="4.55"/><circle class="cls-1" cx="66.79" cy="86.01" r="4.55"/><circle class="cls-1" cx="66.15" cy="86.33" r="4.55"/><circle class="cls-1" cx="65.5" cy="86.63" r="4.55"/><circle class="cls-1" cx="64.85" cy="86.92" r="4.55"/><circle class="cls-1" cx="64.19" cy="87.21" r="4.55"/><circle class="cls-1" cx="63.53" cy="87.48" r="4.55"/><circle class="cls-1" cx="62.86" cy="87.74" r="4.55"/><circle class="cls-1" cx="62.19" cy="87.99" r="4.55"/><circle class="cls-1" cx="61.51" cy="88.23" r="4.55"/><circle class="cls-1" cx="60.83" cy="88.46" r="4.55"/><circle class="cls-1" cx="60.14" cy="88.67" r="4.55"/><circle class="cls-1" cx="59.45" cy="88.88" r="4.55"/><circle class="cls-1" cx="58.75" cy="89.07" r="4.55"/><circle class="cls-1" cx="58.05" cy="89.26" r="4.55"/><circle class="cls-1" cx="57.34" cy="89.43" r="4.55"/><circle class="cls-1" cx="56.63" cy="89.59" r="4.55"/><circle class="cls-1" cx="55.91" cy="89.74" r="4.55"/><circle class="cls-1" cx="55.19" cy="89.87" r="4.55"/><circle class="cls-1" cx="54.46" cy="89.99" r="4.55"/><circle class="cls-1" cx="53.73" cy="90.11" r="4.55"/><circle class="cls-1" cx="53" cy="90.21" r="4.55"/><circle class="cls-1" cx="52.26" cy="90.29" r="4.55"/><circle class="cls-1" cx="51.52" cy="90.37" r="4.55"/><circle class="cls-1" cx="50.78" cy="90.43" r="4.55"/><circle class="cls-1" cx="50.03" cy="90.48" r="4.55"/><circle class="cls-1" cx="49.28" cy="90.51" r="4.55"/><circle class="cls-1" cx="48.53" cy="90.54" r="4.55"/><circle class="cls-1" cx="47.77" cy="90.55" r="4.55"/><circle class="cls-1" cx="47.01" cy="90.54" r="4.55"/><circle class="cls-1" cx="46.26" cy="90.53" r="4.55"/><circle class="cls-1" cx="45.51" cy="90.5" r="4.55"/><circle class="cls-1" cx="44.77" cy="90.46" r="4.55"/><circle class="cls-1" cx="44.02" cy="90.41" r="4.55"/><circle class="cls-1" cx="43.28" cy="90.34" r="4.55"/><circle class="cls-1" cx="42.55" cy="90.26" r="4.55"/><circle class="cls-1" cx="41.82" cy="90.17" r="4.55"/><circle class="cls-1" cx="41.09" cy="90.07" r="4.55"/><circle class="cls-1" cx="40.37" cy="89.95" r="4.55"/><circle class="cls-1" cx="39.65" cy="89.82" r="4.55"/><circle class="cls-1" cx="38.93" cy="89.68" r="4.55"/><circle class="cls-1" cx="38.22" cy="89.53" r="4.55"/><circle class="cls-1" cx="37.51" cy="89.37" r="4.55"/><circle class="cls-1" cx="36.81" cy="89.2" r="4.55"/><circle class="cls-1" cx="36.11" cy="89.01" r="4.55"/><circle class="cls-1" cx="35.42" cy="88.81" r="4.55"/><circle class="cls-1" cx="34.73" cy="88.61" r="4.55"/><circle class="cls-1" cx="34.05" cy="88.39" r="4.55"/><circle class="cls-1" cx="33.37" cy="88.16" r="4.55"/><circle class="cls-1" cx="32.7" cy="87.92" r="4.55"/><circle class="cls-1" cx="32.03" cy="87.66" r="4.55"/><circle class="cls-1" cx="31.37" cy="87.4" r="4.55"/><circle class="cls-1" cx="30.71" cy="87.13" r="4.55"/><circle class="cls-1" cx="30.06" cy="86.84" r="4.55"/><circle class="cls-1" cx="29.41" cy="86.55" r="4.55"/><circle class="cls-1" cx="28.77" cy="86.24" r="4.55"/><circle class="cls-1" cx="28.14" cy="85.93" r="4.55"/><circle class="cls-1" cx="27.51" cy="85.61" r="4.55"/><circle class="cls-1" cx="26.89" cy="85.27" r="4.55"/><circle class="cls-1" cx="26.27" cy="84.93" r="4.55"/><circle class="cls-1" cx="25.66" cy="84.57" r="4.55"/><circle class="cls-1" cx="25.06" cy="84.21" r="4.55"/><circle class="cls-1" cx="24.46" cy="83.83" r="4.55"/><circle class="cls-1" cx="23.87" cy="83.45" r="4.55"/><circle class="cls-1" cx="23.29" cy="83.06" r="4.55"/><circle class="cls-1" cx="22.71" cy="82.66" r="4.55"/><circle class="cls-1" cx="22.14" cy="82.25" r="4.55"/><circle class="cls-1" cx="21.58" cy="81.83" r="4.55"/><circle class="cls-1" cx="21.03" cy="81.4" r="4.55"/><circle class="cls-1" cx="20.48" cy="80.96" r="4.55"/><circle class="cls-1" cx="19.94" cy="80.51" r="4.55"/><circle class="cls-1" cx="19.4" cy="80.06" r="4.55"/><circle class="cls-1" cx="18.88" cy="79.6" r="4.55"/><circle class="cls-1" cx="18.36" cy="79.12" r="4.55"/><circle class="cls-1" cx="17.85" cy="78.64" r="4.55"/><circle class="cls-1" cx="17.35" cy="78.16" r="4.55"/><circle class="cls-1" cx="16.85" cy="77.66" r="4.55"/><circle class="cls-1" cx="16.36" cy="77.16" r="4.55"/><circle class="cls-1" cx="15.89" cy="76.64" r="4.55"/><circle class="cls-1" cx="15.42" cy="76.12" r="4.55"/><circle class="cls-1" cx="14.95" cy="75.6" r="4.55"/><circle class="cls-1" cx="14.5" cy="75.06" r="4.55"/><circle class="cls-1" cx="14.06" cy="74.52" r="4.55"/><circle class="cls-1" cx="13.62" cy="73.97" r="4.55"/><circle class="cls-1" cx="13.19" cy="73.41" r="4.55"/><circle class="cls-1" cx="12.77" cy="72.85" r="4.55"/><circle class="cls-1" cx="12.37" cy="72.28" r="4.55"/><circle class="cls-1" cx="11.97" cy="71.7" r="4.55"/><circle class="cls-1" cx="11.57" cy="71.12" r="4.55"/><circle class="cls-1" cx="11.19" cy="70.52" r="4.55"/><circle class="cls-1" cx="10.82" cy="69.93" r="4.55"/><circle class="cls-1" cx="10.46" cy="69.32" r="4.55"/><circle class="cls-1" cx="10.11" cy="68.71" r="4.55"/><circle class="cls-1" cx="9.76" cy="68.09" r="4.55"/><circle class="cls-1" cx="9.43" cy="67.47" r="4.55"/><circle class="cls-1" cx="9.11" cy="66.84" r="4.55"/><circle class="cls-1" cx="8.79" cy="66.21" r="4.55"/><circle class="cls-1" cx="8.49" cy="65.57" r="4.55"/><circle class="cls-1" cx="8.2" cy="64.92" r="4.55"/><circle class="cls-1" cx="7.92" cy="64.27" r="4.55"/><circle class="cls-1" cx="7.65" cy="63.61" r="4.55"/><circle class="cls-1" cx="7.39" cy="62.95" r="4.55"/><circle class="cls-1" cx="7.14" cy="62.28" r="4.55"/><circle class="cls-1" cx="6.9" cy="61.6" r="4.55"/><circle class="cls-1" cx="6.67" cy="60.92" r="4.55"/><circle class="cls-1" cx="6.45" cy="60.24" r="4.55"/><circle class="cls-1" cx="6.24" cy="59.55" r="4.55"/><circle class="cls-1" cx="6.05" cy="58.86" r="4.55"/><circle class="cls-1" cx="5.87" cy="58.16" r="4.55"/><circle class="cls-1" cx="5.69" cy="57.46" r="4.55"/><circle class="cls-1" cx="5.53" cy="56.75" r="4.55"/><circle class="cls-1" cx="5.38" cy="56.04" r="4.55"/><circle class="cls-1" cx="5.25" cy="55.32" r="4.55"/><circle class="cls-1" cx="5.12" cy="54.6" r="4.55"/><circle class="cls-1" cx="5.01" cy="53.88" r="4.55"/><circle class="cls-1" cx="4.91" cy="53.15" r="4.55"/><circle class="cls-1" cx="4.82" cy="52.42" r="4.55"/><circle class="cls-1" cx="4.74" cy="51.68" r="4.55"/><circle class="cls-1" cx="4.68" cy="50.94" r="4.55"/><circle class="cls-1" cx="4.63" cy="50.2" r="4.55"/><circle class="cls-1" cx="4.59" cy="49.45" r="4.55"/><circle class="cls-1" cx="4.56" cy="48.7" r="4.55"/><circle class="cls-1" cx="4.55" cy="47.95" r="4.55"/><circle class="cls-1" cx="4.55" cy="47.19" r="4.55"/><circle class="cls-1" cx="4.56" cy="46.44" r="4.55"/><circle class="cls-1" cx="4.59" cy="45.69" r="4.55"/><circle class="cls-1" cx="4.62" cy="44.94" r="4.55"/><circle class="cls-1" cx="4.67" cy="44.2" r="4.55"/><circle class="cls-1" cx="4.74" cy="43.46" r="4.55"/><circle class="cls-1" cx="4.81" cy="42.73" r="4.55"/><circle class="cls-1" cx="4.9" cy="41.99" r="4.55"/><circle class="cls-1" cx="5" cy="41.26" r="4.55"/><circle class="cls-1" cx="5.11" cy="40.54" r="4.55"/><circle class="cls-1" cx="5.24" cy="39.82" r="4.55"/><circle class="cls-1" cx="5.38" cy="39.1" r="4.55"/><circle class="cls-1" cx="5.52" cy="38.39" r="4.55"/><circle class="cls-1" cx="5.68" cy="37.68" r="4.55"/><circle class="cls-1" cx="5.85" cy="36.98" r="4.55"/><circle class="cls-1" cx="6.04" cy="36.28" r="4.55"/><circle class="cls-1" cx="6.23" cy="35.59" r="4.55"/><circle class="cls-1" cx="6.44" cy="34.9" r="4.55"/><circle class="cls-1" cx="6.65" cy="34.21" r="4.55"/><circle class="cls-1" cx="6.88" cy="33.54" r="4.55"/><circle class="cls-1" cx="7.12" cy="32.86" r="4.55"/><circle class="cls-1" cx="7.37" cy="32.19" r="4.55"/><circle class="cls-1" cx="7.63" cy="31.53" r="4.55"/><circle class="cls-1" cx="7.9" cy="30.87" r="4.55"/><circle class="cls-1" cx="8.18" cy="30.22" r="4.55"/><circle class="cls-1" cx="8.47" cy="29.57" r="4.55"/><circle class="cls-1" cx="8.78" cy="28.93" r="4.55"/><circle class="cls-1" cx="9.09" cy="28.29" r="4.55"/><circle class="cls-1" cx="9.41" cy="27.66" r="4.55"/><circle class="cls-1" cx="9.74" cy="27.04" r="4.55"/><circle class="cls-1" cx="10.09" cy="26.42" r="4.55"/><circle class="cls-1" cx="10.44" cy="25.81" r="4.55"/><circle class="cls-1" cx="10.8" cy="25.21" r="4.55"/><circle class="cls-1" cx="11.17" cy="24.61" r="4.55"/><circle class="cls-1" cx="11.55" cy="24.02" r="4.55"/><circle class="cls-1" cx="11.94" cy="23.43" r="4.55"/><circle class="cls-1" cx="12.34" cy="22.85" r="4.55"/><circle class="cls-1" cx="12.75" cy="22.28" r="4.55"/><circle class="cls-1" cx="13.17" cy="21.72" r="4.55"/><circle class="cls-1" cx="13.59" cy="21.16" r="4.55"/><circle class="cls-1" cx="14.03" cy="20.61" r="4.55"/><circle class="cls-1" cx="14.41" cy="20.14" r="4.55"/><circle class="cls-3" cx="14.91" cy="19.55" r="4.55"/><circle class="cls-4" cx="15.35" cy="19.05" r="4.55"/><circle class="cls-5" cx="15.8" cy="18.55" r="4.55"/><circle class="cls-5" cx="16.25" cy="18.06" r="4.55"/><circle class="cls-6" cx="16.72" cy="17.57" r="4.55"/><circle class="cls-7" cx="17.19" cy="17.09" r="4.55"/><circle class="cls-8" cx="17.67" cy="16.62" r="4.55"/><circle class="cls-9" cx="18.15" cy="16.16" r="4.55"/><circle class="cls-10" cx="18.65" cy="15.71" r="4.55"/><circle class="cls-11" cx="19.15" cy="15.26" r="4.55"/><circle class="cls-12" cx="19.66" cy="14.82" r="4.55"/><circle class="cls-13" cx="20.17" cy="14.39" r="4.55"/><circle class="cls-14" cx="20.69" cy="13.96" r="4.55"/><circle class="cls-15" cx="21.22" cy="13.55" r="4.55"/><circle class="cls-16" cx="21.75" cy="13.14" r="4.55"/><circle class="cls-17" cx="22.29" cy="12.74" r="4.55"/><circle class="cls-18" cx="22.84" cy="12.35" r="4.55"/><circle class="cls-19" cx="23.39" cy="11.97" r="4.55"/><circle class="cls-20" cx="23.95" cy="11.59" r="4.55"/><circle class="cls-21" cx="24.52" cy="11.23" r="4.55"/><circle class="cls-22" cx="25.09" cy="10.87" r="4.55"/><circle class="cls-23" cx="25.67" cy="10.52" r="4.55"/><circle class="cls-24" cx="26.25" cy="10.18" r="4.55"/><circle class="cls-25" cx="26.84" cy="9.85" r="4.55"/><circle class="cls-26" cx="27.44" cy="9.53" r="4.55"/><circle class="cls-27" cx="28.04" cy="9.22" r="4.55"/><circle class="cls-28" cx="28.65" cy="8.91" r="4.55"/><circle class="cls-29" cx="29.26" cy="8.62" r="4.55"/><circle class="cls-30" cx="29.88" cy="8.33" r="4.55"/><circle class="cls-31" cx="30.5" cy="8.06" r="4.55"/><circle class="cls-32" cx="31.13" cy="7.79" r="4.55"/><circle class="cls-33" cx="31.76" cy="7.54" r="4.55"/><circle class="cls-34" cx="32.4" cy="7.29" r="4.55"/><circle class="cls-35" cx="33.04" cy="7.06" r="4.55"/><circle class="cls-36" cx="33.69" cy="6.83" r="4.55"/><circle class="cls-36" cx="34.34" cy="6.61" r="4.55"/><circle class="cls-37" cx="34.99" cy="6.41" r="4.55"/><circle class="cls-38" cx="35.65" cy="6.21" r="4.55"/><circle class="cls-39" cx="36.32" cy="6.03" r="4.55"/><circle class="cls-40" cx="36.99" cy="5.85" r="4.55"/><circle class="cls-41" cx="37.66" cy="5.69" r="4.55"/><circle class="cls-42" cx="38.34" cy="5.54" r="4.55"/><circle class="cls-42" cx="39.02" cy="5.39" r="4.55"/><circle class="cls-43" cx="39.71" cy="5.26" r="4.55"/><circle class="cls-44" cx="40.4" cy="5.14" r="4.55"/><circle class="cls-45" cx="41.09" cy="5.03" r="4.55"/><circle class="cls-46" cx="41.79" cy="4.93" r="4.55"/><circle class="cls-47" cx="42.49" cy="4.84" r="4.55"/><circle class="cls-48" cx="43.19" cy="4.77" r="4.55"/><circle class="cls-49" cx="43.9" cy="4.7" r="4.55"/><circle class="cls-50" cx="44.61" cy="4.65" r="4.55"/><circle class="cls-51" cx="45.32" cy="4.6" r="4.55"/><circle class="cls-52" cx="46.04" cy="4.57" r="4.55"/><circle class="cls-53" cx="46.76" cy="4.55" r="4.55"/><circle class="cls-54" cx="47.48" cy="4.55" r="4.55"/><circle class="cls-54" cx="48.21" cy="4.55" r="4.55"/><circle class="cls-55" cx="48.93" cy="4.57" r="4.55"/><circle class="cls-56" cx="49.65" cy="4.6" r="4.55"/><circle class="cls-57" cx="50.37" cy="4.64" r="4.55"/><circle class="cls-58" cx="51.08" cy="4.69" r="4.55"/><circle class="cls-59" cx="51.8" cy="4.76" r="4.55"/><circle class="cls-60" cx="52.5" cy="4.83" r="4.55"/><circle class="cls-61" cx="53.21" cy="4.92" r="4.55"/><circle class="cls-62" cx="53.91" cy="5.02" r="4.55"/><circle class="cls-63" cx="54.61" cy="5.12" r="4.55"/><circle class="cls-64" cx="55.3" cy="5.25" r="4.55"/><circle class="cls-65" cx="55.99" cy="5.38" r="4.55"/><circle class="cls-66" cx="56.68" cy="5.52" r="4.55"/><circle class="cls-67" cx="57.36" cy="5.67" r="4.55"/><circle class="cls-68" cx="58.04" cy="5.84" r="4.55"/><circle class="cls-69" cx="58.71" cy="6.01" r="4.55"/><circle class="cls-70" cx="59.38" cy="6.2" r="4.55"/><circle class="cls-71" cx="60.04" cy="6.39" r="4.55"/><circle class="cls-72" cx="60.7" cy="6.6" r="4.55"/><circle class="cls-72" cx="61.36" cy="6.81" r="4.55"/><circle class="cls-73" cx="62.01" cy="7.04" r="4.55"/><circle class="cls-74" cx="62.66" cy="7.28" r="4.55"/><circle class="cls-75" cx="63.3" cy="7.52" r="4.55"/><circle class="cls-76" cx="63.94" cy="7.78" r="4.55"/><circle class="cls-77" cx="64.57" cy="8.05" r="4.55"/><circle class="cls-78" cx="65.19" cy="8.32" r="4.55"/><circle class="cls-78" cx="65.81" cy="8.61" r="4.55"/><circle class="cls-79" cx="66.43" cy="8.9" r="4.55"/><circle class="cls-80" cx="67.04" cy="9.21" r="4.55"/><circle class="cls-81" cx="67.64" cy="9.52" r="4.55"/><circle class="cls-82" cx="68.24" cy="9.85" r="4.55"/><circle class="cls-83" cx="68.84" cy="10.18" r="4.55"/><circle class="cls-83" cx="69.42" cy="10.52" r="4.55"/><circle class="cls-84" cx="70" cy="10.87" r="4.55"/><circle class="cls-85" cx="70.58" cy="11.23" r="4.55"/><circle class="cls-86" cx="71.15" cy="11.6" r="4.55"/><circle class="cls-87" cx="71.71" cy="11.98" r="4.55"/><circle class="cls-88" cx="72.27" cy="12.36" r="4.55"/><circle class="cls-89" cx="72.82" cy="12.75" r="4.55"/><circle class="cls-89" cx="73.36" cy="13.16" r="4.55"/><circle class="cls-90" cx="73.9" cy="13.57" r="4.55"/><circle class="cls-91" cx="74.43" cy="13.99" r="4.55"/><circle class="cls-92" cx="74.95" cy="14.41" r="4.55"/><circle class="cls-93" cx="75.47" cy="14.85" r="4.55"/><circle class="cls-94" cx="75.98" cy="15.29" r="4.55"/><circle class="cls-95" cx="76.48" cy="15.74" r="4.55"/><circle class="cls-96" cx="76.98" cy="16.2" r="4.55"/><circle class="cls-97" cx="77.47" cy="16.66" r="4.55"/><circle class="cls-98" cx="77.95" cy="17.14" r="4.55"/><circle class="cls-99" cx="78.42" cy="17.62" r="4.55"/><circle class="cls-100" cx="78.89" cy="18.11" r="4.55"/><circle class="cls-100" cx="79.35" cy="18.6" r="4.55"/><circle class="cls-101" cx="79.8" cy="19.1" r="4.55"/><circle class="cls-102" cx="80.24" cy="19.61" r="4.55"/><circle class="cls-103" cx="80.67" cy="20.13" r="4.55"/><circle class="cls-104" cx="81.1" cy="20.65" r="4.55"/><circle class="cls-105" cx="81.52" cy="21.19" r="4.55"/><circle class="cls-106" cx="81.93" cy="21.72" r="4.55"/><circle class="cls-106" cx="82.33" cy="22.27" r="4.55"/><circle class="cls-107" cx="82.73" cy="22.82" r="4.55"/><circle class="cls-108" cx="83.11" cy="23.37" r="4.55"/><circle class="cls-109" cx="83.49" cy="23.94" r="4.55"/><circle class="cls-110" cx="83.86" cy="24.5" r="4.55"/><circle class="cls-111" cx="84.22" cy="25.08" r="4.55"/><circle class="cls-111" cx="84.57" cy="25.66" r="4.55"/><circle class="cls-112" cx="84.91" cy="26.25" r="4.55"/><circle class="cls-113" cx="85.24" cy="26.84" r="4.55"/><circle class="cls-114" cx="85.56" cy="27.44" r="4.55"/><circle class="cls-115" cx="85.62" cy="27.95" r="4.55"/><circle class="cls-116" cx="85.16" cy="28.46" r="4.55"/><circle class="cls-117" cx="84.71" cy="28.98" r="4.55"/><circle class="cls-117" cx="84.25" cy="29.49" r="4.55"/><circle class="cls-118" cx="83.8" cy="30.01" r="4.55"/><circle class="cls-119" cx="83.35" cy="30.52" r="4.55"/><circle class="cls-120" cx="82.89" cy="31.04" r="4.55"/><circle class="cls-121" cx="82.44" cy="31.55" r="4.55"/><circle class="cls-122" cx="81.98" cy="32.06" r="4.55"/><circle class="cls-123" cx="81.53" cy="32.58" r="4.55"/><circle class="cls-124" cx="81.07" cy="33.09" r="4.55"/><circle class="cls-125" cx="80.62" cy="33.61" r="4.55"/><circle class="cls-126" cx="80.16" cy="34.12" r="4.55"/><circle class="cls-127" cx="79.71" cy="34.64" r="4.55"/><circle class="cls-128" cx="79.25" cy="35.15" r="4.55"/><circle class="cls-129" cx="78.8" cy="35.66" r="4.55"/><circle class="cls-130" cx="78.34" cy="36.18" r="4.55"/><circle class="cls-131" cx="77.89" cy="36.69" r="4.55"/><circle class="cls-132" cx="77.43" cy="37.21" r="4.55"/><circle class="cls-133" cx="76.98" cy="37.72" r="4.55"/><circle class="cls-134" cx="76.52" cy="38.24" r="4.55"/><circle class="cls-135" cx="76.07" cy="38.75" r="4.55"/><circle class="cls-135" cx="75.61" cy="39.27" r="4.55"/><circle class="cls-136" cx="75.16" cy="39.78" r="4.55"/><circle class="cls-137" cx="74.7" cy="40.29" r="4.55"/><circle class="cls-138" cx="74.25" cy="40.81" r="4.55"/><circle class="cls-139" cx="73.79" cy="41.32" r="4.55"/><circle class="cls-140" cx="73.34" cy="41.84" r="4.55"/><circle class="cls-141" cx="72.88" cy="42.35" r="4.55"/><circle class="cls-142" cx="72.43" cy="42.87" r="4.55"/><circle class="cls-143" cx="72.23" cy="42.99" r="4.55"/><circle class="cls-144" cx="72.21" cy="42.79" r="4.55"/><circle class="cls-145" cx="72.18" cy="42.55" r="4.55"/><circle class="cls-146" cx="72.14" cy="42.28" r="4.55"/><circle class="cls-147" cx="72.08" cy="41.97" r="4.55"/><circle class="cls-147" cx="72.01" cy="41.63" r="4.55"/><circle class="cls-148" cx="71.92" cy="41.27" r="4.55"/><circle class="cls-149" cx="71.81" cy="40.87" r="4.55"/><circle class="cls-150" cx="71.69" cy="40.45" r="4.55"/><circle class="cls-151" cx="71.54" cy="40.01" r="4.55"/><circle class="cls-152" cx="71.39" cy="39.55" r="4.55"/><circle class="cls-153" cx="71.21" cy="39.06" r="4.55"/><circle class="cls-153" cx="71.02" cy="38.56" r="4.55"/><circle class="cls-154" cx="70.8" cy="38.04" r="4.55"/><circle class="cls-155" cx="70.57" cy="37.51" r="4.55"/><circle class="cls-156" cx="70.32" cy="36.96" r="4.55"/><circle class="cls-157" cx="70.05" cy="36.4" r="4.55"/><circle class="cls-158" cx="69.76" cy="35.83" r="4.55"/><circle class="cls-159" cx="69.45" cy="35.26" r="4.55"/><circle class="cls-160" cx="69.11" cy="34.68" r="4.55"/><circle class="cls-161" cx="68.76" cy="34.09" r="4.55"/><circle class="cls-162" cx="68.38" cy="33.5" r="4.55"/><circle class="cls-163" cx="67.99" cy="32.92" r="4.55"/><circle class="cls-164" cx="67.57" cy="32.33" r="4.55"/><circle class="cls-165" cx="67.12" cy="31.75" r="4.55"/><circle class="cls-166" cx="66.66" cy="31.17" r="4.55"/><circle class="cls-167" cx="66.17" cy="30.6" r="4.55"/><circle class="cls-168" cx="65.65" cy="30.03" r="4.55"/><circle class="cls-169" cx="65.11" cy="29.48" r="4.55"/><circle class="cls-170" cx="64.55" cy="28.94" r="4.55"/><circle class="cls-171" cx="63.96" cy="28.41" r="4.55"/><circle class="cls-172" cx="63.35" cy="27.89" r="4.55"/><circle class="cls-173" cx="62.71" cy="27.4" r="4.55"/><circle class="cls-174" cx="62.04" cy="26.92" r="4.55"/><circle class="cls-175" cx="61.35" cy="26.47" r="4.55"/><circle class="cls-176" cx="60.63" cy="26.03" r="4.55"/><circle class="cls-177" cx="59.88" cy="25.63" r="4.55"/><circle class="cls-178" cx="59.11" cy="25.24" r="4.55"/><circle class="cls-179" cx="58.3" cy="24.89" r="4.55"/><circle class="cls-180" cx="57.47" cy="24.57" r="4.55"/><circle class="cls-181" cx="56.61" cy="24.27" r="4.55"/><circle class="cls-182" cx="55.72" cy="24.01" r="4.55"/><circle class="cls-183" cx="54.8" cy="23.79" r="4.55"/><circle class="cls-184" cx="53.85" cy="23.6" r="4.55"/><circle class="cls-184" cx="52.87" cy="23.45" r="4.55"/><circle class="cls-185" cx="51.86" cy="23.34" r="4.55"/><circle class="cls-186" cx="50.81" cy="23.28" r="4.55"/><circle class="cls-2" cx="49.74" cy="23.25" r="4.55"/><circle class="cls-2" cx="48.96" cy="23.27" r="4.55"/><circle class="cls-2" cx="48.19" cy="23.33" r="4.55"/><circle class="cls-2" cx="47.43" cy="23.42" r="4.55"/><circle class="cls-2" cx="46.69" cy="23.55" r="4.55"/><circle class="cls-2" cx="45.96" cy="23.71" r="4.55"/><circle class="cls-2" cx="45.25" cy="23.91" r="4.55"/><circle class="cls-2" cx="44.55" cy="24.13" r="4.55"/><circle class="cls-2" cx="43.87" cy="24.39" r="4.55"/><circle class="cls-2" cx="43.21" cy="24.67" r="4.55"/><circle class="cls-2" cx="42.57" cy="24.99" r="4.55"/><circle class="cls-2" cx="41.94" cy="25.33" r="4.55"/><circle class="cls-2" cx="41.33" cy="25.69" r="4.55"/><circle class="cls-2" cx="40.75" cy="26.08" r="4.55"/><circle class="cls-2" cx="40.18" cy="26.5" r="4.55"/><circle class="cls-2" cx="39.64" cy="26.93" r="4.55"/><circle class="cls-2" cx="39.12" cy="27.39" r="4.55"/><circle class="cls-2" cx="38.62" cy="27.86" r="4.55"/><circle class="cls-2" cx="38.14" cy="28.36" r="4.55"/><circle class="cls-2" cx="37.69" cy="28.87" r="4.55"/><circle class="cls-2" cx="37.27" cy="29.39" r="4.55"/><circle class="cls-2" cx="36.87" cy="29.94" r="4.55"/><circle class="cls-2" cx="36.5" cy="30.49" r="4.55"/><circle class="cls-2" cx="36.15" cy="31.06" r="4.55"/><circle class="cls-2" cx="35.84" cy="31.64" r="4.55"/><circle class="cls-2" cx="35.55" cy="32.23" r="4.55"/><circle class="cls-2" cx="35.29" cy="32.82" r="4.55"/><circle class="cls-2" cx="35.07" cy="33.43" r="4.55"/><circle class="cls-2" cx="34.87" cy="34.04" r="4.55"/><circle class="cls-2" cx="34.7" cy="34.66" r="4.55"/><circle class="cls-2" cx="34.57" cy="35.28" r="4.55"/><circle class="cls-2" cx="34.47" cy="35.9" r="4.55"/><circle class="cls-2" cx="34.41" cy="36.53" r="4.55"/><circle class="cls-2" cx="34.38" cy="37.16" r="4.55"/><circle class="cls-2" cx="34.38" cy="37.66" r="4.55"/><circle class="cls-2" cx="34.41" cy="38.12" r="4.55"/><circle class="cls-2" cx="34.45" cy="38.6" r="4.55"/><circle class="cls-2" cx="34.53" cy="39.1" r="4.55"/><circle class="cls-2" cx="34.62" cy="39.61" r="4.55"/><circle class="cls-2" cx="34.75" cy="40.14" r="4.55"/><circle class="cls-2" cx="34.91" cy="40.68" r="4.55"/><circle class="cls-2" cx="35.1" cy="41.22" r="4.55"/><circle class="cls-2" cx="35.32" cy="41.76" r="4.55"/><circle class="cls-2" cx="35.58" cy="42.3" r="4.55"/><circle class="cls-2" cx="35.88" cy="42.83" r="4.55"/><circle class="cls-2" cx="36.21" cy="43.36" r="4.55"/><circle class="cls-2" cx="36.59" cy="43.87" r="4.55"/><circle class="cls-2" cx="37.01" cy="44.37" r="4.55"/><circle class="cls-2" cx="37.48" cy="44.85" r="4.55"/><circle class="cls-2" cx="37.99" cy="45.31" r="4.55"/><circle class="cls-2" cx="38.55" cy="45.73" r="4.55"/><circle class="cls-2" cx="39.17" cy="46.13" r="4.55"/><circle class="cls-2" cx="39.83" cy="46.5" r="4.55"/><circle class="cls-2" cx="40.55" cy="46.83" r="4.55"/><circle class="cls-2" cx="41.32" cy="47.12" r="4.55"/><circle class="cls-2" cx="42.15" cy="47.37" r="4.55"/><circle class="cls-2" cx="43.05" cy="47.57" r="4.55"/><circle class="cls-2" cx="44" cy="47.72" r="4.55"/><circle class="cls-2" cx="45.01" cy="47.81" r="4.55"/><circle class="cls-2" cx="46.1" cy="47.85" r="4.55"/><circle class="cls-2" cx="47.32" cy="47.87" r="4.55"/><circle class="cls-2" cx="48.5" cy="47.95" r="4.55"/><circle class="cls-2" cx="49.61" cy="48.07" r="4.55"/><circle class="cls-2" cx="50.66" cy="48.24" r="4.55"/><circle class="cls-2" cx="51.64" cy="48.45" r="4.55"/><circle class="cls-2" cx="52.55" cy="48.71" r="4.55"/><circle class="cls-2" cx="53.41" cy="49.01" r="4.55"/><circle class="cls-2" cx="54.2" cy="49.34" r="4.55"/><circle class="cls-2" cx="54.94" cy="49.7" r="4.55"/><circle class="cls-2" cx="55.63" cy="50.09" r="4.55"/><circle class="cls-2" cx="56.26" cy="50.51" r="4.55"/><circle class="cls-2" cx="56.84" cy="50.96" r="4.55"/><circle class="cls-2" cx="57.38" cy="51.42" r="4.55"/><circle class="cls-2" cx="57.86" cy="51.91" r="4.55"/><circle class="cls-2" cx="58.31" cy="52.4" r="4.55"/><circle class="cls-2" cx="58.71" cy="52.91" r="4.55"/><circle class="cls-2" cx="59.07" cy="53.43" r="4.55"/><circle class="cls-2" cx="59.39" cy="53.96" r="4.55"/><circle class="cls-2" cx="59.68" cy="54.49" r="4.55"/><circle class="cls-2" cx="59.93" cy="55.02" r="4.55"/><circle class="cls-2" cx="60.15" cy="55.55" r="4.55"/><circle class="cls-2" cx="60.34" cy="56.07" r="4.55"/><circle class="cls-2" cx="60.5" cy="56.59" r="4.55"/><circle class="cls-2" cx="60.64" cy="57.09" r="4.55"/><circle class="cls-2" cx="60.75" cy="57.58" r="4.55"/><circle class="cls-2" cx="60.84" cy="58.05" r="4.55"/><circle class="cls-2" cx="60.91" cy="58.51" r="4.55"/><circle class="cls-2" cx="60.96" cy="58.94" r="4.55"/><circle class="cls-2" cx="61" cy="59.34" r="4.55"/><circle class="cls-2" cx="61.02" cy="59.72" r="4.55"/><circle class="cls-2" cx="61.03" cy="60.06" r="4.55"/><circle class="cls-2" cx="61.04" cy="60.42" r="4.55"/><circle class="cls-2" cx="61.02" cy="60.92" r="4.55"/><circle class="cls-2" cx="60.98" cy="61.43" r="4.55"/><circle class="cls-2" cx="60.91" cy="61.96" r="4.55"/><circle class="cls-2" cx="60.82" cy="62.49" r="4.55"/><circle class="cls-2" cx="60.71" cy="63.04" r="4.55"/><circle class="cls-2" cx="60.56" cy="63.59" r="4.55"/><circle class="cls-2" cx="60.4" cy="64.14" r="4.55"/><circle class="cls-2" cx="60.2" cy="64.7" r="4.55"/><circle class="cls-2" cx="59.98" cy="65.26" r="4.55"/><circle class="cls-2" cx="59.73" cy="65.82" r="4.55"/><circle class="cls-2" cx="59.44" cy="66.37" r="4.55"/><circle class="cls-2" cx="59.13" cy="66.92" r="4.55"/><circle class="cls-2" cx="58.79" cy="67.46" r="4.55"/><circle class="cls-2" cx="58.42" cy="67.98" r="4.55"/><circle class="cls-2" cx="58.02" cy="68.5" r="4.55"/><circle class="cls-2" cx="57.58" cy="69" r="4.55"/><circle class="cls-2" cx="57.12" cy="69.48" r="4.55"/><circle class="cls-2" cx="56.62" cy="69.95" r="4.55"/><circle class="cls-2" cx="56.08" cy="70.4" r="4.55"/><circle class="cls-2" cx="55.51" cy="70.82" r="4.55"/><circle class="cls-2" cx="54.91" cy="71.21" r="4.55"/><circle class="cls-2" cx="54.27" cy="71.59" r="4.55"/><circle class="cls-2" cx="53.59" cy="71.93" r="4.55"/><circle class="cls-2" cx="52.88" cy="72.24" r="4.55"/><circle class="cls-2" cx="52.13" cy="72.51" r="4.55"/><circle class="cls-2" cx="51.34" cy="72.75" r="4.55"/><circle class="cls-2" cx="50.52" cy="72.96" r="4.55"/><circle class="cls-2" cx="49.65" cy="73.12" r="4.55"/><circle class="cls-2" cx="48.75" cy="73.24" r="4.55"/><circle class="cls-2" cx="47.8" cy="73.32" r="4.55"/><circle class="cls-2" cx="46.81" cy="73.35" r="4.55"/><circle class="cls-2" cx="46" cy="73.34" r="4.55"/><circle class="cls-2" cx="45.23" cy="73.3" r="4.55"/><circle class="cls-2" cx="44.47" cy="73.24" r="4.55"/><circle class="cls-2" cx="43.72" cy="73.15" r="4.55"/><circle class="cls-2" cx="42.97" cy="73.03" r="4.55"/><circle class="cls-2" cx="42.23" cy="72.88" r="4.55"/><circle class="cls-2" cx="41.5" cy="72.71" r="4.55"/><circle class="cls-2" cx="40.78" cy="72.52" r="4.55"/><circle class="cls-2" cx="40.06" cy="72.3" r="4.55"/><circle class="cls-2" cx="39.35" cy="72.06" r="4.55"/><circle class="cls-2" cx="38.66" cy="71.8" r="4.55"/><circle class="cls-2" cx="37.97" cy="71.52" r="4.55"/><circle class="cls-2" cx="37.3" cy="71.21" r="4.55"/><circle class="cls-2" cx="36.63" cy="70.89" r="4.55"/><circle class="cls-2" cx="35.98" cy="70.55" r="4.55"/><circle class="cls-2" cx="35.33" cy="70.18" r="4.55"/><circle class="cls-2" cx="34.7" cy="69.81" r="4.55"/><circle class="cls-2" cx="34.08" cy="69.41" r="4.55"/><circle class="cls-2" cx="33.48" cy="69" r="4.55"/><circle class="cls-2" cx="32.88" cy="68.57" r="4.55"/><circle class="cls-2" cx="32.3" cy="68.13" r="4.55"/><circle class="cls-2" cx="31.74" cy="67.68" r="4.55"/><circle class="cls-2" cx="31.19" cy="67.21" r="4.55"/><circle class="cls-2" cx="30.65" cy="66.73" r="4.55"/><circle class="cls-2" cx="30.13" cy="66.24" r="4.55"/><circle class="cls-2" cx="29.63" cy="65.73" r="4.55"/><circle class="cls-2" cx="29.14" cy="65.22" r="4.55"/><circle class="cls-2" cx="28.66" cy="64.7" r="4.55"/><circle class="cls-2" cx="28.21" cy="64.16" r="4.55"/><circle class="cls-2" cx="27.77" cy="63.62" r="4.55"/><circle class="cls-2" cx="27.35" cy="63.08" r="4.55"/><circle class="cls-2" cx="26.94" cy="62.52" r="4.55"/><circle class="cls-2" cx="26.56" cy="61.96" r="4.55"/><circle class="cls-2" cx="26.19" cy="61.4" r="4.55"/><circle class="cls-2" cx="25.84" cy="60.83" r="4.55"/><circle class="cls-2" cx="25.52" cy="60.26" r="4.55"/><circle class="cls-2" cx="25.21" cy="59.68" r="4.55"/><circle class="cls-2" cx="24.92" cy="59.1" r="4.55"/><circle class="cls-2" cx="24.66" cy="58.53" r="4.55"/><circle class="cls-2" cx="24.41" cy="57.95" r="4.55"/><circle class="cls-2" cx="24.19" cy="57.37" r="4.55"/><circle class="cls-2" cx="23.99" cy="56.79" r="4.55"/><circle class="cls-2" cx="23.81" cy="56.21" r="4.55"/><circle class="cls-2" cx="23.66" cy="55.63" r="4.55"/><circle class="cls-2" cx="23.53" cy="55.06" r="4.55"/><circle class="cls-2" cx="23.42" cy="54.49" r="4.55"/><circle class="cls-2" cx="23.33" cy="53.93" r="4.55"/><circle class="cls-2" cx="23.27" cy="53.37" r="4.55"/><circle class="cls-2" cx="23.24" cy="52.82" r="4.55"/><circle class="cls-2" cx="23.18" cy="52.44" r="4.55"/><circle class="cls-2" cx="22.69" cy="52.93" r="4.55"/><circle class="cls-2" cx="22.21" cy="53.41" r="4.55"/><circle class="cls-2" cx="21.72" cy="53.9" r="4.55"/><circle class="cls-2" cx="21.23" cy="54.39" r="4.55"/><circle class="cls-2" cx="20.74" cy="54.88" r="4.55"/><circle class="cls-2" cx="20.25" cy="55.37" r="4.55"/><circle class="cls-2" cx="19.76" cy="55.86" r="4.55"/><circle class="cls-2" cx="19.28" cy="56.34" r="4.55"/><circle class="cls-2" cx="18.79" cy="56.83" r="4.55"/><circle class="cls-2" cx="18.3" cy="57.32" r="4.55"/><circle class="cls-2" cx="17.81" cy="57.81" r="4.55"/><circle class="cls-2" cx="17.32" cy="58.3" r="4.55"/><circle class="cls-2" cx="16.83" cy="58.79" r="4.55"/><circle class="cls-2" cx="16.34" cy="59.28" r="4.55"/><circle class="cls-2" cx="15.86" cy="59.76" r="4.55"/><circle class="cls-2" cx="15.37" cy="60.25" r="4.55"/><circle class="cls-2" cx="14.88" cy="60.74" r="4.55"/><circle class="cls-2" cx="14.39" cy="61.23" r="4.55"/><circle class="cls-2" cx="13.9" cy="61.72" r="4.55"/><circle class="cls-2" cx="13.41" cy="62.21" r="4.55"/><circle class="cls-2" cx="12.93" cy="62.69" r="4.55"/><circle class="cls-2" cx="12.44" cy="63.18" r="4.55"/><circle class="cls-2" cx="11.95" cy="63.67" r="4.55"/><circle class="cls-2" cx="11.46" cy="64.16" r="4.55"/><circle class="cls-2" cx="10.97" cy="64.65" r="4.55"/><circle class="cls-2" cx="10.48" cy="65.14" r="4.55"/><circle class="cls-2" cx="9.99" cy="65.63" r="4.55"/><circle class="cls-2" cx="9.51" cy="66.11" r="4.55"/><circle class="cls-2" cx="9.02" cy="66.6" r="4.55"/></svg>