<?xml version="1.0" encoding="utf-8"?>
<!-- Generator: Adobe Illustrator 24.1.3, SVG Export Plug-In . SVG Version: 6.00 Build 0)  -->
<svg version="1.1" id="Layer_1" xmlns="http://www.w3.org/2000/svg" xmlns:xlink="http://www.w3.org/1999/xlink" x="0px" y="0px"
	 viewBox="0 0 336.3 95" style="enable-background:new 0 0 336.3 95;" xml:space="preserve">
<style type="text/css">
	.st0{fill:none;stroke:#22B573;stroke-width:9;stroke-linecap:round;stroke-linejoin:round;stroke-miterlimit:10;}
	.st1{fill:#33934A;}
	.st2{fill:none;stroke:#FFFFFF;stroke-width:9;stroke-linecap:round;stroke-linejoin:round;stroke-miterlimit:10;}
	.st3{fill:none;stroke:#55FF8E;stroke-width:9;stroke-linecap:round;stroke-linejoin:round;stroke-miterlimit:10;}
	.st4{fill:#FFFFFF;}
	.st5{fill:#55FF8E;}
	.st6{fill:none;stroke:#74F7B8;stroke-width:9;stroke-linecap:round;stroke-linejoin:round;stroke-miterlimit:10;}
</style>
<g>
	<g>
		<path class="st2" d="M8.79,66.25C15.76,80.61,30.48,90.5,47.5,90.5c16.5,0,30.83-9.29,38.04-22.93"/>
		<path class="st2" d="M85.54,27.43C78.33,13.79,64,4.5,47.5,4.5c-23.74,0-43,19.25-43,43c0,6.73,1.54,13.09,4.29,18.75"/>
		<path class="st3" d="M85.54,27.43L72,40.97L72,41c0-8-11-17.39-21-17.39c-0.05,0-4.86,0-4.91,0c-6.6,0-11.94,5.35-11.94,11.94
			S39.5,47.5,46.09,47.5H49c9,0,14.35,5.5,14.35,12.44c0,6.57-6.28,13.06-15.6,13.06c-2,0-1.71,0-2.82,0C34.94,73,23,62,23,52
			l0,0.04L8.79,66.25"/>
	</g>
	<g>
		<path class="st4" d="M113.51,63.67c-9.51,0-16.68-6.86-16.68-17.13c0-10.15,7.06-17.12,16.68-17.12c7.21,0,12.15,2.71,14.53,7.58
			c1.14,2.34,0.22,4.06-2.27,4.49l-0.6,0.1c-2.11,0.36-3.11-0.36-4.44-1.87c-1.61-2.03-3.85-3.1-6.77-3.1
			c-4.95,0-8.32,3.99-8.32,9.92c0,5.9,3.37,9.89,8.32,9.89c2.84,0,5.09-1.1,6.69-3.06c1.33-1.51,2.3-2.21,4.4-1.87l0.45,0.07
			c2.65,0.42,3.6,2.1,2.57,4.32C125.78,60.81,120.64,63.67,113.51,63.67L113.51,63.67z"/>
		<path class="st4" d="M133.31,46.54c0-11.14,6.23-17.12,14.5-17.12c4.64,0,9.07,2.3,10.79,6.36v-2.44c0-2.14,1.41-3.38,3.86-3.38
			h1.08c2.49,0,3.86,1.37,3.86,3.86v25.39c0,2.49-1.37,3.86-3.86,3.86h-1.08c-2.43,0-3.86-1.22-3.86-3.3V57.5
			c-1.68,3.95-6.15,6.25-10.75,6.25C139.6,63.75,133.31,57.7,133.31,46.54z M158.88,46.52c0-6.11-3.41-9.92-8.42-9.92
			c-4.95,0-8.36,3.79-8.36,9.92c0,6.19,3.39,9.98,8.44,9.98C155.51,56.51,158.88,52.7,158.88,46.52z"/>
		<path class="st4" d="M188.7,63.63c-5.56,0-10.95-1.89-13.83-5.05c-1.79-1.96-1.51-4.31,1.48-4.92l0.89-0.18
			c1.79-0.37,2.63,0.2,4.55,1.62c1.91,1.42,4.48,2.35,6.9,2.35c3.7,0,5.95-1.39,5.95-3.68c0-6.65-20.12-1.83-20.12-14.42
			c0-6.26,6.13-9.89,13.99-9.89c4.57,0,9.59,1.51,12.47,4.34c1.92,1.88,1.56,4.19-1.22,4.82l-0.76,0.17
			c-2.15,0.48-3.06-0.54-4.56-1.42c-1.81-1.09-3.79-1.82-5.76-1.82c-3.3,0-5.5,1.16-5.5,3.28c0,6.5,20.35,1.11,20.35,14.14
			C203.54,59.45,197.58,63.63,188.7,63.63L188.7,63.63z"/>
		<path class="st4" d="M212.98,63.13c-2.49,0-3.86-1.37-3.86-3.86V23.03c0-2.49,1.37-3.86,3.86-3.86h1.08
			c2.49,0,3.86,1.37,3.86,3.86v12.25c1.28-2.86,4.68-5.94,10.25-5.94c8.26,0,12.88,4.24,12.88,15.54v14.39
			c0,2.49-1.37,3.86-3.86,3.86h-1.08c-2.49,0-3.86-1.37-3.86-3.86V45.69c0-6.36-2.26-8.9-7.2-8.9c-4.88,0-7.12,3-7.12,9.4v13.07
			c0,2.49-1.37,3.86-3.86,3.86L212.98,63.13L212.98,63.13z"/>
		<path class="st5" d="M253.91,63.13c-2.49,0-3.86-1.37-3.86-3.86V36.6h-1.39c-2.14,0-3.48-1.27-3.48-3.36c0-2.14,1.38-3.3,3.48-3.3
			h1.39v-1.18c0-7.54,4.25-11.35,12.6-11.35c0.85,0,1.81,0.04,2.67,0.12c2.63,0.26,3.67,1.5,3.38,3.53c-0.3,2.11-1.2,2.97-3.11,2.92
			c-0.53-0.02-0.89-0.04-1.36-0.04c-3.5,0-5.28,1.57-5.28,4.91v1.08h4.94c2.49,0,3.86,1.16,3.86,3.3c0,2.16-1.37,3.36-3.86,3.36
			h-4.94v22.67c0,2.49-1.37,3.86-3.86,3.86H253.91L253.91,63.13z"/>
		<path class="st5" d="M303.53,33.84v25.45c0,2.49-1.37,3.86-3.86,3.86h-1.08c-2.49,0-3.86-1.37-3.86-3.75v-1.68
			c-1.46,3.42-5.26,5.91-10.25,5.91c-8.91,0-12.88-4.93-12.88-15.41V33.84c0-2.49,1.37-3.86,3.86-3.86h1.08
			c2.49,0,3.86,1.37,3.86,3.86v13.58c0,6.09,2.24,8.9,7.2,8.9c5.11,0,7.12-3.27,7.12-9.4V33.84c0-2.49,1.37-3.86,3.86-3.86h1.08
			C302.16,29.98,303.53,31.35,303.53,33.84z"/>
		<path class="st5" d="M311.14,59.27V23.03c0-2.49,1.37-3.86,3.86-3.86h1.14c2.49,0,3.86,1.37,3.86,3.86v36.24
			c0,2.49-1.37,3.86-3.86,3.86H315C312.51,63.13,311.14,61.76,311.14,59.27z"/>
		<path class="st5" d="M327.44,59.27V23.03c0-2.49,1.37-3.86,3.86-3.86h1.14c2.49,0,3.86,1.37,3.86,3.86v36.24
			c0,2.49-1.37,3.86-3.86,3.86h-1.14C328.81,63.13,327.44,61.76,327.44,59.27z"/>
	</g>
</g>
</svg>
