<svg id="seedcash-au-icons-07" xmlns="http://www.w3.org/2000/svg" width="100%" height="100%" viewBox="0 0 151.76 198.992">
  <text id="Emergencies" transform="translate(9.431 193.992)" fill="#3ec430" font-size="19" font-family="SegoeUI-Bold, Segoe UI" font-weight="700"><tspan x="0" y="0">Eme</tspan><tspan y="0" letter-spacing="-0.01em">r</tspan><tspan y="0">gencies</tspan></text>
  <path id="Path_3868" data-name="Path 3868" d="M148.1,218.461a6.221,6.221,0,1,0,6.216-6.221A6.221,6.221,0,0,0,148.1,218.461Z" transform="translate(-72.148 -103.394)" fill="#3ec430"/>
  <path id="Path_3869" data-name="Path 3869" d="M136.41,159.085a59.085,59.085,0,0,1-13.293,20.268,59.7,59.7,0,0,1-84.332,0,58.818,58.818,0,0,1-13.1-19.862A32.894,32.894,0,0,1,.62,127.57v-8.359H24.139A59.449,59.449,0,0,1,33.555,101v30.458H13.246A20.626,20.626,0,0,0,30.98,148.012l3.846.467,1.226,3.682a46.9,46.9,0,0,0,11.4,18.519,47.392,47.392,0,0,0,75.28-11.154h8.549A29.181,29.181,0,0,0,136.41,159.085Z" transform="translate(-0.302 -49.203)" fill="#3ec430"/>
  <path id="Path_3870" data-name="Path 3870" d="M176.522,55.52H108.755A18.975,18.975,0,0,0,89.78,74.5v33.668a18.975,18.975,0,0,0,18.975,18.975h67.767A18.975,18.975,0,0,0,195.5,108.163V74.49a18.975,18.975,0,0,0-18.975-18.97Zm7.693,52.638a7.693,7.693,0,0,1-7.693,7.693H108.755a7.693,7.693,0,0,1-7.693-7.693V74.49a7.693,7.693,0,0,1,7.693-7.693h67.767a7.693,7.693,0,0,1,7.693,7.693Z" transform="translate(-43.737 -27.047)" fill="#3ec430"/>
  <path id="Path_3871" data-name="Path 3871" d="M187.934,103.859h-3.5v-3.5a5.641,5.641,0,1,0-11.283,0v3.5h-3.513a5.641,5.641,0,0,0,0,11.283h3.5v3.5a5.641,5.641,0,1,0,11.283,0v-3.5h3.5a5.641,5.641,0,1,0,0-11.283Z" transform="translate(-79.894 -46.144)" fill="#3ec430"/>
  <path id="Path_3872" data-name="Path 3872" d="M26.641,68.163H43.868a5.641,5.641,0,0,0,0-11.283H26.641a5.641,5.641,0,0,0,0,11.283Z" transform="translate(-10.23 -27.71)" fill="#3ec430"/>
  <path id="Path_3873" data-name="Path 3873" d="M5.641,104.013H15.9a5.641,5.641,0,1,0,0-11.283H5.641a5.641,5.641,0,1,0,0,11.283Z" transform="translate(0 -45.174)" fill="#3ec430"/>
  <path id="Path_3874" data-name="Path 3874" d="M185.751,21.883a5.641,5.641,0,0,0,5.641-5.641V5.641a5.641,5.641,0,0,0-11.283,0v10.6A5.641,5.641,0,0,0,185.751,21.883Z" transform="translate(-87.742)" fill="#3ec430"/>
  <path id="Path_3875" data-name="Path 3875" d="M226.4,26.317a5.641,5.641,0,0,0,3.99-1.651l6.005-6.005a5.643,5.643,0,1,0-7.98-7.98l-5.985,6.026a5.641,5.641,0,0,0,3.99,9.631Z" transform="translate(-107.553 -4.398)" fill="#3ec430"/>
  <path id="Path_3876" data-name="Path 3876" d="M138.891,24.665a5.641,5.641,0,0,0,7.98-7.959L140.85,10.68a5.643,5.643,0,0,0-7.98,7.98Z" transform="translate(-63.924 -4.398)" fill="#3ec430"/>
</svg>
