<svg xmlns="http://www.w3.org/2000/svg" width="100%" height="100%" viewBox="0 0 189 204.9">
  <g id="Group_2334" data-name="Group 2334" transform="translate(-9397 5065.055)">
    <text id="Home_improvements" data-name="Home improvements" transform="translate(9397 -4865.155)" fill="#3ec430" font-size="19" font-family="SegoeUI-Bold, Segoe UI" font-weight="700"><tspan x="0" y="0">Home improvements</tspan></text>
    <g id="Group_2333" data-name="Group 2333" transform="translate(21.757)">
      <path id="Path_3848" data-name="Path 3848" d="M243.531,22.893h10.047V32.944a5.641,5.641,0,1,0,11.283,0V11.61H243.531a5.641,5.641,0,1,0,0,11.283Z" transform="translate(9278.353 -5070.711)" fill="#3ec430"/>
      <path id="Path_3849" data-name="Path 3849" d="M171.7,28a11.318,11.318,0,0,1,.082,3.139l10.19-10.19L221.625,60.6a5.643,5.643,0,0,0,7.98-7.98L181.972,5,166.93,20.031v.354A11.534,11.534,0,0,1,171.7,28Z" transform="translate(9312.921 -5067.491)" fill="#3ec430"/>
      <path id="Path_3850" data-name="Path 3850" d="M60.641,32.309a5.129,5.129,0,0,0,.831.062h4.9a18.088,18.088,0,0,0,1.687,4.067L66.6,37.95l-1.99,1.99h0a4.923,4.923,0,0,0,3.477,8.411,4.867,4.867,0,0,0,2.846-.908,5.4,5.4,0,0,0,.631-.544h0l3.467-3.472A18.3,18.3,0,0,0,79.1,45.12v4.9h0a4.939,4.939,0,0,0,.231,1.493h0a4.913,4.913,0,0,0,4.687,3.436h0a5.129,5.129,0,0,0,.831-.072,4.923,4.923,0,0,0,4.026-4.021,5.129,5.129,0,0,0,.062-.836h0V45.13A18.288,18.288,0,0,0,93,43.443l3.467,3.467h0a4.954,4.954,0,0,0,2.149,1.256h0a4.918,4.918,0,0,0,6.087-6.087,4.856,4.856,0,0,0-.718-1.508,5.1,5.1,0,0,0-.549-.636h0l-3.467-3.467a18.149,18.149,0,0,0,1.687-4.062h4.9a4.923,4.923,0,0,0,1.492-9.616,4.78,4.78,0,0,0-.662-.159,5.076,5.076,0,0,0-.831-.062h-4.9a18.088,18.088,0,0,0-1.682-4.108L103.443,15h0a4.923,4.923,0,0,0-6.323-7.5,5.4,5.4,0,0,0-.631.544h0l-3.467,3.472a18.2,18.2,0,0,0-4.067-1.692V4.928h0A4.923,4.923,0,0,0,84.037,0a5.129,5.129,0,0,0-.831.072A4.928,4.928,0,0,0,79.16,4.1a5.126,5.126,0,0,0-.056.836h0v4.9a18.149,18.149,0,0,0-4.062,1.687L71.57,8.057h0a4.923,4.923,0,0,0-7.534,6.3,5.1,5.1,0,0,0,.549.636h0l3.477,3.467a18.15,18.15,0,0,0-1.687,4.1h-4.9a4.923,4.923,0,0,0-.831,9.744Zm23.4-11.877A7.041,7.041,0,1,1,79.18,32.56a.821.821,0,0,1-.133-.133,7.031,7.031,0,0,1,4.99-12Z" transform="translate(9366.618 -5065.055)" fill="#3ec430"/>
      <path id="Path_3851" data-name="Path 3851" d="M69.09,183.307a46.889,46.889,0,0,1-21.155-5.036l-3.467-1.739-3.051,2.39a20.627,20.627,0,0,1-24.247.836l14.478-14.478-2.61-4.144a47.181,47.181,0,0,1,4.508-56.5,16.211,16.211,0,0,1-8.3-9.077,59.423,59.423,0,0,0-9.041,67.829L0,179.594,3.646,183.9c.544.641,1.144,1.328,1.841,2.026a32.9,32.9,0,0,0,40.3,4.846,58.731,58.731,0,0,0,23.3,4.785,59.643,59.643,0,0,0,51.284-29.232H105.4A47.279,47.279,0,0,1,69.09,183.307Z" transform="translate(9394.242 -5111.608)" fill="#3ec430"/>
      <path id="Path_3852" data-name="Path 3852" d="M97.4,175.344h99.691V132.45H97.4Zm11.283-31.612h77.126v20.329H108.683Z" transform="translate(9346.793 -5129.579)" fill="#3ec430"/>
      <path id="Path_3853" data-name="Path 3853" d="M185,87.441a6.216,6.216,0,1,0,6.216-6.221A6.216,6.216,0,0,0,185,87.441Z" transform="translate(9304.118 -5104.622)" fill="#3ec430"/>
    </g>
  </g>
</svg>
