<svg id="seedcash-au-icons-04" xmlns="http://www.w3.org/2000/svg" width="100%" height="100%" viewBox="0 0 146.567 203.756">
  <text id="Life_Events" data-name="Life Events" transform="translate(18.546 198.756)" fill="#3ec430" font-size="19" font-family="SegoeUI-Bold, Segoe UI" font-weight="700"><tspan x="0" y="0">Life Eve</tspan><tspan y="0" letter-spacing="-0.01em">n</tspan><tspan y="0">ts</tspan></text>
  <path id="Path_3854" data-name="Path 3854" d="M137.13,158.19a6.216,6.216,0,1,0,6.216-6.19,6.216,6.216,0,0,0-6.216,6.19Z" transform="translate(-66.767 -74.048)" fill="#3ec430"/>
  <path id="Path_3855" data-name="Path 3855" d="M112.482,162.584a59.024,59.024,0,0,0,4.841-12.611c-.938.81-1.908,1.61-2.9,2.41a163.309,163.309,0,0,1-17.344,12.1l14.442,14.442a20.621,20.621,0,0,1-24.247-.831l-3.077-2.39-3.467,1.733a46.822,46.822,0,0,1-21.155,5.036,47.366,47.366,0,0,1-43.258-66.608A43.591,43.591,0,0,1,14.678,104.1,47.079,47.079,0,0,1,15,98.571a1.026,1.026,0,0,0-1.862-.79A59.572,59.572,0,0,0,82.9,189.975a32.9,32.9,0,0,0,40.3-4.846c.708-.708,1.328-1.426,1.841-2.051l3.641-4.3Z" transform="translate(0.073 -47.405)" fill="#3ec430"/>
  <path id="Path_3856" data-name="Path 3856" d="M123.436,44.34c-9,0-15.267,4.38-19.488,9.39a35.751,35.751,0,0,0-2.19,2.892,33.305,33.305,0,0,0-4.1-4.939A24.332,24.332,0,0,0,80.045,44.34,32.768,32.768,0,0,0,53.582,57.1a34.637,34.637,0,0,0-6.923,21.1v.1c0,13.693,8.554,27.524,25.427,41.109A160.7,160.7,0,0,0,99,136.718l.123.062a5.641,5.641,0,0,0,2.621.646,5.549,5.549,0,0,0,2.595-.641l.128-.067a162.906,162.906,0,0,0,23.488-14.642c1.138-.856,2.282-1.749,3.426-2.667a106.534,106.534,0,0,0,10.6-9.693c9.852-10.441,14.831-20.97,14.831-31.417C156.822,58.941,142.468,44.34,123.436,44.34Zm16.621,49.9a65.932,65.932,0,0,1-10.431,11.852c-10.18,9.339-22.462,16.411-27.878,19.324-10.052-5.4-43.792-25.17-43.792-47.115a24.3,24.3,0,0,1,2.5-10.98c3.59-7.144,10.77-11.7,19.606-11.7,5.882,0,9.888,3.662,12.442,7.416a29.744,29.744,0,0,1,3.8,8.036,5.641,5.641,0,0,0,10.9,0,17.509,17.509,0,0,1,.58-1.723,26.148,26.148,0,0,1,6.667-10.257,13.406,13.406,0,0,1,8.964-3.467c12.821,0,22.1,9.539,22.1,22.678C145.54,83.819,143.411,89.193,140.057,94.24Z" transform="translate(-22.692 -21.601)" fill="#3ec430"/>
  <path id="Path_3857" data-name="Path 3857" d="M221.627,22.832a52.572,52.572,0,0,0-5.769-6.98A53.417,53.417,0,0,0,177.4,0a46.566,46.566,0,0,0-7.426.585,43.643,43.643,0,0,0-9.882,2.8l-.7.3a5.79,5.79,0,0,0,4.769,10.544l.226-.1A33.766,33.766,0,0,1,177.4,11.282,42.218,42.218,0,0,1,207.811,23.76a41.332,41.332,0,0,1,4.5,5.436,5.641,5.641,0,1,0,9.314-6.365Z" transform="translate(-76.045 0)" fill="#3ec430"/>
  <path id="Path_3858" data-name="Path 3858" d="M108.677,114.434h0a5.641,5.641,0,0,1-9.477,4.154c-.667-.621-1.385-1.246-2.144-1.908-4.477-3.908-10.606-9.231-10.606-18.062,0-7.641,4.544-15.108,11.559-15.108,3.016,0,5.759,1.287,5.759,4.154,0,5.385-6.031,3.831-6.031,10.529,0,6.19,7.1,8.718,9.857,12.939a6.359,6.359,0,0,1,1.026,2.457,3.237,3.237,0,0,1,.051.39,4.071,4.071,0,0,1,.005.456Z" transform="translate(-42.077 -40.683)" fill="#3ec430"/>
  <path id="Path_3859" data-name="Path 3859" d="M128.676,139.867a6.359,6.359,0,0,0-1.026-2.457,5.488,5.488,0,0,1,1.026,2.457Z" transform="translate(-62.148 -66.94)" fill="#3ec430"/>
</svg>
