<svg id="seedcash-au-icons-10" xmlns="http://www.w3.org/2000/svg" width="100%" height="100%" viewBox="0 0 134.145 192.623">
  <text id="Travel" transform="translate(29.611 187.623)" fill="#3ec430" font-size="19" font-family="SegoeUI-Bold, Segoe UI" font-weight="700"><tspan x="0" y="0" letter-spacing="-0.06em">T</tspan><tspan y="0" letter-spacing="-0.01em">r</tspan><tspan y="0">avel</tspan></text>
  <path id="Path_3892" data-name="Path 3892" d="M97.712,160.441a6.221,6.221,0,1,0-6.221,6.221,6.221,6.221,0,0,0,6.221-6.221Z" transform="translate(-41.519 -75.129)" fill="#3ec430"/>
  <path id="Path_3893" data-name="Path 3893" d="M106.508,102.823q-.108.769-.246,1.539a46.156,46.156,0,0,1-1.9,7.293,34.95,34.95,0,0,0-44.735,31.8h-.667c-.7,0-1.405-.036-2.1-.087a46.422,46.422,0,0,1-10.206-1.754,47.443,47.443,0,0,1-12.226-5.487l-4.139-2.615-14.493,14.5a20.621,20.621,0,0,1,.831-24.247l2.39-3.051-1.739-3.472A46.776,46.776,0,0,1,12.7,102.607,51.884,51.884,0,0,0,44.254,74.355c.549-1.231,1.026-2.477,1.5-3.754A51.356,51.356,0,0,0,48.7,53.359c0-1.139-.036-2.262-.113-3.385a43.015,43.015,0,0,1,4.313-.81,46.751,46.751,0,0,1,6.713-.477H59.7a47.662,47.662,0,0,1,5.959.385L75.64,38.625c-.595-.169-1.19-.318-1.79-.467h0A58.976,58.976,0,0,0,59.619,36.43a59.587,59.587,0,0,0-8.605.621h0c-1.574.231-3.128.513-4.657.872a59.717,59.717,0,0,0-6.375,1.826c-1.482.513-2.939,1.1-4.364,1.728a58.684,58.684,0,0,0-8.062,4.318,60,60,0,0,0-22.3,25.719A58.561,58.561,0,0,0,1.586,82.242C1.334,83.3,1.1,84.36.914,85.432a59.746,59.746,0,0,0-.9,8.205c-.036.821-.051,1.636-.051,2.451v1a58.064,58.064,0,0,0,.687,7.79,58.715,58.715,0,0,0,4.1,14.488,32.889,32.889,0,0,0,4.846,40.3c.692.7,1.385,1.3,2.026,1.846l4.308,3.641,16.2-16.2a59.734,59.734,0,0,0,10.072,4.1,58.525,58.525,0,0,0,9.544,2.133,59.171,59.171,0,0,0,7.872.513h1.569a58.073,58.073,0,0,0,9.37-1.026c.708-.133,1.41-.282,2.108-.441a58.525,58.525,0,0,0,15.011-5.569,60,60,0,0,0,22.565-21.17c.338-.544.667-1.092.985-1.636a58.977,58.977,0,0,0,3.318-6.667c.287-.687.569-1.38.831-2.051l.031-.087a59.054,59.054,0,0,0,3.559-15.467c.072-.733.128-1.472.164-2.21a15.272,15.272,0,0,1-9.965,3.667,15.514,15.514,0,0,1-2.657-.221ZM13.5,85.206a46.946,46.946,0,0,1,4.21-11.221A47.72,47.72,0,0,1,29.669,59.38a46.951,46.951,0,0,1,7.749-5.154A40.427,40.427,0,0,1,12.566,90.637a44.244,44.244,0,0,1,.933-5.431ZM98.774,122.7a47.5,47.5,0,0,1-26.642,19.062l-1.062.277a23.683,23.683,0,0,1,28.176-20.052A8.142,8.142,0,0,1,98.774,122.7Z" transform="translate(0.04 -17.747)" fill="#3ec430"/>
  <path id="Path_3894" data-name="Path 3894" d="M183.4,56.484l-33.083-34.6V5.641a5.641,5.641,0,1,0-11.283,0V21.888l-2.616,2.728L127.4,34.053,105.953,56.484a5.642,5.642,0,0,0,8.154,7.8l23.621-24.709,1.3-1.359V51.582L125.216,66.034a5.647,5.647,0,1,0,8.154,7.816l5.641-5.923v8.462a5.641,5.641,0,0,0,11.283,0V67.9l5.693,5.949a5.5,5.5,0,0,0,1.769,1.251,5.639,5.639,0,0,0,6.385-9.041L150.319,51.607V38.217l14.17,14.811,10.77,11.257a5.642,5.642,0,0,0,8.154-7.8Z" transform="translate(-50.833)" fill="#3ec430"/>
  <path id="Path_3895" data-name="Path 3895" d="M60.437,172.615a5.643,5.643,0,1,0-10.677,3.657,28.483,28.483,0,0,0,16.047,17.067,5.713,5.713,0,0,0,2.154.426,5.641,5.641,0,0,0,2.159-10.852A17.18,17.18,0,0,1,60.437,172.615Z" transform="translate(-24.071 -82.232)" fill="#3ec430"/>
</svg>
