<?xml version="1.0" encoding="utf-8"?>
<!-- Generator: Adobe Illustrator 24.1.1, SVG Export Plug-In . SVG Version: 6.00 Build 0)  -->
<svg version="1.1" id="Layer_1" xmlns="http://www.w3.org/2000/svg" xmlns:xlink="http://www.w3.org/1999/xlink" width="100%" height="100%" x="0px" y="0px"
	 viewBox="0 0 932.2 1097.3" style="enable-background:new 0 0 932.2 1097.3;" xml:space="preserve">
<style type="text/css">
	.st0{enable-background:new    ;}
	.st1{fill:#3EC430;}
</style>
<g id="Group_2338">
	<g id="Group_2337">
		<g id="Group_2336">
			<g id="Group_2335">
				<g id="seedcash-au-icons-11" transform="translate(9382.52 -4533.401)">
					<g>
						<g class="st0">
							<path class="st1" d="M-9250.7,5513.8l-24.9,72.4h-18.5l-24.6-72.4h17.6l15.1,50.4c0.8,2.7,1.3,5.1,1.5,7.2h0.3
								c0.2-2.3,0.8-4.7,1.6-7.4l15-50.2H-9250.7z"/>
						</g>
						<g class="st0">
							<path class="st1" d="M-9204.4,5564.9h-33.7c0.5,7.5,5.3,11.3,14.2,11.3c5.7,0,10.7-1.3,15-4v11.5c-4.8,2.6-11,3.8-18.6,3.8
								c-8.3,0-14.8-2.3-19.4-6.9c-4.6-4.6-6.9-11.1-6.9-19.4c0-8.6,2.5-15.4,7.5-20.4c5-5,11.1-7.5,18.4-7.5
								c7.5,0,13.4,2.2,17.5,6.7c4.1,4.5,6.2,10.5,6.2,18.2V5564.9z M-9219.2,5555.1c0-7.4-3-11.1-9-11.1c-2.6,0-4.8,1.1-6.6,3.2
								s-3,4.8-3.4,7.9H-9219.2z"/>
							<path class="st1" d="M-9145.4,5586.2h-15.9v-29.4c0-7.6-2.8-11.4-8.3-11.4c-2.8,0-5.1,1.1-6.9,3.2s-2.6,4.8-2.6,8.1v29.5
								h-15.9v-76.5h15.9v32.5h0.2c3.9-6,9.2-8.9,15.9-8.9c11.7,0,17.6,7.1,17.6,21.2V5586.2z"/>
							<path class="st1" d="M-9124.7,5526.4c-2.7,0-4.9-0.8-6.6-2.4c-1.7-1.6-2.6-3.6-2.6-5.9c0-2.4,0.9-4.3,2.6-5.9
								c1.7-1.5,3.9-2.3,6.6-2.3c2.7,0,4.9,0.8,6.6,2.3c1.7,1.5,2.5,3.5,2.5,5.9c0,2.4-0.8,4.4-2.5,6
								C-9119.7,5525.6-9121.9,5526.4-9124.7,5526.4z M-9116.8,5586.2h-15.9v-51.7h15.9V5586.2z"/>
							<path class="st1" d="M-9064.2,5584.3c-3.6,2.1-8.8,3.1-15.6,3.1c-7.9,0-14.4-2.4-19.3-7.2c-4.9-4.8-7.4-11-7.4-18.6
								c0-8.8,2.6-15.7,7.9-20.8c5.3-5.1,12.3-7.6,21.1-7.6c6.1,0,10.5,0.8,13.2,2.4v13.5c-3.3-2.5-7-3.7-11.2-3.7
								c-4.6,0-8.2,1.3-10.9,4c-2.7,2.7-4,6.4-4,11.1c0,4.6,1.3,8.2,3.8,10.8c2.6,2.6,6.1,3.9,10.5,3.9c4,0,7.9-1.2,11.7-3.7V5584.3
								z"/>
							<path class="st1" d="M-9037.8,5586.2h-15.9v-76.5h15.9V5586.2z"/>
							<path class="st1" d="M-8978,5564.9h-33.7c0.5,7.5,5.3,11.3,14.2,11.3c5.7,0,10.7-1.3,15-4v11.5c-4.8,2.6-11,3.8-18.6,3.8
								c-8.3,0-14.8-2.3-19.4-6.9c-4.6-4.6-6.9-11.1-6.9-19.4c0-8.6,2.5-15.4,7.5-20.4c5-5,11.1-7.5,18.4-7.5
								c7.5,0,13.4,2.2,17.5,6.7c4.1,4.5,6.2,10.5,6.2,18.2V5564.9z M-8992.8,5555.1c0-7.4-3-11.1-9-11.1c-2.6,0-4.8,1.1-6.6,3.2
								s-3,4.8-3.4,7.9H-8992.8z"/>
							<path class="st1" d="M-8895,5586.2h-43.4v-72.4h41.7v13.3h-25.4v16.1h23.7v13.2h-23.7v16.6h27.1V5586.2z"/>
							<path class="st1" d="M-8835.1,5534.5l-17.1,25l17,26.6h-18.4l-7.5-13.9c-0.6-1.1-1.3-2.7-2.2-4.7h-0.2
								c-0.5,1.4-1.2,2.9-2.1,4.5l-7.5,14.1h-18.3l17.5-25.7l-16.4-25.9h18.5l7.4,14.5c1,1.9,1.7,3.5,2.1,4.8h0.2
								c0.5-1.6,1.3-3.2,2.2-4.9l7.5-14.4H-8835.1z"/>
							<path class="st1" d="M-8811.8,5580.2h-0.2v29.8h-15.9v-75.4h15.9v7.8h0.2c3.9-6,9.5-9,16.6-9c6.7,0,11.9,2.3,15.5,6.9
								c3.6,4.6,5.5,10.8,5.5,18.7c0,8.6-2.1,15.5-6.4,20.7c-4.3,5.2-9.9,7.8-17,7.8C-8803.8,5587.5-8808.5,5585-8811.8,5580.2z
								 M-8812.2,5559v4.1c0,3.6,0.9,6.5,2.8,8.7c1.9,2.3,4.4,3.4,7.4,3.4c3.6,0,6.4-1.4,8.5-4.2c2-2.8,3-6.8,3-11.9
								c0-9.1-3.5-13.6-10.6-13.6c-3.3,0-5.9,1.2-8,3.7C-8811.2,5551.7-8812.2,5554.9-8812.2,5559z"/>
							<path class="st1" d="M-8717.4,5564.9h-33.7c0.5,7.5,5.3,11.3,14.2,11.3c5.7,0,10.7-1.3,15-4v11.5c-4.8,2.6-11,3.8-18.6,3.8
								c-8.3,0-14.8-2.3-19.4-6.9c-4.6-4.6-6.9-11.1-6.9-19.4c0-8.6,2.5-15.4,7.5-20.4c5-5,11.1-7.5,18.4-7.5
								c7.5,0,13.4,2.2,17.5,6.7c4.1,4.5,6.2,10.5,6.2,18.2V5564.9z M-8732.2,5555.1c0-7.4-3-11.1-9-11.1c-2.6,0-4.8,1.1-6.6,3.2
								s-3,4.8-3.4,7.9H-8732.2z"/>
							<path class="st1" d="M-8658,5586.2h-15.9v-28.7c0-8-2.9-12-8.6-12c-2.8,0-5,1.1-6.8,3.2c-1.8,2.1-2.7,4.8-2.7,8.1v29.5h-15.9
								v-51.7h15.9v8.2h0.2c3.8-6.3,9.3-9.4,16.6-9.4c11.4,0,17.2,7.1,17.2,21.3V5586.2z"/>
							<path class="st1" d="M-8648.8,5584.8v-12.9c2.6,1.6,5.2,2.8,7.8,3.5c2.6,0.8,5.1,1.2,7.4,1.2c2.8,0,5.1-0.4,6.7-1.2
								c1.6-0.8,2.4-2,2.4-3.5c0-1-0.4-1.8-1.1-2.5c-0.7-0.7-1.7-1.3-2.9-1.8c-1.2-0.5-2.4-1-3.8-1.4c-1.4-0.4-2.7-0.9-4-1.4
								c-2.1-0.8-3.9-1.6-5.4-2.5c-1.6-0.9-2.9-1.9-3.9-3.1c-1.1-1.2-1.9-2.5-2.4-4.1c-0.6-1.5-0.8-3.4-0.8-5.5
								c0-2.9,0.6-5.4,1.9-7.5c1.3-2.1,2.9-3.8,5-5.1c2.1-1.3,4.5-2.3,7.2-2.9c2.7-0.6,5.5-0.9,8.5-0.9c2.3,0,4.6,0.2,7,0.5
								s4.7,0.9,7,1.5v12.3c-2-1.2-4.2-2.1-6.5-2.6c-2.3-0.6-4.6-0.9-6.8-0.9c-1,0-2,0.1-3,0.3c-0.9,0.2-1.7,0.5-2.4,0.8
								c-0.7,0.4-1.3,0.8-1.7,1.4s-0.6,1.2-0.6,1.9c0,0.9,0.3,1.7,0.9,2.4s1.4,1.3,2.4,1.7c1,0.5,2.1,0.9,3.3,1.3s2.4,0.8,3.6,1.2
								c2.1,0.7,4,1.5,5.8,2.4c1.7,0.9,3.2,1.9,4.4,3.1c1.2,1.2,2.2,2.6,2.8,4.1c0.7,1.6,1,3.5,1,5.7c0,3.1-0.7,5.7-2,7.8
								s-3.1,3.9-5.3,5.3s-4.7,2.4-7.6,3s-5.9,0.9-9,0.9C-8638.7,5587.5-8644,5586.6-8648.8,5584.8z"/>
							<path class="st1" d="M-8553.5,5564.9h-33.7c0.5,7.5,5.3,11.3,14.2,11.3c5.7,0,10.7-1.3,15-4v11.5c-4.8,2.6-11,3.8-18.6,3.8
								c-8.3,0-14.8-2.3-19.4-6.9c-4.6-4.6-6.9-11.1-6.9-19.4c0-8.6,2.5-15.4,7.5-20.4c5-5,11.1-7.5,18.4-7.5
								c7.5,0,13.4,2.2,17.5,6.7c4.1,4.5,6.2,10.5,6.2,18.2V5564.9z M-8568.3,5555.1c0-7.4-3-11.1-9-11.1c-2.6,0-4.8,1.1-6.6,3.2
								s-3,4.8-3.4,7.9H-8568.3z"/>
							<path class="st1" d="M-8547.4,5584.8v-12.9c2.6,1.6,5.2,2.8,7.8,3.5c2.6,0.8,5.1,1.2,7.4,1.2c2.8,0,5.1-0.4,6.7-1.2
								c1.6-0.8,2.4-2,2.4-3.5c0-1-0.4-1.8-1.1-2.5c-0.7-0.7-1.7-1.3-2.9-1.8c-1.2-0.5-2.4-1-3.8-1.4c-1.4-0.4-2.7-0.9-4-1.4
								c-2.1-0.8-3.9-1.6-5.4-2.5c-1.6-0.9-2.9-1.9-3.9-3.1c-1.1-1.2-1.9-2.5-2.4-4.1c-0.6-1.5-0.8-3.4-0.8-5.5
								c0-2.9,0.6-5.4,1.9-7.5c1.3-2.1,2.9-3.8,5-5.1c2.1-1.3,4.5-2.3,7.2-2.9c2.7-0.6,5.5-0.9,8.5-0.9c2.3,0,4.6,0.2,7,0.5
								s4.7,0.9,7,1.5v12.3c-2-1.2-4.2-2.1-6.5-2.6c-2.3-0.6-4.6-0.9-6.8-0.9c-1,0-2,0.1-3,0.3c-0.9,0.2-1.7,0.5-2.4,0.8
								c-0.7,0.4-1.3,0.8-1.7,1.4s-0.6,1.2-0.6,1.9c0,0.9,0.3,1.7,0.9,2.4s1.4,1.3,2.4,1.7c1,0.5,2.1,0.9,3.3,1.3s2.4,0.8,3.6,1.2
								c2.1,0.7,4,1.5,5.8,2.4c1.7,0.9,3.2,1.9,4.4,3.1c1.2,1.2,2.2,2.6,2.8,4.1c0.7,1.6,1,3.5,1,5.7c0,3.1-0.7,5.7-2,7.8
								s-3.1,3.9-5.3,5.3s-4.7,2.4-7.6,3s-5.9,0.9-9,0.9C-8537.3,5587.5-8542.6,5586.6-8547.4,5584.8z"/>
						</g>
					</g>
					<g>
						<path id="Path_3896" class="st1" d="M-8499.1,4782.4c42.7-70.4,31.8-160.9-26.4-219.2c-3.9-3.9-7.8-7.2-11.2-10l-23.2-19.8
							l-88.1,88.1c-125.6-65.6-279.4-41.7-379.1,59l58.2,36.6c85.5-76.7,211.6-87.2,308.7-25.8l22.5,14.2l78.8-78.7
							c27.2,40.3,25.4,93.5-4.5,131.9l-13.1,16.7l9.4,18.9c22.4,44.5,31.4,94.5,25.7,144l60.3,42.9c15.1-66.4,8.8-135.9-18-198.6
							V4782.4z"/>
						<path id="Path_3897" class="st1" d="M-9040,4834.2c-1.9-11.2-10.7-20-21.9-21.9c-1.5-0.2-3-0.3-4.5-0.3h-26.7
							c-2.2-7.7-5.2-15.1-9.2-22l18.9-18.9l0,0c10.6-10.3,10.8-27.3,0.5-37.9c-9.2-9.5-24-10.8-34.7-3.1c-1.2,0.9-2.4,1.9-3.4,3l0,0
							l-18.9,18.9c-7-4-14.5-7.1-22.3-9.2v-26.7l0,0c0-14.8-12-26.8-26.8-26.8c-13,0-24.2,9.4-26.4,22.2c-0.2,1.5-0.3,3-0.3,4.5l0,0
							v26.7c-7.7,2.2-15.1,5.2-22.1,9.2l-18.9-18.9l0,0c-9.9-10.9-26.9-11.7-37.8-1.8c-10.4,9.4-11.7,25.3-3,36.4
							c0.9,1.2,1.9,2.4,3,3.4l0,0l18.8,18.9c-3.9,6.9-7,14.3-9.2,22h-26.8c-14.8-0.8-27.4,10.5-28.2,25.3
							c-0.8,14.1,9.6,26.4,23.7,28.1c1.5,0.2,3,0.3,4.5,0.3h26.7c2.2,7.7,5.3,15,9.2,22l-18.9,18.9l0,0
							c-10.4,10.5-10.3,27.5,0.2,37.9c9.2,9.1,23.6,10.3,34.2,2.9c1.2-0.9,2.4-1.9,3.5-3l0,0l18.9-18.9c7,3.9,14.4,7,22.1,9.2v26.7
							l0,0c0,14.8,12,26.8,26.8,26.8c13,0,24.2-9.4,26.4-22.2c0.2-1.5,0.4-3,0.3-4.5l0,0v-26.7c7.7-2.2,15.1-5.2,22.1-9.2l18.8,18.9
							l0,0c9.9,11,26.8,11.9,37.8,2c10.5-9.4,11.9-25.3,3.2-36.4c-0.9-1.2-1.9-2.4-3-3.4l0,0l-18.8-18.9c3.9-7,7-14.4,9.2-22.1h26.5
							c14.8,0,26.8-12,26.8-26.9C-9039.7,4837.2-9039.8,4835.7-9040,4834.2L-9040,4834.2z M-9189.1,4877.1
							c-21.1,0-38.3-17.1-38.3-38.3c0-21.2,17.1-38.3,38.3-38.3s38.3,17.1,38.3,38.3C-9150.8,4860-9167.9,4877.1-9189.1,4877.1
							L-9189.1,4877.1z"/>
						<path id="Path_3900" class="st1" d="M-9321.8,5293.5c-16.9,0-30.7-13.7-30.7-30.7l0,0V5223c0.4-23.1,5.4-45.8,14.6-66.9
							c19.1-45,72.5-120.4,215.9-120.4c45.6,0,73.1-14.1,107.9-31.9c43.6-22.3,93-47.6,183.5-47.6c81.1,0,229.5,15,312.9,115.7
							c11.4,12.6,10.4,32-2.2,43.3c-12.6,11.4-32,10.4-43.3-2.2c-0.6-0.7-1.2-1.4-1.7-2.1c-49.2-59.2-146-93.2-265.5-93.2
							c-75.7,0-114.4,19.9-155.5,40.9c-37.2,19-75.6,38.7-135.9,38.7c-102.5,0-143.3,45.2-159.4,83.1c-5.9,13.5-9.2,28-9.7,42.8
							v39.8c0,16.9-13.7,30.7-30.7,30.7C-9321.7,5293.5-9321.8,5293.5-9321.8,5293.5L-9321.8,5293.5z"/>
						<path id="Path_3901" class="st1" d="M-8957.5,5282.2c-15.7,0-28.9-11.8-30.5-27.4c-2-18.1-11.7-70.6-33.2-94.8
							c-11.3-12.7-10.1-32.1,2.6-43.4c12.7-11.3,32.1-10.1,43.4,2.6c10.4,12.2,18.8,25.9,25.1,40.6c60.2-61.9,173.2-78.3,200-78.3
							c16.9,0,30.7,13.8,30.6,30.7c0,11-5.9,21.1-15.4,26.6c-2.1,1.3-57.5,35.1-57.5,112.7c0,16.9-13.7,30.7-30.7,30.7
							c-16.9,0-30.7-13.7-30.7-30.7c-0.3-31.5,6.8-62.5,20.8-90.7c-46.1,15.9-93.9,44.1-93.9,90.7c0,16.3-12.8,29.8-29.1,30.7
							H-8957.5z"/>
						<path id="Path_3902" class="st1" d="M-8768,4869.5h-197.5c-16.9,0-30.7-13.7-30.7-30.7c0-16.9,13.7-30.7,30.7-30.7l0,0h197.5
							c16.9,0,30.7,13.7,30.7,30.7C-8737.3,4855.7-8751.1,4869.5-8768,4869.5L-8768,4869.5z"/>
						<path id="Path_3903" class="st1" d="M-8701.8,4930.3c-50.5,0-91.5-41-91.5-91.5s41-91.5,91.5-91.5s91.5,41,91.5,91.5l0,0
							C-8610.3,4889.3-8651.3,4930.3-8701.8,4930.3z M-8701.8,4808.6c-16.7,0-30.2,13.5-30.2,30.1c0,16.6,13.5,30.2,30.1,30.2
							c16.7,0,30.2-13.5,30.2-30.1l0,0C-8671.7,4822.1-8685.1,4808.7-8701.8,4808.6L-8701.8,4808.6z"/>
						<path id="Path_3903_1_" class="st1" d="M-9150.8,5334.3c-50.5,0-91.5-41-91.5-91.5s41-91.5,91.5-91.5s91.5,41,91.5,91.5l0,0
							C-9059.3,5293.3-9100.2,5334.3-9150.8,5334.3z M-9150.8,5212.6c-16.7,0-30.2,13.5-30.2,30.1c0,16.7,13.5,30.2,30.1,30.2
							c16.7,0,30.2-13.5,30.2-30.1l0,0C-9120.6,5226.1-9134.1,5212.7-9150.8,5212.6L-9150.8,5212.6z"/>
						<path id="Path_3903_2_" class="st1" d="M-8640.4,5334.3c-50.5,0-91.5-41-91.5-91.5s41-91.5,91.5-91.5s91.5,41,91.5,91.5l0,0
							C-8548.9,5293.3-8589.9,5334.3-8640.4,5334.3z M-8640.4,5212.6c-16.7,0-30.2,13.5-30.2,30.1c0,16.7,13.5,30.2,30.1,30.2
							c16.7,0,30.2-13.5,30.2-30.1l0,0C-8610.3,5226.1-8623.8,5212.7-8640.4,5212.6L-8640.4,5212.6z"/>
						<path id="Path_3904" class="st1" d="M-8481.1,5011.6c-6.4,0-12.6-1.9-17.8-5.6l-60.3-43.1c-14.4-8.9-18.8-27.9-9.9-42.3
							c8.9-14.4,27.9-18.8,42.3-9.9c1.1,0.7,2.1,1.4,3.1,2.2l60.3,42.9c13.9,9.7,17.2,28.9,7.5,42.7
							C-8461.6,5006.9-8471.1,5011.8-8481.1,5011.6L-8481.1,5011.6z"/>
					</g>
				</g>
			</g>
		</g>
	</g>
</g>
</svg>
