<?xml version="1.0" encoding="utf-8"?>
<!-- Generator: Adobe Illustrator 24.1.1, SVG Export Plug-In . SVG Version: 6.00 Build 0)  -->
<svg version="1.1" id="Layer_1" xmlns="http://www.w3.org/2000/svg" xmlns:xlink="http://www.w3.org/1999/xlink" x="0px" y="0px"
	 viewBox="0 0 1269.2 1031.3" style="enable-background:new 0 0 1269.2 1031.3;" xml:space="preserve">
<style type="text/css">
	.st0{fill:url(#SVGID_1_);}
	.st1{clip-path:url(#SVGID_3_);fill:#3BC453;}
	.st2{fill:url(#SVGID_4_);}
	.st3{clip-path:url(#SVGID_6_);fill:#3BC453;}
	.st4{fill:url(#SVGID_7_);}
</style>
<linearGradient id="SVGID_1_" gradientUnits="userSpaceOnUse" x1="477.9138" y1="1422.432" x2="477.9138" y2="-214.2563" gradientTransform="matrix(1.1953 0 0 -1.1953 63.359 1239.6512)">
	<stop  offset="0" style="stop-color:#3BC453"/>
	<stop  offset="1" style="stop-color:#3BC453"/>
</linearGradient>
<path class="st0" d="M634.6,329c39.4,0,71.3,31.9,71.3,71.3c0,24.3,19.7,44,44,44s44-19.7,44-44c-0.1-71-47.1-133.4-115.3-153v-27.9
	c0-24.3-19.7-44-44-44c-24.3,0-44,19.7-44,44v27.9c-84.5,24.3-133.4,112.5-109.1,197c19.6,68.3,82,115.3,153.1,115.3
	c39.4,0,71.3,31.9,71.3,71.3c0,39.4-31.9,71.3-71.3,71.3c-39.4,0-71.3-31.9-71.3-71.3c0,0,0,0,0,0c0-24.3-19.7-44-44-44
	c-24.3,0-44,19.7-44,44c0.1,71,47.1,133.4,115.3,153v27.9c0,24.3,19.7,44,44,44c24.3,0,44-19.7,44-44v-27.9
	c84.5-24.3,133.4-112.5,109.1-197c-19.6-68.3-82-115.3-153.1-115.3c-39.4-0.3-71.1-32.5-70.7-71.9
	C564.2,360.9,595.7,329.4,634.6,329L634.6,329z"/>
<g>
	<g>
		<defs>
			<path id="SVGID_2_" d="M1243.9,561.9l-131.3-190.4c-5.3-7.7-14-12.3-23.4-12.4c-9.4,0-18.1,4.6-23.4,12.3L934.6,561.9
				c-8.9,13-5.6,30.8,7.4,39.8c4.7,3.2,10.3,5,16,5h95.4c-18.2,96.7-70.4,182.7-148.9,246.7c-78.6,64.1-177.3,100.8-270.8,100.8
				c-126.2,0-260.2-68.1-341.4-173.3c-9.3-12.7-27.1-15.4-39.8-6.1c-12.7,9.3-15.4,27.1-6.1,39.8c0.3,0.3,0.5,0.7,0.8,1
				c93,120.6,241.1,195.5,386.5,195.5c106.3,0,218.1-41.3,306.7-113.5c91.9-74.9,152-177,170.8-290.8h109.3
				c15.8-0.1,28.5-12.9,28.4-28.8C1248.9,572.2,1247.2,566.6,1243.9,561.9z M1012.2,549.8l77-111.7l77.1,111.7H1012.2z"/>
		</defs>
		<clipPath id="SVGID_3_">
			<use xlink:href="#SVGID_2_"  style="overflow:visible;"/>
		</clipPath>
		<rect x="1012.2" y="438" class="st1" width="154.1" height="111.7"/>
		<rect x="237.2" y="359.2" class="st1" width="1011.9" height="651.9"/>
	</g>
	<linearGradient id="SVGID_4_" gradientUnits="userSpaceOnUse" x1="220.7089" y1="685.108" x2="1269.1942" y2="685.108">
		<stop  offset="0" style="stop-color:#3BC453"/>
		<stop  offset="1" style="stop-color:#3BC453"/>
	</linearGradient>
	<path class="st2" d="M1260.6,550.4l-131.3-190.3c-9.1-13.2-24-21.1-40.1-21.2c-16,0-31,7.9-40,21.1L917.9,550.4
		c-7.4,10.7-10.2,23.7-7.8,36.5c2.4,12.8,9.6,24,20.4,31.3c8.1,5.6,17.6,8.6,27.5,8.6h70.3c-20.8,82.2-67.7,154.7-136.6,210.8
		c-75,61.2-169,96.2-258,96.2c-120,0-247.7-64.9-325.3-165.3c-15.9-21.4-46.4-26-67.9-10.2c-10.5,7.7-17.3,19.1-19.3,31.9
		c-2,12.9,1.2,25.7,8.9,36.2l1.1,1.4c96.8,125.4,251,203.3,402.5,203.3c111,0,227.4-43,319.5-118.1
		c90.8-73.9,152.4-175.1,174.9-286.3h92.6c13-0.1,25.3-5.2,34.4-14.5c9.2-9.3,14.2-21.6,14.1-34.6
		C1269.2,568,1266.2,558.5,1260.6,550.4z M1226.3,584c-0.9,0.9-2.9,2.5-5.8,2.5H1094l-2.8,16.9c-17.8,108.1-75.9,207-163.6,278.5
		c-84.9,69.2-192.1,109-293.9,109c-139.2,0-281.2-71.9-370.4-187.6l-0.6-0.7c-1.7-2.4-1.6-4.8-1.4-6c0.2-1.3,0.9-3.6,3.2-5.4
		c3.6-2.7,8.8-1.9,11.5,1.8l0.3,0.4c84.9,110.1,225.2,181.2,357.4,181.2c98.1,0,201.4-38.4,283.5-105.3
		c83-67.7,137-157.1,156.1-258.7l4.5-23.9H958.1c-1.7,0-3.2-0.5-4.6-1.5c-2.5-1.7-3.3-4.1-3.5-5.4c-0.3-1.3-0.4-3.8,1.3-6.2
		L1082.5,383c1.5-2.2,4-3.6,6.7-3.6c2.7,0,5.2,1.3,6.8,3.6l131.3,190.3c1,1.4,1.4,3,1.5,4.7C1228.7,581,1227.2,583,1226.3,584z"/>
</g>
<g>
	<g>
		<defs>
			<path id="SVGID_5_" d="M1022.7,216.7c-0.3-0.3-0.5-0.7-0.7-1C928.9,95.1,780.9,20.2,635.5,20.2c-106.3,0-218.1,41.3-306.7,113.5
				c-92,74.9-152.1,177-170.8,290.8H48.7c-15.8,0.1-28.5,13-28.5,28.8c0.1,5.7,1.8,11.3,5,16l131.3,190.3
				c5.3,7.7,14.1,12.3,23.4,12.3c9.4,0,18.1-4.6,23.4-12.3l131.2-190.3c6-8.8,6.7-20.1,1.8-29.5c-4.9-9.4-14.6-15.3-25.2-15.4h-95.4
				c18.2-96.7,70.4-182.7,149-246.7c78.6-64.1,177.3-100.8,270.8-100.8c126.2,0,260.2,68.1,341.4,173.4c9.3,12.6,27.1,15.3,39.8,6
				C1029.3,247.1,1032,229.3,1022.7,216.7z M257,481.5l-77,111.7l-77.1-111.7H257z"/>
		</defs>
		<clipPath id="SVGID_6_">
			<use xlink:href="#SVGID_5_"  style="overflow:visible;"/>
		</clipPath>
		<rect x="102.9" y="481.5" class="st3" width="154.1" height="111.7"/>
		<path class="st3" d="M20.2,672.1H1032H20.2z"/>
		<rect x="20.2" y="20.2" class="st3" width="1011.9" height="651.9"/>
	</g>
	<linearGradient id="SVGID_7_" gradientUnits="userSpaceOnUse" x1="0" y1="346.1686" x2="1048.4781" y2="346.1686">
		<stop  offset="0" style="stop-color:#3BC453"/>
		<stop  offset="1" style="stop-color:#3BC453"/>
	</linearGradient>
	<path class="st4" d="M1039,204.7l-1-1.3C941.2,77.9,787,0,635.5,0c-111,0-227.4,43-319.4,118.1c-90.8,73.9-152.5,175-174.9,286.3
		H48.6C21.7,404.5-0.1,426.6,0,453.6c0.1,9.7,3.1,19.2,8.6,27.3l131.3,190.3c9.1,13.2,24.1,21.1,40.1,21.1c16,0,31.1-7.9,40.1-21.1
		l131.2-190.3c10.2-14.9,11.4-34.2,3-50.3c-8.4-16.1-24.9-26.2-43.2-26.3h-70.3c20.8-82.2,67.7-154.7,136.6-210.8
		c75.1-61.1,169.1-96.2,258-96.2c120,0,247.7,64.9,325.3,165.3c15.9,21.4,46.4,26,67.9,10.1C1050.3,256.8,1054.9,226.3,1039,204.7z
		 M1004.7,240.2c-3.6,2.7-8.8,1.9-11.5-1.7l-0.3-0.4C908,128,767.7,56.8,635.5,56.8c-98,0-201.4,38.4-283.6,105.3
		c-83,67.7-137,157.2-156.1,258.7l-4.5,24h119.7c3.1,0,6,1.7,7.4,4.5c1.5,2.8,1.3,6.1-0.5,8.7L186.7,648.3c-1.5,2.2-4,3.5-6.7,3.5
		c-2.7,0-5.2-1.3-6.7-3.6L42,458c-1-1.4-1.5-3.1-1.5-4.7c0-4.6,3.8-8.4,8.2-8.5h126.4l2.8-16.9c17.8-108.1,75.9-207,163.6-278.5
		c85-69.2,192.1-109,293.9-109c139.2,0,281.2,71.9,370.2,187.3c0.2,0.3,0.5,0.7,0.8,1.1C1009.1,232.5,1008.2,237.5,1004.7,240.2z"/>
</g>
</svg>
