<svg xmlns="http://www.w3.org/2000/svg" xmlns:xlink="http://www.w3.org/1999/xlink" width="27.387" height="27.387" viewBox="0 0 27.387 27.387">
  <defs>
    <clipPath id="clip-path">
      <rect id="Rectangle_1165" data-name="Rectangle 1165" width="27.387" height="27.387" transform="translate(0 0)" fill="none"/>
    </clipPath>
  </defs>
  <g id="Artwork_17" data-name="Artwork 17" transform="translate(13.693 13.693)" opacity="0.88">
    <g id="Artwork_17-2" data-name="Artwork 17" transform="translate(-13.693 -13.693)" clip-path="url(#clip-path)">
      <path id="Path_2121" data-name="Path 2121" d="M25.208,11.515H23.248a9.741,9.741,0,0,0-1.26-3.034L23.372,7.1a2.179,2.179,0,0,0-3.081-3.081L18.906,5.4a9.741,9.741,0,0,0-3.034-1.26V2.178a2.178,2.178,0,1,0-4.357,0V4.139A9.741,9.741,0,0,0,8.481,5.4L7.1,4.015A2.179,2.179,0,0,0,4.015,7.1L5.4,8.481a9.741,9.741,0,0,0-1.26,3.034H2.178a2.178,2.178,0,1,0,0,4.357H4.139A9.741,9.741,0,0,0,5.4,18.906L4.015,20.291A2.179,2.179,0,0,0,7.1,23.372l1.385-1.385a9.741,9.741,0,0,0,3.034,1.26v1.961a2.178,2.178,0,1,0,4.357,0V23.248a9.741,9.741,0,0,0,3.034-1.26l1.385,1.385a2.179,2.179,0,1,0,3.081-3.081l-1.385-1.385a9.741,9.741,0,0,0,1.26-3.034h1.961a2.178,2.178,0,1,0,0-4.357M13.693,19.451a5.757,5.757,0,1,1,5.757-5.757,5.757,5.757,0,0,1-5.757,5.757" transform="translate(0.123 -0.36)" fill="#e4e7ec"/>
    </g>
  </g>
</svg>
