<?xml version="1.0" encoding="utf-8"?>
<!-- Generator: Adobe Illustrator 24.1.3, SVG Export Plug-In . SVG Version: 6.00 Build 0)  -->
<svg version="1.1" xmlns="http://www.w3.org/2000/svg" xmlns:xlink="http://www.w3.org/1999/xlink" x="0px" y="0px"
	 viewBox="0 0 705.26 391.46" style="enable-background:new 0 0 705.26 391.46;" xml:space="preserve">
<style type="text/css">
	.st0{fill:#8AD3DB;}
	.st1{fill:#6395CE;}
	.st2{fill:#E17C37;}
	.st3{fill:#D77062;}
	.st4{fill:#F8EBE5;}
	.st5{fill:#212443;}
	.st6{fill:#FFFFFF;}
	.st7{fill:#4F7CA6;}
	.st8{fill:#EAC2B0;}
	.st9{fill:#CC5B1C;}
	.st10{fill:#1F2241;}
	.st11{fill:#E8A628;}
	.st12{fill:#6297D4;}
	.st13{fill:#D88F25;}
	.st14{fill:#E7A729;}
	.st15{fill:#DD6A3E;}
	.st16{fill:#F9EFE6;}
	.st17{fill:#F4D9C6;}
	.st18{fill:#C34622;}
	.st19{fill:none;stroke:#D88F25;stroke-width:1.4959;stroke-miterlimit:10;}
	.st20{fill:#E28A21;}
</style>
<g id="BACKGROUND">
</g>
<g id="OBJECTS">
	<g>
		<path class="st0" d="M197.39,163.58c-9.03-6.02-20.9-7.21-33.46-0.28c-13.85,7.65-24.03,15.46-40.7,12.43
			c-26.19-4.76-47.39-19.61-75.09-18.19c-14.59,0.75-29.68,5.87-39.01,17.21c-7.38,8.96-10.45,21.27-8.6,32.77
			c1.85,11.5,8.46,22.06,17.7,29.05c7.07,5.35,15.84,8.7,24.67,8.3c8.03-0.37,15.58-3.72,23.08-6.66
			c18.06-7.08,38.31-11.96,56.63-5.58c11.18,3.89,20.54,11.84,32.42,13.54c11.73,1.68,24.04-0.67,34.23-6.79
			c13.22-7.93,23.26-22.42,24.64-37.95C215.3,185.62,208.48,170.97,197.39,163.58z"/>
	</g>
	<g>
		<g>
			<path class="st0" d="M164.7,260.94c-7.49,3.25-16.41,7.56-19.81,15.55c-3.42,8.05,0.93,16.38,7.36,21.4
				c4.36,3.4,9.51,5.57,14.52,7.82c6.26,2.82,12.53,5.63,18.79,8.44c5.15,2.31,10.9,4.38,14.83,8.6c3.52,3.78,5.12,8.93,6.81,13.69
				c2.24,6.31,4.85,13.69,11.71,16.25c7.65,2.87,16.22-2.07,18.6-9.63c2.71-8.61-1.85-16.66-8.55-21.84
				c-8.52-6.58-18.44-10.18-24.57-19.59c-6.73-10.33-4.58-24.05-13.66-32.98c-6.79-6.68-16.59-9.47-25.82-7.12
				c-1.28,0.33-0.74,2.31,0.55,1.99c8.94-2.27,18.54,0.74,24.75,7.56c6.65,7.3,5.66,17.48,9.44,26.09
				c3.07,6.97,8.11,12.7,14.39,16.95c6.72,4.55,15.49,7.93,19.78,15.24c2.74,4.66,3.36,10.72,0.68,15.57
				c-2.99,5.41-10.17,8.21-15.86,5.41c-6.79-3.34-8.48-12.13-10.93-18.57c-2.27-5.96-5.26-11.01-10.81-14.42
				c-8.45-5.19-18.34-8.6-27.37-12.65c-9.67-4.34-24.36-9.97-23.8-22.92c0.44-10.16,11.98-15.58,20.01-19.06
				C166.95,262.19,165.9,260.41,164.7,260.94L164.7,260.94z"/>
		</g>
	</g>
	<g>
		<path class="st0" d="M420.32,80.69c-2.28-6.31-7.03-11.85-13.56-13.46c-12.09-0.98-18.39,2.09-24.64,8.11
			c-6.25,6.03-9.83,14.23-13.32,22.18c-3.48,7.95-7.18,16.12-13.58,21.99c-10.92,10.02-27.76,11.59-38.39,21.92
			c-10.63,10.33-12.23,27.96-5.47,41.15c6.76,13.19,20.6,21.89,35.17,24.63c4.73,0.89,9.61,1.22,14.38,0.57
			c14.04-1.9,26-12.25,32.43-24.88c6.43-12.63,7.94-27.25,7.18-41.4c-0.37-6.9-1.19-14.14,1.65-20.43
			c5.63-12.48,20.03-16.77,19.66-32.49C421.77,85.96,421.26,83.26,420.32,80.69z"/>
	</g>
	<g>
		<g>
			<path class="st0" d="M161.13,118.2c-3.84-10.99,7.46-17.87,17.05-17.71c7.64,0.13,15.24,3.1,22.63-0.17
				c14.17-6.27,15.04-24.33,26.17-33.5c7.51-6.19,19.23-5.79,21.31,5.38c1.65,8.82-4.81,16.32-11.03,21.63
				c-6.2,5.29-12.64,9.84-17.79,16.26c-4.86,6.05-8.99,12.75-14.72,18.05c-7.37,6.81-18.15,11.06-28.15,8.32
				c-9.16-2.5-16.15-10.97-15.79-20.58c0.05-1.41-2.14-1.41-2.2,0c-0.67,17.65,18.17,26.94,33.48,22.16
				c9.07-2.83,15.75-9.15,21.46-16.52c3.21-4.14,6.15-8.49,9.61-12.43c3.69-4.22,8.06-7.59,12.42-11.07
				c6.63-5.28,13.83-11.78,15.01-20.69c0.86-6.51-2.06-13.97-8.59-16.34c-7.24-2.63-15.05,1.95-19.67,7.35
				c-6.7,7.83-8.98,18.62-16.5,25.86c-10.65,10.25-23.39,1.26-35.71,5.19c-8.24,2.63-14.13,10.74-11.11,19.4
				C159.47,120.11,161.59,119.54,161.13,118.2L161.13,118.2z"/>
		</g>
	</g>
	<g>
		<path class="st0" d="M557.77,138.96c-5.96-10-20.39-16.14-31.76-13.43c-17.12,4.08-17.67,23.08-19.76,37.42
			c-1.61,11.01-5.21,22.36-13.49,29.78c-4.78,4.28-10.75,6.93-16.54,9.68c-14.71,6.96-29.18,15.11-40.44,26.87
			s-19.05,27.62-18.11,43.87c0.24,4.09,1.02,8.17,2.67,11.93c3.59,8.2,10.99,14.19,18.94,18.3c11.17,5.78,23.93,8.46,36.48,7.65
			c11.69-0.75,23.54-4.74,31.78-13.06c11.81-11.92,14.16-30.03,15.6-46.75c1.44-16.72,3.12-34.74,14.14-47.4
			c3.41-3.92,7.57-7.12,11.02-10.99c10.33-11.61,15.45-29.14,12.83-44.49C560.49,144.69,559.34,141.6,557.77,138.96z"/>
	</g>
	<g>
		<g>
			<path class="st0" d="M527.17,35.09c-21.9-2.15-43.71,13.44-43.15,36.72c0.23,9.6,4.94,18.58,12.6,24.34
				c9.65,7.25,20.29,6.1,31.53,4.24c14.38-2.39,28.66,0,40.11,9.57c6.47,5.41,13.86,18.37,24.24,13.9c4.03-1.74,6.65-6.23,8.7-9.88
				c2.64-4.68,4.05-9.69,2.26-14.94c-3.56-10.47-14.68-15.01-23.75-19.48c-6.82-3.36-12.89-7.26-16.3-14.33
				c-2.82-5.87-4.96-11.53-9.41-16.45c-7.73-8.56-18.7-13.53-30.18-13.92c-1.41-0.05-1.41,2.15,0,2.2
				c10.44,0.36,20.36,4.71,27.64,12.22c3.4,3.51,5.91,7.51,7.87,11.96c1.88,4.26,3.5,8.5,6.79,11.92
				c6.38,6.65,15.56,9.09,23.27,13.7c4.29,2.56,8.52,5.98,10.91,10.45c3.48,6.5,0.99,12.73-2.77,18.43
				c-1.63,2.47-3.26,4.95-6.12,6.08c-3.97,1.57-8.07-0.31-11.13-2.86c-4.22-3.52-7.34-8.13-11.71-11.55
				c-6.8-5.32-15-8.77-23.56-9.91c-10.63-1.42-20.48,2.52-31.01,2.41c-10.56-0.12-20.09-6.59-24.82-15.94
				c-5.76-11.39-2.8-25.79,5.56-35.1c8.15-9.06,20.52-12.75,32.41-11.59C528.57,37.42,528.56,35.22,527.17,35.09L527.17,35.09z"/>
		</g>
	</g>
	<g>
		<g>
			<path class="st0" d="M666.39,191.68c-12.42-7.2-27.35-6.26-39.83,0.3c-13.05,6.86-20.33,18.3-25.87,31.52
				c-6.18,14.74-12.01,32.41-29.6,36.21c-13.6,2.93-25.85,8.45-34.23,20.14c-7.28,10.15-7.48,23.84,2.81,32.16
				c9.32,7.53,23.03,5.86,33.46,1.83c5.35-2.07,10.47-4.88,14.84-8.62c5.96-5.09,9.56-12.15,14.1-18.4
				c10.98-15.11,28.3-18.7,44.9-24.68c14.74-5.31,29.89-14.52,35.38-30.04C687.82,216.57,679.8,200.09,666.39,191.68
				c-1.2-0.75-2.31,1.15-1.11,1.9c13.48,8.46,20.78,25.31,13.94,40.4c-6.17,13.6-20.06,21.5-33.55,26.29
				c-12.31,4.37-25.62,7.28-36.13,15.47c-10.87,8.47-15.07,22.63-26.49,30.48c-9.57,6.58-23.34,11.18-34.88,7.74
				c-6.67-1.99-12.13-7.22-13.94-14.04c-1.79-6.74,0.57-13.46,4.52-18.95c3.91-5.44,9.29-9.86,15.07-13.18
				c6.2-3.56,12.54-4.63,19.38-6.3c12.05-2.94,19.03-13.26,23.93-23.94c6.01-13.1,9.91-27.4,21.14-37.23
				c12.81-11.21,31.75-15.58,47.01-6.73C666.51,194.29,667.62,192.39,666.39,191.68z"/>
		</g>
	</g>
	<g>
		<path class="st0" d="M645.05,272.25c-5.94-1.89-12.92,2.3-12.41,12.35c0.26,5.09,2.35,10.49,6.81,12.97
			c9.69,5.39,14.44-6.48,13.45-14.38C652.13,277.07,648.8,273.45,645.05,272.25z"/>
	</g>
	<g>
		<g>
			<path class="st0" d="M18.41,94.71c-6.63,3.35-12.34,10.55-9.28,18.32c2.63,6.68,11.23,9.61,17.82,7.97
				c6.95-1.72,10.48-8.35,8.45-15.2c-2.16-7.3-9.75-11.95-17.17-11.1c-1.39,0.16-1.41,2.36,0,2.2c5.55-0.63,10.99,1.93,13.84,6.81
				c3.49,5.99,1.26,13.4-5.72,15.17c-5.15,1.31-11.99-0.76-14.69-5.57c-3.87-6.9,1.95-13.73,7.83-16.7
				C20.78,95.97,19.67,94.07,18.41,94.71L18.41,94.71z"/>
		</g>
	</g>
	<g>
		<g>
			<path class="st1" d="M127.69,307.91c0.56-1.82,1.28-3.59,1.69-5.46c0.97-4.45,1.05-8.8-1.05-12.98c0.56-0.26,1.11-0.52,1.67-0.77
				c2.45-1.07,4.86-0.52,6.75,1.38c1.91,1.93,2.69,4.22,2.43,6.89c-0.2,2.04-0.37,4.08-0.61,6.12c-0.52,4.28-0.6,8.57-0.43,12.87
				c0.04,1.09-0.1,2.18-0.17,3.27c-0.04,0.55-0.19,1.07-0.45,1.56c-0.87,1.6-2.25,1.96-3.72,0.89c-1.92-1.4-2.9-3.4-3.42-5.66
				c-0.49-2.13-0.94-4.27-1.71-6.33C128.42,309.04,128.14,308.43,127.69,307.91z"/>
			<g>
				<path class="st1" d="M176.51,107.24c-1.45-1.43-3.31-2.45-5.51-3.19c-4.23-1.42-8.97-1.36-13.11,0.35
					c-6.53,2.69-11.03,8.85-17.29,12.13c-6.12,3.21-13.61,3.51-19.21,7.55c-3.32,2.4-5.84,6.02-9.67,7.48
					c-2.57,0.98-5.43,0.83-8.15,0.38c-7.48-1.25-15.06-5.33-17.91-12.35c-1.95-4.79-1.52-10.46-4.28-14.84
					c-1.73-2.76-4.62-4.8-5.75-7.86c-1.6-4.33,0.82-8.98,1.7-13.52c1.02-5.23-0.15-10.88-3.33-15.16s-8.35-7.05-13.68-7.11
					c0,0-3.84-0.41-9.73,2.83c-7.3,5.04-9.77,15.07-8.22,23.81c1.55,8.74,6.36,16.5,11.2,23.94c4.84,7.44,9.88,15,11.97,23.62
					c0.34,1.38,0.58,2.88,0.05,4.2c-0.6,1.48-2.05,2.41-3.31,3.38c-11.18,8.63-11.63,25.44-19.93,36.86
					c-2.69,3.7-6.17,6.78-8.87,10.47c-3.29,4.5-5.15,10.28-2.62,15.58c2.08,4.35,6.76,7.45,11.61,7.39c0.19,0,0.39-0.01,0.58-0.02
					c1.99-0.13,3.94-0.73,5.93-0.76c2-0.03,3.96,0.5,5.88,1.03c7.83,2.16,15.68,4.32,23.23,7.33c7.89,3.14,15.44,7.19,23.64,9.42
					c8.19,2.22,17.41,2.42,24.71-1.91c6.29-3.73,10.46-10.54,11.75-17.74c1.29-7.2-0.12-14.73-3.16-21.38
					c-2.2-4.83-5.25-9.28-6.86-14.34c-1.61-5.05-1.51-11.13,2.08-15.04c2.05-2.24,4.94-3.46,7.58-4.96c3.9-2.2,7.4-5.11,10.3-8.53
					c1.56-1.85,2.96-3.86,4.78-5.47c3.38-2.98,7.87-4.28,11.83-6.42c4.68-2.53,8.67-6.29,11.5-10.8c2.76-4.41,4.95-9.79,1.77-14.58
					C177.57,108.38,177.07,107.78,176.51,107.24z"/>
				<path class="st2" d="M127.69,307.91c-0.34,0.51-0.69,1.01-1,1.53c-3.62,5.98-10.13,8.58-16.9,6.77
					c-1.39-0.37-2.82-0.77-3.99-1.53c-2.29-1.49-4.51-1.13-6.81-0.2c-2.23,0.58-4.46,1.18-6.7,1.72c-0.75,0.18-0.99,0.63-0.98,1.31
					c0.07,3.37-1.08,6.39-2.75,9.25c-0.06,0.04-0.13,0.06-0.17,0.12c-4.81,7.21-14.82,6.16-20.21,1.12
					c-1.65-1.54-3.16-3.22-4.75-4.82c-1.16-1.16-2.31-2.34-3.52-3.44c-2.85-2.57-5.87-4.85-9.41-6.49
					c-6.33-2.94-12.5-6.18-18.29-10.1c-4.29-2.9-7.94-6.46-10.92-10.71c-4.33-6.18-5.17-12.95-3.37-20.15
					c1.15-4.57,3.2-8.72,5.84-12.58c2.39-3.5,4.73-7.04,7.32-10.39c5.27-6.79,9.53-14.18,13.29-21.87
					c2.31-4.73,4.71-9.41,7.38-13.95c0.24-0.41,0.42-0.85,0.63-1.28c1.74-2.39,3-5.03,4.18-7.73c1.15-2.62,2.21-5.3,4.14-7.5
					c0.59,0.47,1.18,0.93,1.76,1.4c4.42,3.62,9.27,6.55,14.75,8.2c7.71,2.32,15.5,4.35,23.56,5.06c0.87,0.08,1.8-0.02,2.51,0.67
					c0,0.27-0.05,0.55,0,0.81c1.06,5.86,2.18,11.72,2.68,17.66c0.32,8.18-1.84,15.84-4.9,23.3c-1.17,2.84-2.6,5.57-3.83,8.39
					c-1.39,3.18-1.88,6.44-1.34,9.82c0.76,4.84,0.95,9.66,0.08,14.5c-0.21,1.19-0.09,1.19,1.18,1.15c5.44-0.2,10.73-1.15,15.87-2.97
					c1.56-0.55,3.19-0.73,4.84-0.83c4.1-0.25,7.31,1.33,9.79,4.55c0.21,0.27,0.45,0.5,0.68,0.75c2.1,4.19,2.02,8.54,1.05,12.98
					C128.97,304.32,128.25,306.09,127.69,307.91z M60.64,266.04c-1.42,1.37-2.43,2.37-3.47,3.34c-1,0.93-2.05,1.8-3.02,2.76
					c-1.65,1.63-1.63,3.53-0.03,5.12c1.45,1.44,2.89,2.9,4.35,4.33c1.35,1.33,1.61,1.28,2.32-0.45c0.13-0.3,0.23-0.66,0.2-0.98
					C60.59,275.64,60.3,271.1,60.64,266.04z"/>
				<path class="st3" d="M113.8,122.89c-0.16-0.68-0.61-1.26-1.28-1.41c-0.14-0.03-0.29-0.04-0.43,0c-0.21,0.07-0.35,0.26-0.47,0.45
					c-0.47,0.72-0.81,1.56-1.48,2.09c-0.67,0.53-1.85,0.56-2.24-0.2c-0.09-0.17-0.16-0.4-0.35-0.44c-0.15-0.03-0.28,0.08-0.39,0.18
					c-2.5,2.25-5.28,4.19-8.25,5.77c-0.11,0.06-0.23,0.13-0.23,0.26c0,0.11,0.09,0.19,0.15,0.27c0.37,0.45,0.18,1.13-0.05,1.66
					c-0.67,1.57-1.69,3.25-3.37,3.59c-0.26,0.05-0.54,0.07-0.76,0.23c-0.22,0.16-0.33,0.43-0.41,0.68
					c-0.92,2.85,0.13,6.13,2.25,8.18c1.15,1.11,2.76,1.81,4.35,1.6c1.01-0.13,1.95-0.62,2.76-1.25c2.06-1.62,5.05-4.71,3.19-6.43
					c-3.06-2.84-1.03-9.63,2.63-11.47c0.44-0.22,0.94-0.28,1.42-0.38c1.16-0.25,2.33-0.85,2.84-1.93
					C113.88,123.9,113.92,123.37,113.8,122.89z"/>
				<path class="st1" d="M88.55,326.77c1.67-2.86,2.81-5.87,2.75-9.25c-0.01-0.69,0.23-1.13,0.98-1.31c2.24-0.54,4.47-1.15,6.7-1.72
					c2.06,1.59,2.56,3.84,2.44,6.22c-0.11,2.31-0.46,4.61-0.81,6.91c-0.37,2.48-0.27,5.03-0.3,7.55c-0.02,1.63,0.12,3.27,0.15,4.91
					c0.02,1.11-0.16,2.18-0.85,3.11c-0.85,1.15-2.02,1.38-3.21,0.57c-1.81-1.23-2.79-3.08-3.18-5.1c-0.77-4.02-1.97-7.8-4.49-11.09
					C88.59,327.36,88.61,327.04,88.55,326.77z"/>
				<path class="st4" d="M115.15,160.28c0.87-1.58,0.92-3.04-0.05-4.62c-1.51-2.48-2.27-5.22-2.5-8.14
					c-0.17-2.07,0.07-4.09,0.15-6.13c0.08-2.03-0.67-2.87-2.7-3.09c-1.08-0.11-2.18-0.12-3.27-0.17c-0.08,2.87-1.39,5.11-3.65,6.77
					c-1.75,1.29-3.88,1.21-5.58,0.11c-3.4-2.2-4.55-6.94-2.96-9.72c-2.35-1.01-3.63-0.7-5.23,1.56c-2.98,4.21-6.55,7.86-10.46,11.2
					c-0.02,0.01-0.03,0.03-0.05,0.04c-0.2,0.15-0.39,0.31-0.57,0.48c-0.22,0.18-0.43,0.36-0.64,0.54c0.01,0.03,0.02,0.07,0.02,0.1
					c-0.79,0.92-1.31,1.99-1.38,3.08c-0.45,7.08,1.15,14.77-2.46,20.88c-1.74,2.95-4.5,5.12-7.1,7.35c-2.6,2.23-5.18,4.7-6.35,7.92
					c-0.94,2.58-0.68,5.76,0.96,7.86c0.03,0.45,0.09,0.91,0.18,1.37c0.32,0.25,0.64,0.51,0.96,0.77c4.42,3.62,9.27,6.55,14.75,8.2
					c7.71,2.32,15.5,4.35,23.56,5.06c0.87,0.08,1.8-0.02,2.51,0.67c1.49-0.74,2.45-1.95,3.04-3.45c1.3-3.28,1.99-6.68,1.7-10.22
					c-0.45-5.53-0.48-11.04,0.1-16.56c0.4-3.81,0.97-7.55,2.23-11.21C111.63,167.2,113.27,163.69,115.15,160.28z M67.24,188.38
					c-0.43,0.32-0.89,0.65-1.37,0.99c0.98-0.91,2.06-1.71,3.16-2.49C68.47,187.4,67.87,187.9,67.24,188.38z"/>
				<path class="st3" d="M110.77,121.24c-1.43,6.51-5.88,11.09-9.91,10.17c-5.77-1.31-6.17-6.89-4.74-13.39
					c1.43-6.51,5.87-11.06,9.91-10.17C110.07,108.73,112.2,114.73,110.77,121.24z"/>
				<path class="st5" d="M100.93,110.87c-1.49-0.48-2.99-0.95-4.48-1.46c-7.24-2.44-12.16-7.09-13.36-14.85
					c-0.87-5.6,0.56-10.62,5.14-14.36c2.5-2.04,5.38-2.95,8.62-2.29c6.58,1.35,8.29,6.76,7.62,11.27c-0.32,2.16-1.06,4.24-1.89,6.27
					c-0.21,0.51-0.43,0.97-0.33,1.56c0.71,4.29,2.29,8.01,6.38,10.19c1.08,0.58,2.12,1.25,3,2.13c1.04,1.04,1.53,2.29,1.19,3.73
					c-0.23,0.97-0.15,1.85,0.07,2.81c0.47,1.96-0.33,3.76-0.98,5.56c-0.52,0.87-0.96,1.81-1.75,2.48c-0.95,0.82-1.63,0.74-2.39-0.28
					c-0.76-1.03-1.04-2.2-0.88-3.47c0.24-1.87,1-3.5,2.17-4.97c1.03-1.3,0.99-1.42-0.52-2.16
					C106.13,111.88,103.51,111.44,100.93,110.87z"/>
				<path class="st3" d="M114.57,124.28c-1.21,2.4-3.27,3.81-4.59,3.14c-1.33-0.67-1.42-3.16-0.21-5.56
					c1.21-2.4,3.27-3.81,4.59-3.14C115.68,119.39,115.78,121.88,114.57,124.28z"/>
				<path class="st3" d="M98.1,118.76c0.32,2.39-0.5,4.47-1.84,4.65c-1.34,0.18-2.68-1.61-3-4c-0.32-2.39,0.5-4.47,1.84-4.65
					C96.43,114.58,97.78,116.37,98.1,118.76z"/>
			</g>
			<path class="st6" d="M103.67,123.8c-0.62,1.34-2.11,2.04-3.5,1.58c-1.39-0.46-2.16-1.91-1.87-3.36L103.67,123.8z"/>
			<path class="st3" d="M183.1,102.5c-0.67-0.89-4.34,2.3-4.34,2.3s4.53-4.46,4.14-5.22c-0.61-1.2-5.67,3.95-5.67,3.95
				s5.37-5.75,4.17-6.61c-1.2-0.86-5.87,5.43-5.87,5.43s4.03-6.19,2.88-6.74c-1.15-0.56-6.04,7.62-6.04,7.62s-0.72-4.77-1.7-4.68
				c-1.65,0.14-0.55,10.33-0.55,10.33l4.33,3.57C174.45,112.46,183.77,103.39,183.1,102.5z"/>
			<path class="st3" d="M46.22,56.01c0.82-0.75,3.85,3.06,3.85,3.06s-3.63-5.21-3.11-5.89c0.82-1.07,4.85,4.92,4.85,4.92
				s-4.22-6.63-2.89-7.26c1.33-0.63,4.77,6.41,4.77,6.41s-2.82-6.82-1.59-7.16c1.23-0.34,4.53,8.6,4.53,8.6s1.58-4.55,2.53-4.29
				c1.6,0.44-1.36,10.26-1.36,10.26l-4.92,2.72C52.89,67.38,45.4,56.76,46.22,56.01z"/>
			<g>
				<path class="st7" d="M168.23,109.68c2.13,2.23,4.29,3.84,7.42,4.21c1.59,0.19,1.58-2.31,0-2.49c-2.42-0.28-4.05-1.79-5.66-3.48
					C168.89,106.75,167.13,108.51,168.23,109.68L168.23,109.68z"/>
			</g>
			<g>
				<path class="st7" d="M60.35,64.06c-3.93-0.2-7.46,1.58-9.81,4.68c-0.97,1.28,1.19,2.52,2.15,1.26c1.83-2.41,4.67-3.6,7.66-3.45
					C61.96,66.63,61.95,64.14,60.35,64.06L60.35,64.06z"/>
			</g>
			<g>
				<path class="st7" d="M91.96,131.08c-4.37,8.65-11.49,15.46-20.32,19.44c-7.3,3.29-16.77,6.37-17.91,15.6
					c-0.1,0.79,1.15,0.79,1.25,0c1.28-10.39,14.19-12.36,21.61-16.74c7.06-4.17,12.75-10.36,16.44-17.67
					C93.4,130.99,92.33,130.36,91.96,131.08L91.96,131.08z"/>
			</g>
			<g>
				<path class="st7" d="M53.68,169.99c-0.6,2.12-1.44,4.12-2.54,6.03c-0.4,0.7,0.67,1.32,1.08,0.63c1.15-2,2.04-4.11,2.67-6.33
					C55.1,169.55,53.9,169.22,53.68,169.99L53.68,169.99z"/>
			</g>
			<g>
				<path class="st7" d="M112.44,135.74c1.17,3.71-0.22,7.32-0.19,11.08c0.02,2.79,0.85,5.47,1.92,8.02
					c2.26,5.44,5.84,10.71,5.11,16.86c-0.09,0.79,1.15,0.79,1.25,0c0.69-5.82-2.35-10.9-4.64-16.01c-1.38-3.09-2.52-6.31-2.37-9.74
					c0.16-3.59,1.24-6.99,0.12-10.53C113.4,134.65,112.2,134.98,112.44,135.74L112.44,135.74z"/>
			</g>
			<g>
				<path class="st7" d="M120.55,178.84c-0.14,1.62,0.07,3.2,0.62,4.73c0.27,0.75,1.47,0.43,1.2-0.33c-0.51-1.43-0.7-2.88-0.57-4.4
					C121.87,178.04,120.62,178.04,120.55,178.84L120.55,178.84z"/>
			</g>
			<g>
				<path class="st7" d="M109.71,227.63c6.31-0.11,13.37-3.7,15.63-9.85c2.57-6.97-0.33-14.18-3.04-20.62
					c-0.31-0.74-1.38-0.1-1.08,0.63c2.41,5.71,5,11.98,3.36,18.26c-1.68,6.4-8.51,10.22-14.87,10.33
					C108.91,226.39,108.91,227.64,109.71,227.63L109.71,227.63z"/>
			</g>
			<g>
				<path class="st7" d="M48.8,184.52c-4.73,3.38-8.54,8.72-9.14,14.64c-0.26,2.51,0.39,5.3,2.63,6.76c2.77,1.8,6.31-0.41,8.96,1.46
					c0.66,0.46,1.28-0.62,0.63-1.08c-1.5-1.06-3.06-0.97-4.83-0.86c-1.72,0.11-3.54,0.19-4.84-1.2c-1.36-1.44-1.51-3.57-1.25-5.42
					c0.76-5.34,4.14-10.13,8.46-13.22C50.08,185.14,49.46,184.05,48.8,184.52L48.8,184.52z"/>
			</g>
			<g>
				<path class="st7" d="M66.23,140.39c9.72-6.58,16.44-16.83,18.5-28.39c0.14-0.78-1.06-1.12-1.2-0.33
					c-2.01,11.24-8.46,21.25-17.93,27.65C64.94,139.76,65.56,140.84,66.23,140.39L66.23,140.39z"/>
			</g>
			<g>
				<path class="st7" d="M122.22,122.71c-1.28,7.32-0.83,14.59,1.18,21.73c1.49,5.31,3.27,11.33,8.41,14.2
					c0.7,0.39,1.33-0.68,0.63-1.08c-5.07-2.83-6.7-9.15-8.09-14.38c-1.76-6.62-2.11-13.39-0.93-20.14
					C123.55,122.25,122.35,121.92,122.22,122.71L122.22,122.71z"/>
			</g>
			<g>
				<path class="st8" d="M90.27,138c-0.63,4.85,1.89,9.59,6.55,11.37c5.24,2.01,8.88-0.88,11.32-5.29c0.39-0.7-0.69-1.33-1.08-0.63
					c-0.91,1.65-1.87,3.47-3.54,4.48c-2.07,1.26-4.79,1.01-6.91,0c-3.84-1.82-5.63-5.84-5.1-9.93
					C91.62,137.21,90.37,137.21,90.27,138L90.27,138z"/>
			</g>
			<g>
				<path class="st8" d="M61.71,197.03c-1.37-4.1,4.16-6.32,6.8-8.25c2.22-1.62,4.32-3.41,6.27-5.34
					c4.07-4.03,7.45-8.69,10.12-13.76c0.37-0.71-0.7-1.34-1.08-0.63c-3.25,6.18-7.58,11.71-12.9,16.24
					c-2.46,2.1-5.22,3.67-7.77,5.62c-2.09,1.59-3.54,3.79-2.65,6.45C60.76,198.12,61.97,197.79,61.71,197.03L61.71,197.03z"/>
			</g>
			<g>
				<path class="st8" d="M86.1,161.62c0.02,1.22-0.31,2.33-0.99,3.34c-0.45,0.67,0.63,1.29,1.08,0.63c0.8-1.18,1.19-2.55,1.16-3.97
					C87.33,160.82,86.08,160.82,86.1,161.62L86.1,161.62z"/>
			</g>
			<g>
				<path class="st4" d="M96.08,209.18c6.25,13.64,2.56,28.99-4.81,41.39c-1.3,2.18-3.75,4.61-3.86,7.26
					c-0.12,2.93,1.36,6.2,1.81,9.1c1.11,7.19,0.37,15.03-5.11,20.35c-0.35,0.34-0.16,0.91,0.28,1.04c3.28,1.01,5.25,4.06,4.94,7.46
					c-0.04,0.49,0.56,0.76,0.94,0.54c6.43-3.72,14.4-3.43,20.57,0.7c0.24,0.16,0.55,0.08,0.76-0.1c4.86-4.18,11.9-4.78,17.42-1.56
					c0.69,0.41,1.32-0.67,0.63-1.08c-3.04-1.78-6.52-2.54-10.03-2.15c-1.55,0.17-3.07,0.55-4.51,1.15
					c-1.41,0.58-3.21,2.44-4.58,2.05c-1.67-0.48-3.19-1.64-4.92-2.13c-1.73-0.48-3.53-0.74-5.32-0.76
					c-3.76-0.05-7.39,0.93-10.64,2.81c0.31,0.18,0.63,0.36,0.94,0.54c0.37-3.96-2.08-7.5-5.85-8.66c0.09,0.35,0.18,0.69,0.27,1.04
					c4.64-4.51,6.24-10.97,5.9-17.29c-0.21-3.77-1.14-7.36-1.9-11.03c-0.52-2.52,0.44-4.04,1.74-6.05c1.03-1.59,2.01-3.21,2.92-4.88
					c6.75-12.34,9.55-27.18,3.51-40.37C96.82,207.82,95.75,208.46,96.08,209.18L96.08,209.18z"/>
			</g>
			<g>
				<path class="st9" d="M61.15,265.39c-3.17-3.67-6.36-7.61-5.8-12.77c0.09-0.8-1.16-0.79-1.25,0c-0.59,5.47,2.8,9.75,6.17,13.66
					C60.8,266.88,61.68,265.99,61.15,265.39L61.15,265.39z"/>
			</g>
			<g>
				<path class="st9" d="M60.58,265.59c-1.34,11.41-2.13,23.13,5.06,32.88c0.47,0.64,1.55,0.02,1.08-0.63
					c-7.06-9.57-6.2-21.06-4.89-32.25C61.92,264.8,60.67,264.8,60.58,265.59L60.58,265.59z"/>
			</g>
			<g>
				<path class="st9" d="M72.98,306.29c1.76,2.04,3.58,4.13,5.94,5.5c2.5,1.45,5.44,2.17,8.2,2.97c2.52,0.73,5.21,1.7,7.88,1.25
					c2.74-0.46,7.41-3.27,9.93-1.3c0.62,0.49,1.51-0.39,0.88-0.88c-1.7-1.33-3.59-0.96-5.59-0.54c-3.49,0.74-6.17,2.01-9.81,1.09
					c-2.94-0.74-5.96-1.57-8.79-2.69c-3.26-1.3-5.52-3.68-7.76-6.28C73.34,304.8,72.46,305.69,72.98,306.29L72.98,306.29z"/>
			</g>
			<g>
				<path class="st9" d="M55.46,259.4c-3.86,4.95-8.27,9.38-13.21,13.26c-0.22,0.17-0.21,0.53-0.1,0.76
					c2.77,5.34,3.42,11.32,1.9,17.13c-0.2,0.78,1,1.11,1.2,0.33c0.75-2.87,1.06-5.79,0.78-8.75c-0.27-2.82-1.4-5.18-2.07-7.86
					c-0.28-1.11-0.42-0.84,0.5-1.79c0.49-0.5,1.1-0.91,1.63-1.37c1.18-1.02,2.34-2.08,3.45-3.18c2.44-2.39,4.69-4.95,6.79-7.65
					C56.83,259.66,55.95,258.77,55.46,259.4L55.46,259.4z"/>
			</g>
			<g>
				<path class="st9" d="M45.3,292.3c18.98,2.76,23.08,33.32,44.29,30.09c0.79-0.12,0.45-1.32-0.33-1.2
					c-11.11,1.69-18.6-8.38-24.55-16.08c-4.9-6.33-10.72-12.79-19.07-14.01C44.85,290.98,44.51,292.18,45.3,292.3L45.3,292.3z"/>
			</g>
			<g>
				<path class="st9" d="M71.75,204.42c-2.74-5.58-8.64-11.88-15.3-12.16c-3.04-0.13-5.38,1.54-7.69,3.31
					c-1.38,1.06-2.83,2.24-4.58,2.6c-2.65,0.54-5.28-0.83-7.57-1.97c-1.43-0.72-2.69,1.43-1.26,2.15c2.92,1.46,6.14,2.98,9.49,2.23
					c2.78-0.62,4.77-2.71,7.04-4.26c6.96-4.74,14.79,3.42,17.71,9.36C70.3,207.12,72.45,205.85,71.75,204.42L71.75,204.42z"/>
			</g>
			<g>
				<path class="st9" d="M82.33,206.42c-2.16-2.29-5.5-2.24-7.62,0.08c-2.96,3.25-3.64,7.92-5.84,11.61
					c-1.16,1.95-2.9,3.93-5.18,4.53c-2.43,0.64-4.76-0.77-7.13-1.09c-3.35-0.46-6.46,1.27-8.03,4.22c-0.75,1.42,1.4,2.68,2.15,1.26
					c0.91-1.72,2.38-2.88,4.35-3.04c2.07-0.17,4.02,0.94,6.04,1.23c2.58,0.37,4.96-0.5,6.92-2.17c2.26-1.92,3.61-4.54,4.72-7.23
					c0.98-2.37,3.96-11.74,7.84-7.62C81.67,209.36,83.43,207.59,82.33,206.42L82.33,206.42z"/>
			</g>
		</g>
		<g>
			<path class="st4" d="M91.25,207.92c5.63,12.71,3.48,27.51-4.87,38.46c-1.88,2.47-3.53,4.93-3.6,8.14
				c-0.08,3.82,0.92,7.71,1.12,11.53c0.4,7.68-0.82,15.73-6.29,21.52c-0.65,0.69-0.36,1.81,0.55,2.08c4.45,1.34,7.3,5.55,7.03,10.16
				c-0.09,1.6,2.4,1.6,2.49,0c0.33-5.73-3.39-10.92-8.86-12.57c0.18,0.69,0.37,1.39,0.55,2.08c5.1-5.4,7.02-12.69,7.1-19.98
				c0.05-4.41-0.73-8.69-1.11-13.06c-0.4-4.57,2.14-7.06,4.56-10.54c7.91-11.35,9.04-26.54,3.48-39.1
				C92.76,205.2,90.61,206.46,91.25,207.92L91.25,207.92z"/>
		</g>
		<g>
			<path class="st4" d="M87.88,301.21c8.33-3.15,17.87-1.68,24.75,4.04c1.23,1.02,3-0.74,1.76-1.76
				c-7.53-6.27-17.97-8.16-27.17-4.68C85.73,299.37,86.37,301.78,87.88,301.21L87.88,301.21z"/>
		</g>
		<g>
			<path class="st4" d="M115.33,304.49c0.74-2.21,3.45-2.74,5.49-3.08c3.08-0.5,6.21-0.63,9.25,0.15c1.56,0.4,2.22-2.01,0.66-2.4
				c-3.82-0.98-7.97-0.79-11.81,0.08c-2.66,0.6-5.08,1.87-5.99,4.59C112.41,305.35,114.82,306.01,115.33,304.49L115.33,304.49z"/>
		</g>
		<g>
			<path class="st4" d="M133.89,289.66c1.68,2.15,1.65,4.86,1.58,7.45c-0.07,2.81-0.18,5.61-0.28,8.41
				c-0.09,2.64-0.17,5.28-0.26,7.92c-0.08,2.36,0.52,6.33-1.39,8.06c-0.6,0.54,0.29,1.42,0.88,0.88c1.59-1.44,1.57-3.47,1.64-5.48
				c0.14-3.79,0.25-7.59,0.37-11.38c0.11-3.43,0.37-6.9,0.3-10.33c-0.05-2.37-0.49-4.52-1.97-6.42
				C134.28,288.15,133.4,289.03,133.89,289.66L133.89,289.66z"/>
		</g>
		<g>
			<path class="st4" d="M97.38,315.41c2.16,4.63,0.85,9.57,0.38,14.41c-0.45,4.6,1.17,9.98-1.79,13.96
				c-0.48,0.64,0.6,1.27,1.08,0.63c3.14-4.22,1.48-9.74,1.96-14.59c0.5-5.12,1.73-10.16-0.55-15.04
				C98.12,314.05,97.05,314.69,97.38,315.41L97.38,315.41z"/>
		</g>
	</g>
	<g>
		<g>
			<g>
				<path class="st3" d="M312.49,98.92c-0.83-8.14-2.31-16.14-5.25-23.81c-1.99-0.05-3.97-0.16-5.95-0.28
					c0.23,1.5,0.31,3.02,0.38,4.55c0.13,2.73,0.25,5.47,0.53,8.18c0.66,6.32,1.4,12.63,2.13,18.95c0.12,1.06-0.08,2.01-0.55,2.96
					c-2.32,4.72-4.27,9.62-6.93,14.18c-0.48,0.82-0.76,1.75-1.14,2.63c0.03,0.2,0.01,0.43,0.11,0.59c2.03,3.49,4.12,6.95,5.8,10.63
					c0.05,0.11,0.2,0.18,0.3,0.27c1.76-1.51,2.82-3.49,3.82-5.52c1.68-3.44,3.09-7.01,4.45-10.59c1.48-3.91,2.62-7.91,2.94-12.11
					C313.39,105.97,312.84,102.45,312.49,98.92z"/>
				<g>
					<path class="st10" d="M342.35,258.34c-0.67-5.93-3.67-12.06-10.19-12.95c-3.6-0.49-7.27,0.67-10.39,2.54
						c-7.18,4.29-18.82,17.98-25.88,5.9c-2.41-4.11-3.6-9.15-4.6-13.77c-2.25-10.38-4.29-20.81-6.83-31.12
						c-0.35-0.99-0.7-1.98-1.03-2.98c-8.4,1.57-16.9,2.12-25.42,2.47c-8,0.33-15.82-0.84-23.44-3.3c-1.36-0.44-2.75-0.81-4.12-1.22
						c-11.66,14.35-19.6,30.61-28.07,46.91c-7.69,14.79-19.41,26.89-28.57,40.71c-8.11,12.24-18.18,30.87-7.55,44.6
						c1.49,1.67,2.87,3.45,4.6,4.9c1.78,1.49,3.72,2.72,5.87,3.61c1.01,0.15,2.02,0.37,3.04,0.45c10.18,0.7,18.07-3.71,24.21-11.39
						c3.93-4.92,6.91-10.48,9.45-16.28c4.69-10.72,8.57-21.76,12.82-32.65c2.88-7.39,6.59-14.25,11.52-20.47
						c1.7-2.14,3.68-3.84,6.07-5.11c6.28-3.35,11.37,1.04,13.65,6.8c4.72,11.92,8.5,24.5,17.77,33.86c5.24,5.3,12.25,9.15,19.7,9.35
						c15.65,0.41,31.92-13.84,41.23-25.21C340.15,279.09,343.4,267.55,342.35,258.34z"/>
					<path class="st11" d="M291.94,125.16c-0.21,0.17-0.43,0.37-0.66,0.6c-0.96,0.96-1.91,1.95-2.97,2.81
						c-2.35,1.89-4.47,4-6.42,6.27c-0.57,0.66-1.18,0.8-1.96,0.81c-2.45,0.06-4.9,0.09-7.35,0.3c-1.35,0.11-3.55-1.18-4.34,0.28
						c-0.09,0.17,0.34,1.34,0.09,1.43c-0.23,3.28-2.62,5.48-5.9,5.45c-3.05-0.03-5.12-2.31-5.23-5.79c-0.44-0.9-1.19-0.98-2.07-0.85
						c-3.8,0.53-7.64,0.16-11.44,0.39c-2.41,0.15-4.84-2.32-6.54-3.75c-3.5-2.96-6.78-3.74-10.47-6.43c-0.37-0.27-0.7-0.7-1.39-0.44
						c-0.59,2.29-1.19,4.66-1.8,7.03c-0.82,4.21-1.64,8.42-2.46,12.64c-0.55,1.86,0.35,3.13,1.75,4.18c0.6,0.45,1.21,0.89,1.83,1.32
						c3.25,2.23,6.84,3.72,10.6,4.78c1.15,0.32,1.5,0.85,1.44,2.01c-0.16,3.21-0.36,6.42-0.81,9.6c-0.79,5.62-1.68,11.22-3.72,16.56
						c-1.85,4.85-3.37,9.82-5.69,14.48c-0.88,1.77-0.49,2.73,1.27,3.69c0.9,0.49,1.82,0.92,2.74,1.37c1.38,0.4,2.76,0.78,4.12,1.22
						c7.62,2.46,15.44,3.63,23.44,3.3c9.16-0.38,18.3-0.99,27.31-2.84c4.69-2.27,5.11-3.24,3.83-8.35
						c-1.48-5.91-2.59-11.88-2.78-17.99c-0.2-6.63,0.36-13.25,0.38-19.88c0-1.72,0.66-2.57,2.11-3.27c1.9-0.91,3.78-1.89,5.49-3.17
						c3.55-2.68,5.74-6.35,7.74-10.19c0.65-1.25,0.92-2.44,0.55-3.62C299.36,134.26,295.72,129.64,291.94,125.16z"/>
					<path class="st3" d="M221.26,130.9c-1.86-2.46-3.84-4.81-5.98-7.03c-1.81-1.87-3.4-3.94-5.07-5.92
						c-0.68-0.81-1.15-1.68-1.19-2.76c-0.19-4.86-1.19-9.62-1.61-14.46c-0.47-5.37-1.32-10.72-2.05-16.06
						c-0.23-1.71,0.05-7.15,0.63-8.79c-1.82,0.69-4.21,4.67-6.01,4.29c0.02,0.55,0,1.12-0.11,1.7c-1.08,5.92-2.21,11.83-2.82,17.83
						c-0.66,6.48-0.35,12.84,2.32,18.91c1.37,3.13,2.8,6.24,4.23,9.34c0.31,0.68,0.73,1.32,1.15,1.94
						c4.37,6.42,10.05,11.51,16.3,16.02c0.82-4.21,1.64-8.42,2.46-12.64C222.51,132.71,221.91,131.77,221.26,130.9z"/>
					<path class="st3" d="M268.32,137.67c-0.23,3.28-2.62,5.48-5.9,5.45c-3.05-0.03-5.12-2.31-5.23-5.79
						c1.99-1.05,3.05-3.22,2.68-5.41c-0.09-0.54-0.41-0.83-0.82-1.08c-1.06-0.66-1.92-1.53-2.58-2.58c-0.76-1.21-1.09-2.66-3-2.87
						c-1.04-0.12-1.39-1.42-1.36-2.49c0.04-1.38,0.47-2.55,2.01-2.93c0.99,0.65,1.7,0.41,2.01-0.72c0.26-0.94,0.77-1.34,1.76-1.31
						c0.6,0.02,1.2-0.29,1.81-0.31c2.8-0.12,4.6-1.49,5.46-4.15c0.03-0.09,0.22-0.13,0.39-0.22c1.17,0.52,1.58,1.59,1.82,2.74
						c0.31,1.47,0.5,2.96,0.82,4.43c0.41,1.87,0.97,2.15,2.9,1.61c1.54,0.85,1.68,2.22,1.26,3.7c-0.4,1.38-1.38,2.19-2.86,2.13
						c-0.79-0.03-1.28,0.25-1.64,0.92c-0.19,0.36-0.48,0.66-0.71,1c-0.48,0.7-1.56,1.01-1.42,2.1c0.2,1.55,0.35,3.12,1.4,4.4
						C267.51,136.76,267.92,137.21,268.32,137.67z"/>
					<path class="st12" d="M166.24,336.13c1.49,1.67,2.87,3.45,4.6,4.9c1.78,1.49,3.72,2.72,5.87,3.61
						c-0.53,0.11-0.79,0.42-0.85,0.99c-0.1,1.02-0.19,2.05-0.4,3.04c-0.88,4.13-3.54,5.81-7.53,3.93c-2.22-1.05-3.76-2.94-5.53-4.53
						c-1.9-1.72-3.9-3.2-6.22-4.28c-1.98-0.93-3.93-1.92-5.71-3.22c-0.78-0.57-1.52-1.18-2-2.03c-1.23-2.16-0.03-4.6,2.44-4.91
						c0.95-0.12,1.9-0.04,2.85,0.16c3.27,0.71,6.55,1.36,9.83,2.07C164.47,336.07,165.35,336.1,166.24,336.13z"/>
					<path class="st12" d="M341.79,258.4c-0.3-1.46-0.54-2.94-0.93-4.38c-1.47-5.53-4.64-8.75-10.66-8.77
						c-0.27,0-0.53-0.08-0.8-0.12c1.88-2.44,4.36-3.65,7.43-3.45c1.93,0.13,3.73,0.76,5.36,1.85c1.48,0.98,2.89,2.06,4.3,3.13
						c2.51,1.91,5.45,3.1,8.18,4.66c1.07,0.61,2.18,1.16,3.08,2.01c2.22,2.11,2.21,4.36-0.14,6.3c-1.59,1.31-3.46,1.82-5.55,1.46
						C348.56,260.49,345.08,259.83,341.79,258.4z"/>
					<path class="st3" d="M270.25,121.44c-0.25,0-0.48,0.06-0.71,0.16c-0.1-5.92-3.42-10.67-7.52-10.67c-3.67,0-6.73,3.83-7.39,8.89
						c-0.12-0.03-0.25-0.05-0.38-0.05c-1.36,0-2.46,1.56-2.46,3.49s1.1,3.49,2.46,3.49c0.34,0,0.66-0.1,0.95-0.27
						c0.98,4.35,3.8,6.33,6.82,6.33c2.67,0,5.02-2.03,6.35-5.09c0.47,0.7,1.14,1.13,1.87,1.13c1.44,0,2.61-1.66,2.61-3.71
						C272.86,123.1,271.69,121.44,270.25,121.44z"/>
				</g>
				<path class="st11" d="M271.04,121.66c-0.87-0.24-1.88,0.23-2.27,1.04c-0.55-2.09-0.97-4.21-1.24-6.35
					c-0.73,1.3-2.29,1.96-3.78,2c-1.49,0.04-2.94-0.43-4.36-0.89c0.18,1.03-0.03,2.15-0.66,2.99c-0.63,0.84-1.71,1.35-2.75,1.19
					c-0.99-0.15-1.84-0.9-2.23-1.83c-0.39-0.93-0.34-2,0.02-2.94c-1.48-0.11-2.8-1.14-3.46-2.46c-0.66-1.33-0.7-2.91-0.31-4.33
					c0.14-0.51,0.34-1.01,0.69-1.4c0.67-0.73,1.75-0.89,2.74-0.98c-1.45-1.04-2.19-2.91-1.78-4.65c0.41-1.74,1.94-3.15,3.7-3.43
					c0.66-0.1,1.36-0.06,1.97,0.22c0.61,0.28,1.12,0.81,1.3,1.45c-0.31-1.12-0.58-2.44-0.54-3.6c0.04-1.16,0.39-2.35,1.18-3.22
					c0.69-0.76,1.68-1.22,2.69-1.42c2.53-0.48,5.31,0.77,6.62,2.99c1.4,2.36,1.11,5.33,0.64,8.03c-0.28,1.65-0.62,3.29-1.01,4.92
					c0.36-0.78,1.47-0.87,2.18-0.37c0.71,0.49,1.05,1.35,1.29,2.18C272.74,114.46,272.41,118.13,271.04,121.66z"/>
			</g>
			<path class="st3" d="M314.22,68.54c-0.67-0.89-4.34,2.3-4.34,2.3s4.53-4.46,4.14-5.22c-0.61-1.2-5.67,3.95-5.67,3.95
				s5.37-5.75,4.17-6.61c-1.2-0.86-5.87,5.43-5.87,5.43s4.03-6.19,2.88-6.74c-1.15-0.56-6.04,7.62-6.04,7.62s-0.72-4.77-1.7-4.68
				c-1.65,0.14-0.55,10.33-0.55,10.33l4.33,3.57C305.57,78.49,314.89,69.42,314.22,68.54z"/>
			<path class="st3" d="M192.93,72.63c0.76-0.82,4.09,2.73,4.09,2.73s-4.05-4.89-3.59-5.61c0.73-1.13,5.24,4.5,5.24,4.5
				s-4.76-6.26-3.48-7c1.28-0.74,5.29,6,5.29,6s-3.38-6.56-2.18-7c1.2-0.44,5.23,8.2,5.23,8.2s1.2-4.67,2.16-4.49
				c1.63,0.31-0.5,10.33-0.5,10.33l-4.67,3.12C200.52,83.41,192.18,73.44,192.93,72.63z"/>
			<g>
				<g>
					<path class="st13" d="M223.16,124.38c-1.35,7.92-3.29,15.66-5.84,23.28c-1.02,3.05,3.79,4.36,4.81,1.33
						c2.55-7.62,4.5-15.36,5.84-23.28C228.5,122.57,223.7,121.22,223.16,124.38L223.16,124.38z"/>
				</g>
			</g>
			<g>
				<g>
					<path class="st13" d="M290.5,124.18c3.73,5.96,7.47,11.92,11.2,17.87c1.31-1.01,2.61-2.01,3.92-3.02
						c-0.16-0.16-0.32-0.31-0.48-0.47c-2.3-2.24-5.83,1.28-3.53,3.53c0.16,0.16,0.32,0.31,0.48,0.47c1.99,1.94,5.45-0.57,3.92-3.02
						c-3.73-5.96-7.47-11.92-11.2-17.87C293.11,118.95,288.79,121.45,290.5,124.18L290.5,124.18z"/>
				</g>
			</g>
			<path class="st6" d="M263.89,126.38c-0.25,1.45-1.49,2.53-2.95,2.46c-1.46-0.07-2.59-1.27-2.69-2.74L263.89,126.38z"/>
			<g>
				<g>
					<path class="st13" d="M260.07,173.29c-4.11,4.8-8.79,8.97-14.05,12.47c-1.33,0.88-0.08,3.04,1.26,2.15
						c5.44-3.61,10.31-7.9,14.56-12.86C262.87,173.84,261.12,172.07,260.07,173.29L260.07,173.29z"/>
				</g>
			</g>
			<g>
				<g>
					<path class="st13" d="M270.99,161.69c-1.47,2.02-3.1,3.91-4.87,5.67c-1.14,1.13,0.63,2.9,1.76,1.76
						c1.92-1.92,3.67-3.98,5.26-6.18C274.09,161.64,271.92,160.4,270.99,161.69L270.99,161.69z"/>
				</g>
			</g>
			<g>
				<g>
					<path class="st1" d="M242.62,207.48c-6.39,13-5.83,29.42-4.88,43.52c0.05,0.8,1.3,0.8,1.25,0
						c-0.93-13.84-1.55-30.15,4.71-42.89C244.05,207.4,242.98,206.76,242.62,207.48L242.62,207.48z"/>
				</g>
			</g>
			<g>
				<g>
					<path class="st1" d="M249.58,208.68c-3.3,14.85-3.16,30.24-0.67,45.21c0.13,0.79,1.33,0.45,1.2-0.33
						c-2.45-14.73-2.58-29.92,0.67-44.55C250.95,208.23,249.75,207.9,249.58,208.68L249.58,208.68z"/>
				</g>
			</g>
			<g>
				<g>
					<path class="st1" d="M234.56,252.25c7.75-0.83,14.78,0.2,19.41,7.02c2.93,4.32,4.56,9.42,5.8,14.45
						c0.19,0.78,1.4,0.45,1.2-0.33c-1.46-5.91-3.48-12.13-7.49-16.84c-4.86-5.72-11.81-6.31-18.92-5.55
						C233.77,251.09,233.76,252.33,234.56,252.25L234.56,252.25z"/>
				</g>
			</g>
			<g>
				<g>
					<path class="st1" d="M266.03,209.39c3.96,8.81,11.35,23.94,23.58,20.31c0.77-0.23,0.44-1.43-0.33-1.2
						c-11.56,3.44-18.42-11.4-22.17-19.73C266.78,208.03,265.71,208.67,266.03,209.39L266.03,209.39z"/>
				</g>
			</g>
			<g>
				<g>
					<path class="st1" d="M236.61,206.36c-2.32,4.44-4.68,9-8.25,12.59c-1.83,1.84-3.9,3.35-6.29,4.36c-1.92,0.81-4,0.9-5.79,1.96
						c-0.69,0.41-0.06,1.49,0.63,1.08c2.03-1.2,4.69-1.31,6.83-2.4c2.04-1.04,3.89-2.49,5.5-4.11c3.65-3.66,6.07-8.3,8.44-12.84
						C238.05,206.28,236.98,205.65,236.61,206.36L236.61,206.36z"/>
				</g>
			</g>
			<g>
				<g>
					<path class="st1" d="M241.96,252.61c-14.29,11.6-22.53,28.08-30.03,44.51c-4.18,9.15-8.4,18.48-14.76,26.36
						c-6.53,8.08-17.38,17.34-28.54,14.82c-0.78-0.18-1.11,1.02-0.33,1.2c18.68,4.23,33.27-18.12,40.16-32.05
						c9.57-19.34,17.09-39.93,34.38-53.96C243.46,252.99,242.57,252.11,241.96,252.61L241.96,252.61z"/>
				</g>
			</g>
			<g>
				<g>
					<path class="st1" d="M283.03,229.65c1.05,5.38,2.09,10.77,3.14,16.15c0.63,3.26,0.62,9.61,2.71,12.23
						c1.99,2.51,6.3,3.71,8.77,5.89c4.16,3.69,6.97,8.39,7.27,14c0.04,0.8,1.29,0.8,1.25,0c-0.4-7.3-4.72-13.11-10.6-17.19
						c-2.09-1.45-5.01-2.36-6.16-4.82c-1.09-2.34-1.17-6.05-1.66-8.55c-1.17-6.02-2.34-12.04-3.5-18.05
						C284.08,228.53,282.88,228.86,283.03,229.65L283.03,229.65z"/>
				</g>
			</g>
			<g>
				<g>
					<path class="st1" d="M305.06,271.14c5.21-5.85,11.08-10.98,17.73-15.15c6.67-4.19,17.31-10.89,24.39-4.15
						c0.58,0.55,1.46-0.33,0.88-0.88c-5.96-5.66-13.91-2.57-20.26,0.73c-8.98,4.67-16.9,11.02-23.62,18.58
						C303.64,270.85,304.52,271.74,305.06,271.14L305.06,271.14z"/>
				</g>
			</g>
			<g>
				<g>
					<path class="st4" d="M147.99,336.92c5.63,2.27,11,5.11,15.9,8.7c3.43,2.51,6.36,5.98,10.87,5.91c0.8-0.01,0.8-1.26,0-1.25
						c-4.87,0.07-10.55-6.16-14.59-8.66c-3.77-2.33-7.74-4.25-11.85-5.91C147.58,335.42,147.25,336.63,147.99,336.92L147.99,336.92z
						"/>
				</g>
			</g>
			<g>
				<g>
					<path class="st4" d="M157.19,332.12c0.7,2,1.17,4.04,1.38,6.14c0.08,0.79,1.33,0.8,1.25,0c-0.22-2.22-0.68-4.37-1.42-6.48
						C158.13,331.03,156.92,331.36,157.19,332.12L157.19,332.12z"/>
				</g>
			</g>
			<g>
				<g>
					<path class="st4" d="M159.85,332.12c0.49,2.59,1.3,5.07,2.4,7.46c0.34,0.73,1.41,0.09,1.08-0.63
						c-1.06-2.29-1.81-4.68-2.28-7.16C160.9,331,159.7,331.33,159.85,332.12L159.85,332.12z"/>
				</g>
			</g>
			<g>
				<g>
					<path class="st4" d="M332.97,242.56c4.89,0.53,8.49,5.63,12.82,7.79c4.31,2.15,8.86,3.43,12.52,6.74
						c0.59,0.54,1.48-0.34,0.88-0.88c-4.1-3.71-9.33-4.95-14.06-7.6c-4.27-2.39-7.05-6.75-12.16-7.3
						C332.17,241.22,332.18,242.47,332.97,242.56L332.97,242.56z"/>
				</g>
			</g>
			<g>
				<g>
					<path class="st4" d="M226.75,130.44c5,2.84,9.66,6.14,13.99,9.93c0.6,0.53,1.49-0.35,0.88-0.88
						c-4.4-3.86-9.14-7.24-14.24-10.13C226.68,128.97,226.05,130.05,226.75,130.44L226.75,130.44z"/>
				</g>
			</g>
			<g>
				<g>
					<path class="st4" d="M241.06,140.66c5.91-0.32,11.8-0.24,17.7,0.26c0.8,0.07,0.79-1.18,0-1.25c-5.9-0.5-11.79-0.59-17.7-0.26
						C240.26,139.46,240.26,140.71,241.06,140.66L241.06,140.66z"/>
				</g>
			</g>
			<g>
				<g>
					<path class="st4" d="M227.34,127.77c4.94,2.45,9.44,5.55,13.48,9.29c0.59,0.54,1.47-0.33,0.88-0.88
						c-4.12-3.82-8.7-6.99-13.73-9.49C227.25,126.34,226.62,127.41,227.34,127.77L227.34,127.77z"/>
				</g>
			</g>
			<g>
				<g>
					<path class="st4" d="M241.56,137.2c5.07,0,10.14,0,15.21,0c0.8,0,0.8-1.25,0-1.25c-5.07,0-10.14,0-15.21,0
						C240.76,135.95,240.76,137.2,241.56,137.2L241.56,137.2z"/>
				</g>
			</g>
			<g>
				<g>
					<path class="st4" d="M268.23,136.86c4.34-0.18,8.68-0.23,13.02-0.14c-0.1-0.39-0.21-0.77-0.31-1.16
						c-0.1,0.08-0.2,0.15-0.3,0.23c-0.63,0.48-0.01,1.57,0.63,1.08c0.1-0.08,0.2-0.15,0.3-0.23c0.46-0.36,0.36-1.15-0.31-1.16
						c-4.34-0.08-8.68-0.04-13.02,0.14C267.44,135.65,267.43,136.89,268.23,136.86L268.23,136.86z"/>
				</g>
			</g>
			<g>
				<g>
					<path class="st4" d="M281.55,136.43c3.08-4.11,6.83-7.58,11.15-10.35c0.67-0.43,0.05-1.51-0.63-1.08
						c-4.51,2.89-8.39,6.51-11.6,10.8C279.99,136.44,281.07,137.06,281.55,136.43L281.55,136.43z"/>
				</g>
			</g>
			<g>
				<g>
					<path class="st4" d="M267.74,139.96c5.07-0.31,10.14-0.63,15.21-0.94c0.8-0.05,0.8-1.3,0-1.25
						c-5.07,0.31-10.14,0.63-15.21,0.94C266.94,138.76,266.94,140.01,267.74,139.96L267.74,139.96z"/>
				</g>
			</g>
			<g>
				<g>
					<path class="st4" d="M282.7,139.06c3.37-4.12,7.4-7.52,12.05-10.13c0.7-0.39,0.07-1.47-0.63-1.08
						c-4.73,2.66-8.86,6.12-12.3,10.33C281.32,138.79,282.2,139.68,282.7,139.06L282.7,139.06z"/>
				</g>
			</g>
			<g>
				<g>
					<path class="st4" d="M255.86,136.27c0.44,1.95,0.16,3.97,1.78,5.44c1.36,1.22,3.38,1.47,5.13,1.48
						c5.04,0.05,6.61-3.77,6.7-8.23c0.03-1.6-2.46-1.6-2.49,0c-0.03,1.36,0,2.89-0.69,4.11c-0.87,1.56-2.61,1.7-4.2,1.59
						c-1.26-0.09-2.49-0.28-3.15-1.42c-0.57-0.98-0.43-2.52-0.68-3.64C257.92,134.05,255.51,134.71,255.86,136.27L255.86,136.27z"/>
				</g>
			</g>
		</g>
		<g>
			<g>
				<path class="st4" d="M347.31,254.5c0,2.22,0,4.43,0,6.65c0,0.8,1.25,0.8,1.25,0c0-2.22,0-4.43,0-6.65
					C348.56,253.7,347.31,253.69,347.31,254.5L347.31,254.5z"/>
			</g>
		</g>
		<g>
			<g>
				<path class="st4" d="M351.86,258.29c-0.28,1.15-0.5,2.32-0.66,3.49c-0.11,0.78,1.09,1.12,1.2,0.33
					c0.16-1.17,0.38-2.34,0.66-3.49C353.25,257.84,352.05,257.51,351.86,258.29L351.86,258.29z"/>
			</g>
		</g>
	</g>
	<g>
		<path class="st10" d="M426.89,115.73c-2.74-1.34-5.17-3.05-7.03-5.51c-2.66-3.51-4.1-7.42-3.76-11.85
			c0.31-4.1,3.09-6.97,7.15-7.53c2.29-0.32,4.5,0.02,6.62,0.96c1.25,0.56,2.51,1.09,3.73,1.71c1.75,0.88,3.3,0.51,4.8-0.57
			c2.17-1.57,3.7-3.62,4.62-6.14c0.96-2.63,1.89-5.28,2.9-7.9c1.25-3.26,3.16-6.06,5.96-8.19c4.58-3.5,10.22-3.67,14.46-0.45
			c1.86,1.41,3.15,3.21,3.76,5.48c0.23,0.86,0.44,1.73,0.74,2.56c1.14,3.15,3.78,4.52,7.03,3.66c2.03-0.54,3.72-1.71,5.33-2.99
			c1.34-1.06,2.53-2.3,3.69-3.56c2.27-2.49,4.77-4.69,7.74-6.36c9.02-5.05,19.52-3.43,26.73,6.04c5.8,7.61,2.52,17.74-2.41,22.24
			c-1.95,1.78-4.1,3.2-6.53,4.18c-4.76,1.92-9.52,3.82-14.28,5.73c-0.76,0.31-1.5,0.66-2.24,1.01c-3.8,1.84-5.68,4.98-6.08,9.1
			c-0.24,2.45-0.42,4.91-0.72,7.35c-0.59,4.95-2.98,8.9-6.84,11.97c-3.66,2.91-7.91,3.1-11.8,0.46c-1.92-1.31-3.71-2.8-5.55-4.23
			c-1.3-1.01-2.63-1.97-4.1-2.71c-1.95-0.99-2.8-0.83-4.36,0.76c-0.72,0.73-1.39,1.52-2.15,2.2c-3.13,2.79-6.72,2.7-9.73-0.17
			c-1.65-1.58-2.84-3.5-4.12-5.36c0.95-1.23,1.85-2.33,3.62-2.6c1.48-0.23,2.42-1.45,2.63-3.04c0.13-0.95-0.09-1.77-0.95-2.3
			c-0.75-0.46-1.42-0.23-2.06,0.29c-0.19,0.16-0.41,0.4-0.89,0.07c-0.86-1.4-0.5-2.97,0-4.54c0.12-0.39,0.29-0.85-0.04-1.15
			c-0.4-0.37-0.76,0.02-1.06,0.26c-2.76,2.2-7.78,0.9-9.65-1.48c-0.29-0.36-0.53-0.81-1.18-0.96c-0.65,0.7-1.31,1.5-1.67,2.44
			C428.77,115.82,428.07,116.19,426.89,115.73z"/>
		<path class="st3" d="M431.86,129.91c-0.03,0.12-0.08,0.24-0.14,0.37c-0.84,1.89-1.99,3.57-3.21,5.22
			c-0.53,0.71-1.23,0.74-2.01,0.7c-4.86-0.29-17.64,1.71-22.35,2.78c3.95,5.03,20.94,12.6,27.16,13.41
			c12.4,1.62,23.17-2.44,29.78-5.2c-3.38-1.92-17.23-8.12-20.96-9.28c-1.03-0.32-1.64-0.83-1.83-1.91c-0.23-1.34-0.61-2.66-0.83-4
			c-0.17-1.01-0.26-1.63-0.17-2.08c1.76-0.72,3.38-2.09,4.64-3.94c0.06-0.05,0.13-0.09,0.19-0.14c0.02,0.02,0.03,0.04,0.05,0.05
			c1.59,1.23,4.09,0.65,5.59-1.29c1.5-1.94,1.42-4.51-0.16-5.73c-0.86-0.67-1.99-0.78-3.08-0.46c0.4-5.6-2.28-10.47-6.54-11.35
			c-4.78-0.99-9.74,3.42-11.07,9.86C425.72,122.72,427.9,128.18,431.86,129.91z"/>
		<path class="st10" d="M426.46,113.57c0.22,0.63,0.46,1.26,0.91,1.76c0.76,0.85,1.98,1.12,3.12,1.16c2.51,0.09,5.28-0.99,6.25-3.3
			c-0.17,1.22,0.32,2.51,1.26,3.31c0.94,0.8,2.3,1.07,3.47,0.71c-1.08,1.84,0.01,4.57,2.06,5.16c0.11-3.24,2.71-6.21,5.9-6.76
			c-0.37-3.98-1.5-7.88-3.31-11.44c-0.7-1.39-1.53-2.75-2.7-3.78c-3.65-3.21-8.39-1.92-12.75-1.86c-1.27,0.02-2.64-0.03-3.68,0.83
			c-1.51,1.25-1.96,3.7-2.08,5.53C424.71,107.86,425.48,110.8,426.46,113.57z"/>
		<path class="st14" d="M379.39,319.35c2.5-0.44,5-1.01,7.55-0.26c0.04,0.27,0.04,0.56,0.14,0.8c1.14,2.54,0.33,4.61-1.46,6.52
			c-1.08,1.15-2.23,2.2-3.5,3.13c-3.03,2.21-6.05,4.44-8.68,7.13c-0.91,0.94-1.99,1.67-3.25,2.07c-0.81,0.25-1.63,0.28-2.28-0.41
			c-0.67-0.71-0.8-1.55-0.52-2.47c0.24-0.81,0.78-1.43,1.36-2.02c1.44-1.45,2.84-2.95,4.34-4.33
			C376.13,326.69,377.79,323.04,379.39,319.35z"/>
		<g>
			<g>
				<path class="st15" d="M379.39,319.35c-2.07-0.5-2.25-0.67-2.49-2.41c-1.16-8.47-9.61-55.38-5.07-72.13
					c0.95-3.7,2.69-7.02,4.9-10.1c2.2-3.06,16.71-18.42,20.81-22.37c3.58-3.45,6.87-7.24,9.91-11.21c0.68-0.02,1.36-0.07,2.04-0.04
					c3.42,0.13,6.83,0.42,10.25,0.39c8.35-0.08,16.67,0.58,25,0.87c0.4,0.01,0.79,0.18,1.19,0.28c2.52,5.63,4.67,11.36,4.93,17.63
					c0.1,2.56-0.42,5.03-0.75,7.53c-0.54,3.99-1.19,7.97-2.29,11.86c-0.41,1.44-0.19,1.71,1.37,1.47c2.29-0.35,4.61-0.65,6.85-1.23
					c7.19-1.88,14.57-3.05,21.59-5.62c0.64-0.24,1.29-0.43,1.86-0.82c0.55,0.37,0.76,0.94,0.93,1.53c0.71,2.41,1.41,4.82,2.12,7.22
					c-0.12,0.5-0.48,0.78-0.91,1.04c-6.71,4.1-13.31,8.39-20.15,12.28c-6.77,3.85-13.35,8.09-20.73,10.76
					c-3.54,1.28-7.73,2.93-11.49,1.67c-8.06-2.69-6.77-17.42-7.35-24.06c-0.26-3-1.09-11.11-1.75-12.14
					c-0.86,0.34-1.39,0.98-1.98,1.52c-7.97,7.22-16.47,13.79-25.18,20.07c-3.91,2.81-3.92,2.76-4.03,7.58
					c-0.3,12.99-0.2,25.98,0.04,38.97c0.11,5.74,0.18,11.49-0.12,17.23c-0.09,1.67-0.13,1.67-1.92,1.97
					C384.39,318.34,381.89,318.91,379.39,319.35z"/>
				<path class="st16" d="M481.04,149.19c-0.28-0.16-0.58-0.28-0.89-0.37c-0.52-0.15-1.07-0.22-1.6-0.32
					c-2.67-0.53-5.35-1.05-8.02-1.61c-3.58-0.76-6.95-2.11-10.28-3.55c-0.04,0.03-0.08,0.06-0.12,0.09
					c-10,6.4-21.58,8.87-33.31,6.83c-8.82-1.53-18.28-6-21.42-14.73c-0.04,0-0.08-0.01-0.12-0.01c-0.75-0.03-1.5-0.16-2.24-0.18
					c-2.9-0.07-5.41-1.17-7.8-2.73c-2.75-1.79-5.3-3.84-7.89-5.84c-2.2-1.7-3.19-1.4-4.21,1.23c-0.99,4.22-1.98,8.43-2.96,12.65
					c0.05,1.03-1.63,10.59-1.82,14.43c-0.1,2.07,0.13,2.48,2.21,3.01c4.83,1.23,9.67,2.43,14.63,3.07c1.61,0.21,1.65,0.23,1.78,1.88
					c0.05,0.68-0.86,28.01-1.49,34.82c-0.17,1.86-0.06,2.03,1.79,2.13c11.16,2.07,58.97,3.67,61.29,2.68
					c1.95-0.1,2.84-0.95,3.03-2.88c0.28-2.85,1.85-23.36,1.85-24.45c0.01-0.89,0.44-1.42,1.4-1.35c3.83,0.29,14.12-0.45,15.59-2.64
					C480,163.96,480.24,156.56,481.04,149.19z"/>
				<path class="st3" d="M372.55,121.31c-3.49-2.65-6.73-5.59-10.06-8.44c-5.99-5.12-24.42-21.18-24.22-21.96
					c-2.81,1.11-1.93,1.74-4.71,2.93c1.07,1.46,2.02,3,3.1,4.45c8.93,11.92,18.69,23.06,30.07,32.71c1.98,1.68,4.11,3.19,6.01,4.96
					c2.19,2.04,4.62,3.61,7.41,4.66c0.99-4.22,1.98-8.43,2.96-12.65C379.43,126.03,375.88,123.85,372.55,121.31z"/>
				<path class="st3" d="M537.55,149.79c-0.4,1.1-1.08,1.67-2.25,2c-4.1,1.14-8.28,1.85-12.48,2.43c-5.9,0.82-11.86,0.9-17.8,1.22
					c-5.12,0.27-10.25,0.58-15.37,0.08c-2.79-0.27-5.57-0.68-8.35-1.03c-0.39,4.23-0.83,8.46-0.39,12.72
					c0.13,1.26,18.67,0.69,33.29-2.39c7.92-1.67,15.48-4.53,23.17-7.89C538.55,155.06,539.16,152.59,537.55,149.79z"/>
				<path class="st14" d="M482.51,242.19c-0.7-2.41-1.41-4.82-2.12-7.22c-0.17-0.59-0.39-1.16-0.93-1.53
					c0.41-0.86,0.73-1.77,1.24-2.57c1.6-2.5,4.1-2.69,6.14-0.54c1.05,1.11,1.9,2.4,2.19,3.88c0.75,3.78,3.21,6.4,5.81,8.92
					c1.23,1.19,2.43,2.39,3.36,3.84c0.65,1.01,0.97,2.1,0.75,3.31c-0.27,1.52-1.29,2.22-2.81,1.9c-0.89-0.19-1.65-0.66-2.21-1.38
					c-0.55-0.7-1.11-1.39-1.56-2.15c-0.83-1.38-1.92-2.49-3.29-3.3C486.99,244.1,485.07,242.47,482.51,242.19z"/>
				<g>
					<g>
						<path class="st17" d="M480,148.11c-1.1,7.97-1.59,15.92-1.39,23.96c0.07,2.75,4.35,2.76,4.28,0
							c-0.19-7.64,0.19-15.25,1.23-22.82C484.49,146.56,480.37,145.39,480,148.11L480,148.11z"/>
					</g>
				</g>
			</g>
			<g>
				<g>
					<path class="st17" d="M382.87,123.15c-3.36,11.31-5.33,22.88-5.96,34.65c-0.15,2.75,4.13,2.74,4.28,0
						c0.61-11.4,2.56-22.57,5.81-33.52C387.78,121.64,383.66,120.51,382.87,123.15L382.87,123.15z"/>
				</g>
			</g>
		</g>
		<path class="st3" d="M326.47,84.37c0.72-0.83,4.13,2.58,4.13,2.58s-4.16-4.73-3.73-5.46c0.69-1.14,5.34,4.31,5.34,4.31
			s-4.91-6.07-3.66-6.83c1.25-0.77,5.42,5.79,5.42,5.79s-3.55-6.41-2.37-6.88c1.18-0.47,5.43,7.97,5.43,7.97s1.05-4.67,2.01-4.51
			c1.63,0.26-0.19,10.26-0.19,10.26l-4.54,3.23C334.32,94.83,325.75,85.2,326.47,84.37z"/>
		<path class="st3" d="M550.72,147.93c-0.6-0.93-4.46,1.97-4.46,1.97s4.79-4.09,4.47-4.87c-0.52-1.23-5.89,3.51-5.89,3.51
			s5.72-5.31,4.6-6.24c-1.12-0.94-6.19,4.96-6.19,4.96s4.42-5.84,3.33-6.47c-1.1-0.63-6.51,7.12-6.51,7.12s-0.37-4.77-1.35-4.75
			c-1.65,0.02-1.28,10.18-1.28,10.18l-0.06,3.6C537.36,156.93,551.32,148.86,550.72,147.93z"/>
		<g>
			<path class="st13" d="M440.9,133.52c-0.64-0.42-3.11-1.26-3.38-1.26c0.1,0.56,0.28,1.33,0.28,1.33s0.31,0.09,0.42,0.12
				c4.46,1.1,6.84,6.16,4.01,10.12c-1.99,2.79-6.12,3.55-8.91,5.35c-5.86,3.77-9.62,12.57-17,13.57
				c-8.58,1.16-14.88-9.63-14.5-17.09c0.19-3.74,2.05-7.3,5.12-9.48c3.33-2.37,6.87-1.9,10.63-1.15c2.82,0.57,5.81,1.1,8.39-0.52
				c0.93-0.58,1.62-1.33,2.64-1.78c0.72-0.32,1.43-0.43,2.15-0.44c0.21-0.42,0.42-0.84,0.62-1.26c-1.27-0.08-2.54,0.02-3.68,0.65
				c-2.2,1.21-3.42,2.79-6.21,2.69c-2.31-0.08-4.53-0.83-6.8-1.14c-7.82-1.06-14.1,5.49-14.12,13.15
				c-0.02,7.45,5.77,17.22,13.94,17.7c4.09,0.24,7.65-2.23,10.4-5.02c3.58-3.63,6.45-7.62,11.11-10c3.79-1.94,8.03-3.22,8.64-8.1
				C445.02,137.84,443.43,135.05,440.9,133.52z"/>
		</g>
		<path class="st13" d="M446.11,126.26c-0.07,1.01-0.95,1.77-1.96,1.7c-1.01-0.07-1.77-0.95-1.7-1.96c0.07-1.01,0.95-1.77,1.96-1.7
			C445.42,124.37,446.18,125.25,446.11,126.26z"/>
		<path class="st6" d="M436.15,124.46c-0.35,1.43-1.67,2.42-3.12,2.24c-1.45-0.18-2.5-1.45-2.49-2.92L436.15,124.46z"/>
		<g>
			<g>
				<path class="st18" d="M441.58,203.22c4.27,7.03,3.44,15.93,3.35,23.84c-0.11,8.75-0.74,17.42-2.93,25.92
					c-0.2,0.78,1,1.11,1.2,0.33c2.37-9.23,2.93-18.64,2.98-28.14c0.04-7.65,0.59-15.8-3.53-22.58
					C442.24,201.9,441.16,202.53,441.58,203.22L441.58,203.22z"/>
			</g>
		</g>
		<g>
			<g>
				<path class="st18" d="M443.55,250.13c12.96-3.17,25.82-6.73,38.56-10.7c0.76-0.24,0.44-1.44-0.33-1.2
					c-12.74,3.97-25.6,7.53-38.56,10.7C442.44,249.12,442.76,250.32,443.55,250.13L443.55,250.13z"/>
			</g>
		</g>
		<g>
			<g>
				<path class="st18" d="M420.91,233.38c-0.66-4.08-1.88-7.98-3.63-11.72c-0.34-0.73-1.41-0.09-1.08,0.63
					c1.71,3.65,2.86,7.45,3.51,11.42C419.84,234.5,421.04,234.16,420.91,233.38L420.91,233.38z"/>
			</g>
		</g>
		<g>
			<g>
				<path class="st18" d="M418.77,228.23c-5.44,3.73-11.08,7.16-16.49,10.94c-5.61,3.91-13.91,8.37-16.87,14.81
					c-2.41,5.24-1.21,12.63-1.14,18.19c0.2,15.54,0.41,31.09,0.61,46.63c0.01,0.8,1.26,0.8,1.25,0
					c-0.19-14.41-0.38-28.81-0.57-43.22c-0.07-5.15-0.38-10.36-0.2-15.5c0.34-9.93,11.54-15.7,18.87-20.74
					c5-3.44,10.17-6.6,15.17-10.02C420.06,228.85,419.44,227.77,418.77,228.23L418.77,228.23z"/>
			</g>
		</g>
		<line class="st19" x1="367.9" y1="338.31" x2="387.64" y2="321.86"/>
		<g>
			<g>
				<path class="st13" d="M482.42,229.68c3.29,2.64,3.63,7.35,5.9,10.78c2.09,3.15,8.87,7,8.66,10.96c-0.04,0.8,1.2,0.8,1.25,0
					c0.23-4.25-4.65-6.57-7.12-9.4c-3.43-3.93-3.71-9.94-7.8-13.22C482.69,228.3,481.8,229.18,482.42,229.68L482.42,229.68z"/>
			</g>
		</g>
	</g>
	<g>
		<path class="st3" d="M558,51.12c1.01-0.45,2.67,4.08,2.67,4.08s-1.8-6.04-1.1-6.52c1.1-0.75,3.04,6.15,3.04,6.15
			s-1.92-7.56-0.47-7.74c1.45-0.18,2.5,7.52,2.5,7.52s-0.54-7.3,0.72-7.24c1.27,0.07,1.6,9.51,1.6,9.51s2.9-3.8,3.72-3.26
			c1.37,0.91-4.46,9.24-4.46,9.24l-5.48,1.04C560.76,63.91,557,51.57,558,51.12z"/>
		<path class="st3" d="M687.39,108.34c-0.77-0.79-3.99,2.8-3.99,2.8s3.9-4.95,3.43-5.65c-0.75-1.11-5.1,4.59-5.1,4.59
			s4.58-6.32,3.29-7.02c-1.28-0.7-5.1,6.07-5.1,6.07s3.2-6.59,2-7c-1.2-0.41-5,8.25-5,8.25s-1.3-4.6-2.25-4.4
			c-1.61,0.34,0.74,10.24,0.74,10.24l4.71,2.98C680.11,119.21,688.15,109.13,687.39,108.34z"/>
		<g>
			<path class="st10" d="M680.25,117.82c-2.41-1.65-4.75-3.42-7.07-5.19c-0.1,0.16-0.21,0.33-0.33,0.53
				c-3.8,6.42-7.78,12.71-12.34,18.63c-1.21,1.57-2.22,3.29-3.53,4.79c-1.06,1.22-1.08,1.22-2.1-0.04c-2.37-2.93-4.42-6.08-6.38-9.3
				c-2.21-3.64-4.73-7.06-7.83-9.98c-4.44-4.2-9.65-6.96-15.79-7.58c-3.4-0.35-6.83-0.22-10.25,0.03c-0.6,2.51-1.12,5.05-2.91,7.08
				c-2.09,2.39-5.16,2.86-7.91,1.25c-2.37-1.39-3.43-3.59-3.98-6.13c-0.14-0.66-0.24-1.33-0.36-2c-3.34-0.16-6.67-0.62-10.03-0.53
				c-0.72,0.02-1.31-0.29-1.91-0.63c-3.26-1.88-6.68-3.42-10.24-4.66c-4.8-1.68-8.97-4.63-13.56-6.73c-0.7-0.32-0.77-0.78-0.64-1.49
				c1.09-5.77,2.11-11.56,3.2-17.33c1.09-5.77,2.66-11.44,3.6-17.25c0.02-0.13,0.04-0.26,0.05-0.37c-3.99-0.28-7.99-0.54-11.95-1.06
				c-0.08,0.16-0.17,0.33-0.24,0.51c-2.3,5.41-4.46,10.88-6.25,16.49c-1.6,5.01-3.27,10.01-5.11,14.94
				c-1.12,3.01-2.19,6.04-2.79,9.22c-0.39,2.08-0.23,4.07,0.62,6.02c1.32,3.05,3.31,5.65,5.45,8.15
				c5.83,6.79,12.21,11.98,19.31,17.39c1.03,0.79,2.08,1.59,2.87,2.63c3.3,4.36,3.15,14.61,3.62,20.06
				c0.49,5.76-5.05,10.76-5.85,16.31c-0.51,3.51,0.31,7.06,2.11,10.1c1.88,3.19,5.03,6.87,8.21,8.84
				c5.09,3.15,10.65,4.89,16.58,5.49c3.34,0.33,6.7,0.46,10.03-0.02c5.61-0.8,10.23-3.65,14.52-7.16c0.42-0.34,0.83-0.71,1.24-1.06
				c0.74-0.98,1.52-1.93,2.2-2.95c2.69-4.07,3.47-8.57,2.82-13.33c-0.96-7.05-0.31-14.04,0.44-21.05c0.12-1.12,0.58-1.93,1.7-2.31
				c1.06-0.35,1.46,0.53,2.01,1.07c4.06,3.97,8.25,7.78,12.59,11.44c2.21,1.86,4.62,3.4,7.22,4.65c2.73,1.31,5.28,0.92,7.74-0.71
				c1.64-1.09,2.8-2.6,3.77-4.26c2.72-4.66,5.53-9.26,7.87-14.14c2.45-5.11,5.07-10.14,7.54-15.24c1.82-3.77,3.33-7.66,4.09-11.81
				C681.6,118.68,680.91,118.27,680.25,117.82z"/>
			<path class="st11" d="M579.95,190.49c5.09,3.15,10.65,4.89,16.58,5.49c3.34,0.33,6.7,0.46,10.03-0.02
				c5.61-0.8,10.23-3.65,14.52-7.16c0.42-0.34,0.83-0.71,1.24-1.06c1.87,3.63,4.09,7.07,5.11,11.12c2.43,9.66,0.71,18.39-5.53,26.19
				c-4.92,6.16-10.35,11.82-16.55,16.71c-0.58,0.46-1.05,1.06-1.57,1.6c-0.5,0.05-0.87,0.34-1.25,0.64
				c-1.59,1.29-3.15,2.61-4.81,3.81c-5.08,3.68-10.08,7.49-15.59,10.55c-2.02,1.12-1.97,1.23-0.64,3.27c2.42,3.72,5,7.34,7.26,11.16
				c2.05,2.31,3.77,4.86,5.47,7.42c2.31,3.47,4.45,7.06,6.77,10.52c0.81,1.21,1.14,2.26,0.24,3.5c-2.15,2.42-3.99,5.08-5.7,7.82
				c-0.93,0.73-1.48,1.78-2.16,2.7c-0.48,0.65-0.92,0.7-1.5,0.18c-1.83-1.64-3.66-3.27-5.49-4.91c-1.27-1.14-2.5-2.32-3.93-3.27
				c-3.81-3.09-7.62-6.18-11.44-9.27c-3.71-3-7.39-6.04-11.15-8.98c-2.52-1.97-4.72-4.34-7.47-6.03c-2.51-2.51-5.01-5.03-7.54-7.52
				c-1.76-1.73-3.33-3.63-4.76-5.64c-3.04-4.29-3.02-7.63,0.09-11.83c3.35-4.52,7.24-8.57,11.25-12.49c2.4-2.34,4.8-4.68,7.05-7.17
				c5.47-6.04,11.2-11.82,16.83-17.7c0.75-0.79,1.13-1.54,1.12-2.69C576.37,201.55,577.83,195.95,579.95,190.49z"/>
			<path class="st20" d="M552.37,272.48c2.75,1.69,4.95,4.06,7.47,6.03c3.76,2.94,7.44,5.98,11.15,8.98
				c3.81,3.09,7.62,6.18,11.44,9.27c0.12,2.4,0.87,4.67,1.44,6.98c1.89,7.67,3.72,15.35,5.28,23.1c0.3,1.51,0.25,1.53-1.15,2.02
				c-0.77,0.27-1.55,0.51-2.33,0.76c-3.22,1-6.45,2-9.67,3c-0.89,0.34-1.78,0.69-2.67,1.02c-1.69,0.61-1.7,0.61-2.34-0.99
				c-1.24-3.11-2.43-6.23-3.7-9.33c-2.64-6.44-5.26-12.89-7.98-19.3c-3.17-7.5-5.55-15.27-7.94-23.03
				C550.49,278.14,550.84,275.17,552.37,272.48z"/>
			<path class="st20" d="M588.75,272.8c-2.26-3.82-4.84-7.44-7.26-11.16c-1.33-2.04-1.38-2.15,0.64-3.27
				c5.51-3.06,10.51-6.87,15.59-10.55c1.65-1.2,3.22-2.53,4.81-3.81c0.38-0.31,0.75-0.59,1.25-0.64c-1.46,2.92-2.89,5.86-4.39,8.75
				c-3.24,6.22-6.53,12.42-9.79,18.63C589.25,271.4,588.76,272,588.75,272.8z"/>
			<path class="st15" d="M575.99,332.62c3.23-1,6.45-2,9.67-3c0.09,0.88,0.17,1.76,0.27,2.64c0.25,2.1-0.23,4.01-1.79,5.43
				c-4.44,4.05-8.59,8.42-13.39,12.07c-0.6,0.46-1.18,0.95-1.92,1.15c-1.34,0.37-2.16-0.27-2.07-1.67c0.12-1.77,1-3.26,2.02-4.63
				c0.73-0.98,1.57-1.9,2.47-2.73c2.56-2.36,3.57-5.61,5.04-8.59C576.45,333,576.2,332.8,575.99,332.62z"/>
			<path class="st15" d="M595.52,302.06c1.72-2.74,3.55-5.4,5.7-7.82c2.75,1.66,3.84,4.1,3.41,7.27c-0.31,2.29-0.54,4.6-0.87,6.89
				c-0.33,2.23-0.44,4.47-0.39,6.72c0.02,0.9-0.1,1.78-0.41,2.61c-0.51,1.41-1.79,1.71-2.9,0.69c-0.77-0.71-1.27-1.62-1.53-2.62
				c-0.35-1.31-0.67-2.65-0.83-3.99C597.28,308.49,596.55,305.24,595.52,302.06z"/>
			<path class="st3" d="M615.25,88.56c-1.55-0.29-3.09,0.88-3.71,2.69c-0.11-0.07-0.24-0.16-0.37-0.27
				c-0.81-0.64-1.41-1.4-1.76-2.31c-0.18-0.46-0.29-0.96-0.32-1.51c-0.03-0.57-0.06-1.15-0.09-1.89c-0.01,0-0.01,0.01-0.02,0.01
				c-0.78,0.3-1.29,0.75-1.75,1.22c-0.15,0.15-0.38-0.38-0.53-0.23c-2.11,2.13-4.13,2.39-7.39,2.61c-0.41,0.03-0.79-0.21-1.18-0.31
				c-0.27-0.22-0.53-0.44-0.77-0.66c-0.22,0.96-0.34,1.97-0.34,3.02c0,2.64,0.76,5.04,1.99,6.87c0.02,0.03,0.04,0.06,0.06,0.09
				c1.16,1.68,2.73,2.86,4.5,3.28c0.36,0.45,0.47,1.02,0.38,1.8c-0.05,0.4,0.01,0.82-0.06,1.22c-0.42,2.37-1.21,4.48-3.95,5.06
				c-0.3,0.06-0.34,0.4-0.47,0.63c0.12,0.67,0.22,1.34,0.36,2c0.56,2.54,1.62,4.74,3.98,6.13c2.75,1.62,5.82,1.14,7.91-1.25
				c1.78-2.04,2.3-4.57,2.91-7.08c-3.31-2.16-5.17-5.16-5.36-9.14c-0.01-0.27-0.07-0.54-0.07-0.8c1.25-1.03,2.26-2.5,2.91-4.24
				c0.42,0.53,0.97,0.92,1.63,1.04c1.74,0.33,3.49-1.2,3.9-3.4C618.07,90.94,617,88.89,615.25,88.56z"/>
			<path class="st5" d="M616.89,67.86c-1.93-1.7-4.33-1.93-6.72-0.77c-2.39,1.16-3.55,3.08-3.58,5.74
				c-0.01,1.04,0.15,2.07,0.38,3.22c-1.44-0.79-2.99-1.36-4.61-1.58c-2.6-0.35-5.38,0.25-7.39,1.94c-2,1.69-3.09,4.53-2.39,7.05
				c0.76,2.78,3.36,4.42,5.96,5.23c3.89,1.21,7.31-1.02,10.48-3.03c0.02,0.56,0.04,1.04,0.07,1.51c0.09,1.6,0.85,2.85,2.08,3.82
				c0.9,0.7,1.25,0.71,1.77-0.09c0.04-0.08,0.09-0.15,0.15-0.24c0.25-0.4,0.44-0.85,0.65-1.27c0.32-1.59,0.53-3.19,0.47-4.78
				c4.1-0.41,6.19-3.17,6.68-6.33C621.55,74.04,619.99,70.58,616.89,67.86z"/>
		</g>
		<g>
			<g>
				<path class="st13" d="M612.81,194.42c7.03,13.49-4.13,28.6-13.6,37.63c-8.92,8.51-19.6,14.88-30.15,21.14
					c-0.69,0.41-0.06,1.49,0.63,1.08c12.38-7.34,25.07-14.91,34.72-25.79c8.1-9.13,15.78-22.6,9.49-34.68
					C613.52,193.08,612.44,193.7,612.81,194.42L612.81,194.42z"/>
			</g>
		</g>
		<g>
			<g>
				<path class="st13" d="M566.18,251.12c10.33,15.24,21.46,29.89,33.38,43.93c0.52,0.61,1.4-0.27,0.88-0.88
					c-11.85-13.95-22.92-28.52-33.19-43.67C566.81,249.83,565.73,250.46,566.18,251.12L566.18,251.12z"/>
			</g>
		</g>
		<g>
			<g>
				<path class="st16" d="M585.73,334.68c-4.91,6.62-11.5,11.48-18.13,16.25c-0.65,0.46-0.02,1.55,0.63,1.08
					c6.81-4.9,13.54-9.89,18.58-16.7C587.28,334.67,586.2,334.05,585.73,334.68L585.73,334.68z"/>
			</g>
		</g>
		<g>
			<g>
				<path class="st16" d="M570.58,342.31c1.47,1.15,2.9,2.33,4.31,3.55c0.6,0.52,1.49-0.36,0.88-0.88c-1.41-1.22-2.85-2.4-4.31-3.55
					C570.84,340.94,569.95,341.81,570.58,342.31L570.58,342.31z"/>
			</g>
		</g>
		<g>
			<g>
				<path class="st16" d="M571.71,340.28c2.03,1.11,4,2.3,5.93,3.58c0.67,0.44,1.3-0.64,0.63-1.08c-1.93-1.28-3.9-2.47-5.93-3.58
					C571.64,338.81,571.01,339.89,571.71,340.28L571.71,340.28z"/>
			</g>
		</g>
		<g>
			<g>
				<path class="st16" d="M604.06,305.49c-2.43,1.62-4.96,3.08-7.58,4.38c-0.72,0.36-0.09,1.43,0.63,1.08
					c2.62-1.3,5.15-2.76,7.58-4.38C605.35,306.13,604.73,305.05,604.06,305.49L604.06,305.49z"/>
			</g>
		</g>
		<g>
			<g>
				<path class="st16" d="M604.33,308.77c-2.53,1.54-5.1,2.99-7.74,4.34c-0.71,0.37-0.08,1.44,0.63,1.08
					c2.63-1.35,5.21-2.8,7.74-4.34C605.65,309.43,605.02,308.35,604.33,308.77L604.33,308.77z"/>
			</g>
		</g>
		<g>
			<g>
				<path class="st16" d="M604.59,297.75c-0.16,3.26-0.38,6.51-0.7,9.76c-0.36,3.7-0.3,8.2-2.05,11.56
					c-0.37,0.71,0.7,1.34,1.08,0.63c1.43-2.73,1.54-5.92,1.88-8.94c0.49-4.32,0.82-8.66,1.04-13.01
					C605.87,296.95,604.63,296.95,604.59,297.75L604.59,297.75z"/>
			</g>
		</g>
		<ellipse class="st5" cx="613.09" cy="74.6" rx="9.3" ry="10.69"/>
		<path class="st6" d="M606.61,94.1c-0.25,1.45-1.49,2.53-2.95,2.46c-1.46-0.07-2.59-1.27-2.69-2.74L606.61,94.1z"/>
	</g>
	<circle class="st11" cx="150.5" cy="52.91" r="5.83"/>
	<circle class="st11" cx="699.43" cy="212.34" r="5.83"/>
	<path class="st11" d="M132.74,89.16c0,1.55-1.26,2.81-2.81,2.81c-1.55,0-2.81-1.26-2.81-2.81c0-1.55,1.26-2.81,2.81-2.81
		C131.48,86.35,132.74,87.61,132.74,89.16z"/>
	<path class="st11" d="M9.43,152.56c0,1.4-1.14,2.54-2.54,2.54c-1.4,0-2.54-1.14-2.54-2.54c0-1.4,1.14-2.54,2.54-2.54
		C8.29,150.02,9.43,151.16,9.43,152.56z"/>
	<path class="st11" d="M9.43,253.01c0,1.4-1.14,2.54-2.54,2.54c-1.4,0-2.54-1.14-2.54-2.54c0-1.4,1.14-2.54,2.54-2.54
		C8.29,250.47,9.43,251.6,9.43,253.01z"/>
	<path class="st11" d="M135.38,255.73c0,1.5-1.22,2.72-2.72,2.72c-1.5,0-2.72-1.22-2.72-2.72c0-1.5,1.22-2.72,2.72-2.72
		C134.16,253.01,135.38,254.23,135.38,255.73z"/>
	<path class="st11" d="M361.77,226.63c0,2.57-2.09,4.66-4.66,4.66c-2.57,0-4.66-2.09-4.66-4.66c0-2.57,2.09-4.66,4.66-4.66
		C359.69,221.97,361.77,224.06,361.77,226.63z"/>
	<circle class="st11" cx="210.11" cy="372.56" r="4.66"/>
	<path class="st11" d="M357.12,38.57c0,1.47-1.19,2.66-2.66,2.66s-2.66-1.19-2.66-2.66c0-1.47,1.19-2.66,2.66-2.66
		S357.12,37.11,357.12,38.57z"/>
	<path class="st11" d="M313.19,220.48c0,2.37-1.92,4.29-4.29,4.29c-2.37,0-4.29-1.92-4.29-4.29c0-2.37,1.92-4.29,4.29-4.29
		C311.27,216.19,313.19,218.11,313.19,220.48z"/>
	<path class="st11" d="M420.34,364.88c0,2.37-1.92,4.29-4.29,4.29c-2.37,0-4.29-1.92-4.29-4.29c0-2.37,1.92-4.29,4.29-4.29
		C418.42,360.6,420.34,362.52,420.34,364.88z"/>
	<path class="st11" d="M520.7,200.85c0,1.69-1.37,3.06-3.06,3.06c-1.69,0-3.06-1.37-3.06-3.06c0-1.69,1.37-3.06,3.06-3.06
		C519.33,197.79,520.7,199.16,520.7,200.85z"/>
	<path class="st11" d="M662.77,66.07c0,2.46-1.99,4.46-4.46,4.46c-2.46,0-4.46-2-4.46-4.46s1.99-4.46,4.46-4.46
		C660.77,61.62,662.77,63.61,662.77,66.07z"/>
	<path class="st11" d="M642.18,332.18c0,1.56-1.26,2.82-2.82,2.82c-1.56,0-2.82-1.26-2.82-2.82c0-1.56,1.26-2.82,2.82-2.82
		C640.92,329.36,642.18,330.62,642.18,332.18z"/>
	<path class="st11" d="M530.97,325.55c0,1.8-1.46,3.26-3.26,3.26c-1.8,0-3.26-1.46-3.26-3.26c0-1.8,1.46-3.26,3.26-3.26
		C529.51,322.29,530.97,323.75,530.97,325.55z"/>
	<circle class="st3" cx="32.84" cy="82.64" r="3.71"/>
	<path class="st3" d="M6.04,285.54c0,1.67-1.35,3.02-3.02,3.02c-1.67,0-3.02-1.35-3.02-3.02c0-1.67,1.35-3.02,3.02-3.02
		C4.68,282.52,6.04,283.88,6.04,285.54z"/>
	<path class="st3" d="M106.33,367.9c0,1.67-1.35,3.02-3.02,3.02c-1.67,0-3.02-1.35-3.02-3.02s1.35-3.02,3.02-3.02
		C104.98,364.88,106.33,366.23,106.33,367.9z"/>
	<circle class="st11" cx="186.44" cy="184.43" r="3.31"/>
	<circle class="st11" cx="313.19" cy="344.68" r="3.31"/>
	<path class="st3" d="M161.65,218.85c0,1.47-1.19,2.66-2.66,2.66c-1.47,0-2.66-1.19-2.66-2.66s1.19-2.66,2.66-2.66
		C160.46,216.19,161.65,217.38,161.65,218.85z"/>
	<circle class="st3" cx="255.75" cy="325.93" r="3.64"/>
	<circle class="st3" cx="349.97" cy="176.21" r="2.03"/>
	<circle class="st3" cx="275.78" cy="44.16" r="2.93"/>
	<path class="st3" d="M398.27,93.74c0,1.56-1.26,2.82-2.82,2.82c-1.56,0-2.82-1.26-2.82-2.82c0-1.56,1.26-2.82,2.82-2.82
		C397.01,90.92,398.27,92.18,398.27,93.74z"/>
	<circle class="st3" cx="467.93" cy="41.37" r="2.79"/>
	<circle class="st3" cx="501.78" cy="214.98" r="2.75"/>
	<path class="st3" d="M424.76,306.83c0,1.98-1.6,3.58-3.58,3.58c-1.98,0-3.58-1.6-3.58-3.58c0-1.98,1.6-3.58,3.58-3.58
		C423.15,303.25,424.76,304.85,424.76,306.83z"/>
	<path class="st3" d="M693.61,175.15c0,1.7-1.38,3.08-3.08,3.08c-1.7,0-3.08-1.38-3.08-3.08c0-1.7,1.38-3.08,3.08-3.08
		C692.23,172.07,693.61,173.45,693.61,175.15z"/>
	<circle class="st3" cx="609.85" cy="44.47" r="3.24"/>
	<path class="st3" d="M623.51,314.88c0,0.68-0.55,1.24-1.24,1.24c-0.68,0-1.24-0.55-1.24-1.24c0-0.68,0.55-1.24,1.24-1.24
		C622.96,313.65,623.51,314.2,623.51,314.88z"/>
	<circle class="st3" cx="680.75" cy="262.89" r="2.68"/>
	<polygon class="st4" points="77.26,19.97 80.4,25.72 86.16,28.86 80.4,32.01 77.26,37.76 74.11,32.01 68.36,28.86 74.11,25.72 	"/>
	<polygon class="st4" points="17.04,49.43 19.18,53.35 23.1,55.5 19.18,57.64 17.04,61.56 14.89,57.64 10.97,55.5 14.89,53.35 	"/>
	<polygon class="st4" points="29.14,349.24 31.47,353.5 35.73,355.83 31.47,358.16 29.14,362.42 26.81,358.16 22.54,355.83 
		26.81,353.5 	"/>
	<polygon class="st4" points="63.26,380.85 65.14,384.28 68.56,386.15 65.14,388.03 63.26,391.46 61.39,388.03 57.96,386.15 
		61.39,384.28 	"/>
	<polygon class="st4" points="240.56,21.79 243.06,26.36 247.63,28.86 243.06,31.36 240.56,35.93 238.06,31.36 233.49,28.86 
		238.06,26.36 	"/>
	<polygon class="st4" points="196.73,14.03 197.78,15.95 199.7,17 197.78,18.05 196.73,19.97 195.68,18.05 193.76,17 195.68,15.95 	
		"/>
	<polygon class="st4" points="286.7,89.2 287.51,90.69 289,91.51 287.51,92.33 286.7,93.82 285.88,92.33 284.39,91.51 285.88,90.69 
			"/>
	<polygon class="st4" points="275.78,350.05 276.96,352.19 279.1,353.37 276.96,354.54 275.78,356.69 274.61,354.54 272.46,353.37 
		274.61,352.19 	"/>
	<polygon class="st4" points="246.65,294.93 247.91,297.24 250.22,298.5 247.91,299.77 246.65,302.08 245.38,299.77 243.07,298.5 
		245.38,297.24 	"/>
	<polygon class="st4" points="416.05,0 419.57,6.42 425.98,9.93 419.57,13.44 416.05,19.86 412.54,13.44 406.12,9.93 412.54,6.42 	
		"/>
	<polygon class="st4" points="404.16,280.47 405.78,283.44 408.75,285.06 405.78,286.69 404.16,289.66 402.53,286.69 399.56,285.06 
		402.53,283.44 	"/>
	<polygon class="st4" points="465.14,331.79 467.65,336.38 472.24,338.89 467.65,341.4 465.14,345.99 462.63,341.4 458.04,338.89 
		462.63,336.38 	"/>
	<polygon class="st4" points="482.86,273.41 484.47,276.33 487.39,277.93 484.47,279.53 482.86,282.46 481.26,279.53 478.34,277.93 
		481.26,276.33 	"/>
	<polygon class="st4" points="632.61,19.67 633.77,21.79 635.89,22.95 633.77,24.11 632.61,26.23 631.45,24.11 629.33,22.95 
		631.45,21.79 	"/>
	<polygon class="st4" points="580.54,9.93 581.99,12.58 584.63,14.03 581.99,15.47 580.54,18.12 579.09,15.47 576.44,14.03 
		579.09,12.58 	"/>
	<polygon class="st4" points="395.45,31.82 396.9,34.47 399.55,35.92 396.9,37.36 395.45,40.01 394,37.36 391.36,35.92 394,34.47 	
		"/>
	<polygon class="st4" points="674.1,301.37 676.11,305.05 679.8,307.07 676.11,309.09 674.1,312.77 672.08,309.09 668.4,307.07 
		672.08,305.05 	"/>
	<polygon class="st4" points="490.28,345.29 492.3,348.97 495.98,350.99 492.3,353 490.28,356.69 488.26,353 484.58,350.99 
		488.26,348.97 	"/>
</g>
<g id="DESIGNED_BY_FREEPIK">
</g>
</svg>
