<?xml version="1.0" encoding="utf-8"?>
<!-- Generator: Adobe Illustrator 24.1.3, SVG Export Plug-In . SVG Version: 6.00 Build 0)  -->
<svg version="1.1" xmlns="http://www.w3.org/2000/svg" xmlns:xlink="http://www.w3.org/1999/xlink" x="0px" y="0px"
	 viewBox="0 0 409.44 215.49" style="enable-background:new 0 0 409.44 215.49;" xml:space="preserve">
<style type="text/css">
	.st0{fill:#697172;}
	.st1{fill:#606060;}
	.st2{fill:#D0493A;}
	.st3{fill:none;stroke:#F5DA34;stroke-linecap:round;stroke-miterlimit:10;}
	.st4{opacity:0.4;fill:#F5DA34;}
	.st5{fill:#F5DA34;}
	.st6{fill:none;stroke:#919A9B;stroke-linecap:round;stroke-linejoin:round;stroke-miterlimit:10;}
	.st7{fill:#FEFCF3;}
	.st8{opacity:0.3;fill:#606060;}
	.st9{opacity:0.3;fill:#FEFCF3;}
	.st10{fill:#E5C62C;}
	.st11{fill:#FFFFFF;}
	.st12{font-family:'Montserrat-SemiBold';}
	.st13{font-size:27.6309px;}
	.st14{letter-spacing:2;}
	.st15{fill:#C44339;}
</style>
<g id="BACKGROUND">
</g>
<g id="OBJECTS">
	<g>
		<g>
			<g>
				<g>
					<g>
						<path class="st0" d="M127.72,41.78v5.74h-23.37v-5.74c0-0.08,0-0.17,0.01-0.25c0.12-3.4,2.92-6.11,6.35-6.11h10.66
							c1.95,0,3.71,0.9,4.88,2.3C127.16,38.81,127.72,40.23,127.72,41.78z"/>
						<rect x="108.88" y="46.72" class="st0" width="14.3" height="157.02"/>
						<rect x="94.06" y="203.67" class="st0" width="43.94" height="11.82"/>
						<path class="st1" d="M138,203.67v11.82h-22.1c-0.65-4.04-4.15-7.11-8.37-7.11H94.06v-4.71H138z"/>
						<path class="st1" d="M127.72,41.78v5.74h-4.54v156.22h-7.16c-0.07-2.56-0.87-4.91-2.21-6.89c-1.18-1.73-2.75-3.17-4.6-4.18
							c-0.11-0.06-0.21-0.11-0.32-0.17v-13.26h7.15v-44.26c0-2.75-0.83-5.31-2.27-7.44c-1.23-1.83-2.9-3.33-4.88-4.34v-13.12h7.15
							V54.27c0-2.48-0.71-4.78-1.94-6.75c-0.15-0.28-0.33-0.54-0.54-0.8c-0.37-0.54-0.82-1.05-1.3-1.52
							c-1.15-1.15-2.53-2.07-4.05-2.72c-1.19-0.5-2.49-0.83-3.84-0.94c0.12-3.4,2.92-6.11,6.35-6.11h10.66c1.95,0,3.71,0.9,4.88,2.3
							C127.16,38.81,127.72,40.23,127.72,41.78z"/>
						<g>
							<circle class="st2" cx="116.19" cy="18.11" r="18.11"/>
							<path class="st3" d="M129.6,25.62c-1.18,2.1-2.84,3.89-4.82,5.23"/>
							<path class="st3" d="M120.15,32.96c-1.08,0.29-2.21,0.46-3.37,0.5"/>
							<path class="st3" d="M103.63,9.27c0.43-0.61,0.91-1.19,1.42-1.74"/>
							<path class="st3" d="M107.94,5.15c2.38-1.52,5.22-2.4,8.25-2.4c2.76,0,5.35,0.73,7.59,2"/>
							
								<ellipse transform="matrix(0.763 -0.6464 0.6464 0.763 15.8354 79.4013)" class="st4" cx="116.19" cy="18.11" rx="12.29" ry="12.29"/>
							<circle class="st5" cx="116.19" cy="18.11" r="8.07"/>
						</g>
						<path class="st6" d="M111.57,134.09c0,0,0,4.47,0,11.11"/>
						<path class="st6" d="M111.57,197.56c0,2.7,0,4.29,0,4.29"/>
					</g>
					<g>
						<path class="st0" d="M305.08,41.78v5.74h-23.37v-5.74c0-0.08,0-0.17,0.01-0.25c0.12-3.4,2.92-6.11,6.35-6.11h10.66
							c1.95,0,3.71,0.9,4.88,2.3C304.53,38.81,305.08,40.23,305.08,41.78z"/>
						<rect x="286.25" y="46.72" class="st0" width="14.3" height="157.02"/>
						<rect x="271.43" y="203.67" class="st0" width="43.94" height="11.82"/>
						<path class="st1" d="M315.37,203.67v11.82h-22.1c-0.65-4.04-4.15-7.11-8.37-7.11h-13.48v-4.71H315.37z"/>
						<path class="st1" d="M305.08,41.78v5.74h-4.54v156.22h-7.16c-0.07-2.56-0.87-4.91-2.21-6.89c-1.18-1.73-2.75-3.17-4.6-4.18
							c-0.11-0.06-0.21-0.11-0.32-0.17v-13.26h7.15v-44.26c0-2.75-0.83-5.31-2.27-7.44c-1.23-1.83-2.9-3.33-4.88-4.34v-13.12h7.15
							V54.27c0-2.48-0.71-4.78-1.94-6.75c-0.15-0.28-0.33-0.54-0.54-0.8c-0.37-0.54-0.82-1.05-1.3-1.52
							c-1.15-1.15-2.53-2.07-4.05-2.72c-1.19-0.5-2.49-0.83-3.84-0.94c0.12-3.4,2.92-6.11,6.35-6.11h10.66c1.95,0,3.71,0.9,4.88,2.3
							C304.53,38.81,305.08,40.23,305.08,41.78z"/>
						<g>
							<circle class="st2" cx="293.56" cy="18.11" r="18.11"/>
							<path class="st3" d="M306.96,25.62c-1.18,2.1-2.84,3.89-4.82,5.23"/>
							<path class="st3" d="M297.51,32.96c-1.08,0.29-2.21,0.46-3.37,0.5"/>
							<path class="st3" d="M281,9.27c0.43-0.61,0.91-1.19,1.42-1.74"/>
							<path class="st3" d="M285.31,5.15c2.38-1.52,5.22-2.4,8.25-2.4c2.76,0,5.35,0.73,7.59,2"/>
							
								<ellipse transform="matrix(0.249 -0.9685 0.9685 0.249 202.9198 297.9107)" class="st4" cx="293.56" cy="18.11" rx="12.29" ry="12.29"/>
							<circle class="st5" cx="293.56" cy="18.11" r="8.07"/>
						</g>
						<path class="st6" d="M288.93,134.09c0,0,0,4.47,0,11.11"/>
						<path class="st6" d="M288.93,197.56c0,2.7,0,4.29,0,4.29"/>
					</g>
				</g>
				<g>
					<rect x="85.26" y="150.77" class="st7" width="238.92" height="34.69"/>
					<polygon class="st2" points="111.61,150.77 85.26,177.17 85.26,162.99 97.45,150.77 					"/>
					<polygon class="st2" points="139.35,150.77 104.73,185.46 90.55,185.46 125.18,150.77 					"/>
					<polygon class="st2" points="167.07,150.77 132.45,185.46 118.29,185.46 152.91,150.77 					"/>
					<polygon class="st2" points="194.81,150.77 160.19,185.46 146.01,185.46 180.64,150.77 					"/>
					<polygon class="st2" points="222.55,150.77 187.92,185.46 173.75,185.46 208.37,150.77 					"/>
					<polygon class="st2" points="250.27,150.77 215.65,185.46 201.47,185.46 236.1,150.77 					"/>
					<polygon class="st2" points="278.01,150.77 243.38,185.46 229.21,185.46 263.83,150.77 					"/>
					<polygon class="st2" points="305.73,150.77 271.11,185.46 256.95,185.46 291.57,150.77 					"/>
					<polygon class="st2" points="324.18,150.77 324.18,160.08 298.84,185.46 284.67,185.46 319.29,150.77 					"/>
					<polygon class="st2" points="324.18,173.66 324.18,185.46 312.41,185.46 					"/>
					<path class="st8" d="M324.18,150.77v34.69h-69.62c-14.15-15.15-34.29-24.61-56.65-24.61H85.26v-10.08H324.18z"/>
				</g>
				<g>
					<rect x="85.26" y="46.71" class="st7" width="238.92" height="69.37"/>
					<polygon class="st2" points="127.07,46.72 85.26,88.61 85.26,66.3 104.81,46.72 					"/>
					<polygon class="st2" points="171.61,46.72 102.38,116.09 85.26,116.09 85.26,110.92 149.33,46.72 					"/>
					<polygon class="st2" points="216.13,46.72 146.9,116.09 124.64,116.09 193.87,46.72 					"/>
					<polygon class="st2" points="260.67,46.72 191.44,116.09 169.17,116.09 238.41,46.72 					"/>
					<polygon class="st2" points="305.21,46.72 235.97,116.09 213.7,116.09 282.93,46.72 					"/>
					<polygon class="st2" points="324.18,50.01 324.18,72.31 280.5,116.09 258.23,116.09 					"/>
					<polygon class="st2" points="324.18,96.95 324.18,116.09 305.08,116.09 					"/>
				</g>
				<path class="st9" d="M212.61,104.85H101.01c-3.84,0-6.95-3.11-6.95-6.95l0,0c0-3.84,3.11-6.95,6.95-6.95h111.59
					c1.92,0,3.66,0.78,4.92,2.04c1.26,1.26,2.04,3,2.04,4.92l0,0C219.56,101.73,216.45,104.85,212.61,104.85z"/>
				<path class="st9" d="M184.95,180.61h-83.93c-3.84,0-6.95-3.11-6.95-6.95l0,0c0-3.84,3.11-6.95,6.95-6.95h83.93
					c1.57,0,3.01,0.52,4.18,1.39c1.69,1.27,2.78,3.29,2.78,5.56l0,0C191.9,177.5,188.79,180.61,184.95,180.61z"/>
			</g>
			<path class="st8" d="M85.26,46.72v20.93h112.65c12.26,0,23.86,2.85,34.17,7.92l-40.51,40.51h61.45l15.7-15.7
				c3.44,4.85,6.35,10.11,8.61,15.7h46.85V46.72H85.26z"/>
			<path class="st8" d="M273.86,84.64c-0.22,1.18-0.81,2.33-1.73,3.24l-28.19,28.2h-39.22V46.71h35.15l32.26,32.27
				C273.67,80.52,274.24,82.65,273.86,84.64z"/>
			<g>
				<path class="st5" d="M266.95,81.46c0,1.2-0.46,2.41-1.38,3.33l-61.49,61.49c-1.84,1.84-4.81,1.84-6.64,0l-61.49-61.49
					c-1.84-1.84-1.84-4.81,0-6.64L183.11,31l14.33-14.34c1.84-1.84,4.81-1.84,6.64,0l61.49,61.49
					C266.49,79.06,266.95,80.27,266.95,81.46z"/>
				<path class="st10" d="M266.95,81.46c0,1.2-0.46,2.41-1.38,3.33l-61.49,61.49c-1.84,1.84-4.81,1.84-6.64,0l-11.73-11.73
					l25.56-25.57c13.76-13.76,13.76-36.05,0-49.81L183.11,31l14.33-14.34c1.84-1.84,4.81-1.84,6.64,0l61.49,61.49
					C266.49,79.06,266.95,80.27,266.95,81.46z"/>
				<g>
					<text transform="matrix(1 0 0 1 153.9041 89.9119)" class="st11 st12 st13 st14">Oops!</text>
				</g>
				<g>
					<path class="st11" d="M200.76,141.61c-1.34,0-2.59-0.52-3.54-1.46L142.09,85c-1.95-1.95-1.95-5.12,0-7.07l55.14-55.14
						c1.89-1.89,5.19-1.89,7.07,0l55.14,55.14c0.94,0.95,1.46,2.2,1.46,3.54c0,1.34-0.52,2.59-1.46,3.54l-55.14,55.14
						C203.36,141.09,202.1,141.61,200.76,141.61z M200.76,22.91c-0.91,0-1.77,0.35-2.42,1l-55.14,55.14c-1.33,1.33-1.33,3.5,0,4.83
						l55.14,55.14c1.29,1.29,3.54,1.29,4.83,0l55.14-55.14c0.64-0.65,1-1.5,1-2.42c0-0.91-0.35-1.77-1-2.41l-55.14-55.14
						C202.53,23.26,201.68,22.91,200.76,22.91z"/>
				</g>
			</g>
		</g>
		<g>
			<g>
				<g>
					<polygon class="st2" points="397.16,203.73 340.24,203.73 344.51,187.24 348.11,173.25 351.12,161.64 354.72,147.66 
						363.48,113.76 373.92,113.76 382.67,147.66 386.28,161.64 389.28,173.25 392.89,187.24 					"/>
					<polygon class="st7" points="386.28,161.65 351.12,161.65 354.72,147.66 382.67,147.66 					"/>
					<polygon class="st7" points="392.88,187.24 344.51,187.24 348.11,173.26 389.28,173.26 					"/>
				</g>
				<rect x="327.96" y="203.67" class="st15" width="81.48" height="11.82"/>
				<path class="st8" d="M409.44,203.67v11.82h-36.99c-0.65-4.04-4.15-7.11-8.37-7.11h-36.12v-4.71H409.44z"/>
				<path class="st8" d="M370.36,203.73c12.18-55.16-6.88-89.97-6.88-89.97h10.44l8.75,33.9l3.61,13.98l3,11.61l3.61,13.99
					l4.27,16.49H370.36z"/>
				<path class="st9" d="M364.85,167.06c-2.84,14.62-7.34,26.05-10.06,25.52c-2.72-0.53-2.63-12.81,0.21-27.43
					c2.84-14.62,7.34-26.05,10.06-25.52C367.77,140.16,367.68,152.44,364.85,167.06z"/>
			</g>
			<g>
				<g>
					<polygon class="st2" points="69.2,203.73 12.28,203.73 16.55,187.24 20.15,173.25 23.16,161.64 26.76,147.66 35.52,113.76 
						45.96,113.76 54.71,147.66 58.32,161.64 61.32,173.25 64.93,187.24 					"/>
					<polygon class="st7" points="58.32,161.65 23.16,161.65 26.76,147.66 54.72,147.66 					"/>
					<polygon class="st7" points="64.93,187.24 16.55,187.24 20.15,173.26 61.32,173.26 					"/>
				</g>
				<rect y="203.67" class="st15" width="81.48" height="11.82"/>
				<path class="st8" d="M81.48,203.67v11.82H44.48c-0.65-4.04-4.15-7.11-8.37-7.11H0v-4.71H81.48z"/>
				<path class="st8" d="M42.4,203.73c12.18-55.16-6.88-89.97-6.88-89.97h10.44l8.75,33.9l3.61,13.98l3,11.61l3.61,13.99l4.27,16.49
					H42.4z"/>
				<path class="st9" d="M36.89,167.06c-2.84,14.62-7.34,26.05-10.06,25.52c-2.72-0.53-2.63-12.81,0.21-27.43
					c2.84-14.62,7.34-26.05,10.06-25.52C39.82,140.16,39.72,152.44,36.89,167.06z"/>
			</g>
		</g>
	</g>
</g>
<g id="DESIGNED_BY_FREEPIK">
</g>
</svg>
