<svg id="PHONE-icon" xmlns="http://www.w3.org/2000/svg" width="25.632" height="25.734" viewBox="0 0 25.632 25.734">
  <path id="Path_34" data-name="Path 34" d="M0,3.064A3.036,3.036,0,0,1,.817,1.021,2.926,2.926,0,0,1,3.064,0H7.148A2.91,2.91,0,0,1,10.11,2.655,24.317,24.317,0,0,0,10.62,5.31a3.3,3.3,0,0,1-.715,3.064L8.17,10.008a18.7,18.7,0,0,0,7.455,7.455l1.634-1.634a2.849,2.849,0,0,1,3.064-.715,11.122,11.122,0,0,0,2.655.511,2.982,2.982,0,0,1,2.655,2.961V22.67a3.28,3.28,0,0,1-1.021,2.247,3.16,3.16,0,0,1-2.349.817,26.814,26.814,0,0,1-8.374-2.247,28.885,28.885,0,0,1-6.74-5,24.739,24.739,0,0,1-4.9-6.842A26.09,26.09,0,0,1,0,3.268v-.2ZM8.782,6.229V5.923a11.11,11.11,0,0,1-.715-3.064.994.994,0,0,0-1.021-.817H3.064a1.16,1.16,0,0,0-.817.306.794.794,0,0,0-.2.817A22.677,22.677,0,0,0,22.568,23.692a1.16,1.16,0,0,0,.817-.306.927.927,0,0,0,.306-.715V18.586a1.086,1.086,0,0,0-.919-1.021,13.852,13.852,0,0,1-2.961-.613,1.187,1.187,0,0,0-1.021.2l-2.655,2.655-.613-.306a19.762,19.762,0,0,1-9.395-9.293L5.821,9.6,8.476,6.944a1.1,1.1,0,0,0,.306-.715Zm0,0" transform="translate(0 0)" fill="#eaedf0"/>
</svg>
