<svg id="seedcash-au-icons-06" xmlns="http://www.w3.org/2000/svg" width="161.372" height="197.351" viewBox="0 0 161.372 197.351">
  <path id="Path_3864" data-name="Path 3864" d="M207.687,127.25a6.021,6.021,0,1,0,4.913-4.913,6.021,6.021,0,0,0-4.913,4.913Z" transform="translate(-101.134 -59.554)" fill="#3ec430"/>
  <text id="Utilities_and_Bills" data-name="Utilities and Bills" transform="translate(0 192.351)" fill="#3ec430" font-size="19" font-family="SegoeUI-Bold, Segoe UI" font-weight="700"><tspan x="0" y="0">Utilities and Bills</tspan></text>
  <path id="Path_3865" data-name="Path 3865" d="M152.261,180.389l-3.646,4.308c-.544.641-1.144,1.328-1.841,2.026a32.9,32.9,0,0,1-40.3,4.836,58.731,58.731,0,0,1-23.3,4.785A59.592,59.592,0,0,1,35.795,100.56v36.355A47.438,47.438,0,0,0,83.171,184.1a46.889,46.889,0,0,0,21.155-5.036l3.467-1.739,3.077,2.39a20.627,20.627,0,0,0,24.247.836L120.829,166.26h9.57a27.232,27.232,0,0,0,6.862-.856Z" transform="translate(-11.47 -48.988)" fill="#3ec430"/>
  <path id="Path_3866" data-name="Path 3866" d="M219.316,124.067V124h-.026A.159.159,0,0,1,219.316,124.067Z" transform="translate(-106.829 -60.407)" fill="#3ec430"/>
  <path id="Path_3867" data-name="Path 3867" d="M190.743,28.5l-16.765-16.76-7.016-7.021a16.175,16.175,0,0,0-22.837,0l-35.35,35.35H86.124A16.165,16.165,0,0,0,70,56.217V89.844a16.165,16.165,0,0,0,16.149,16.149H153a16.175,16.175,0,0,0,16.149-16.149V72.921L190.743,51.33a16.149,16.149,0,0,0,0-22.837ZM152.1,12.7a4.877,4.877,0,0,1,6.882,0l3.031,3.031L137.7,40.068H124.73Zm5.769,77.147A4.872,4.872,0,0,1,153,94.711H86.124a4.872,4.872,0,0,1-4.841-4.867V56.217a4.867,4.867,0,0,1,4.867-4.867h66.859a4.867,4.867,0,0,1,4.862,4.867ZM182.764,43.36,169.153,56.971v-.754a15.9,15.9,0,0,0-1.2-6.046,16.185,16.185,0,0,0-14.36-10.093l4.934-4.934,3.467-3.462,1.026-1.026L170,23.7l12.775,12.775a4.867,4.867,0,0,1,0,6.882Z" transform="translate(-34.101 0.001)" fill="#3ec430"/>
</svg>
