<svg id="seedcash-au-icons-10" xmlns="http://www.w3.org/2000/svg" width="64.647" height="91.226" viewBox="0 0 64.647 91.226">
  <text id="Travel" transform="translate(9.27 88.226)" fill="#67c69a" font-size="12" font-family="SegoeUI-Bold, Segoe UI" font-weight="700"><tspan x="0" y="0" letter-spacing="-0.06em">T</tspan><tspan y="0" letter-spacing="-0.01em">r</tspan><tspan y="0">avel</tspan></text>
  <path id="Path_3892" data-name="Path 3892" d="M91.266,157.218a3,3,0,1,0-3,3A3,3,0,0,0,91.266,157.218Z" transform="translate(-64.186 -116.105)" fill="#67c69a"/>
  <path id="Path_3893" data-name="Path 3893" d="M51.307,68.426q-.052.371-.119.741a22.242,22.242,0,0,1-.917,3.514A16.843,16.843,0,0,0,28.713,88h-.321c-.339,0-.677-.017-1.013-.042a22.372,22.372,0,0,1-4.918-.845,22.864,22.864,0,0,1-5.892-2.644l-1.994-1.26L7.589,90.2a9.938,9.938,0,0,1,.4-11.685l1.152-1.471L8.3,75.373a22.542,22.542,0,0,1-2.2-7.051A25,25,0,0,0,21.306,54.707c.264-.593.494-1.194.722-1.809a24.749,24.749,0,0,0,1.421-8.309c0-.549-.017-1.09-.054-1.631a20.732,20.732,0,0,1,2.079-.39,22.53,22.53,0,0,1,3.235-.23h.04a22.969,22.969,0,0,1,2.872.185l4.812-5.034c-.287-.082-.573-.153-.863-.225h0a28.422,28.422,0,0,0-6.858-.833,28.716,28.716,0,0,0-4.147.3h0c-.759.111-1.508.247-2.244.42a28.778,28.778,0,0,0-3.072.88c-.714.247-1.416.529-2.1.833a28.281,28.281,0,0,0-3.885,2.081A28.916,28.916,0,0,0,2.513,53.337a28.222,28.222,0,0,0-1.77,5.17c-.121.509-.232,1.021-.324,1.537A28.792,28.792,0,0,0-.015,64c-.017.4-.025.788-.025,1.181v.482a27.982,27.982,0,0,0,.331,3.754A28.3,28.3,0,0,0,2.268,76.4,15.85,15.85,0,0,0,4.6,95.819c.334.336.667.625.976.89l2.076,1.755,7.807-7.807a28.788,28.788,0,0,0,4.854,1.977,28.2,28.2,0,0,0,4.6,1.028,28.518,28.518,0,0,0,3.794.247h.756a27.988,27.988,0,0,0,4.515-.494c.341-.064.68-.136,1.016-.213a28.2,28.2,0,0,0,7.234-2.684,28.916,28.916,0,0,0,10.874-10.2c.163-.262.321-.526.475-.788a28.421,28.421,0,0,0,1.6-3.213c.138-.331.274-.665.4-.989l.015-.042a28.459,28.459,0,0,0,1.715-7.454c.035-.353.062-.709.079-1.065a7.36,7.36,0,0,1-4.8,1.767,7.476,7.476,0,0,1-1.28-.106ZM6.485,59.936a22.624,22.624,0,0,1,2.029-5.408,23,23,0,0,1,5.763-7.039,22.626,22.626,0,0,1,3.734-2.484A19.483,19.483,0,0,1,6.035,62.553a21.322,21.322,0,0,1,.45-2.617Zm41.1,18.069a22.891,22.891,0,0,1-12.839,9.186l-.512.133a11.413,11.413,0,0,1,13.578-9.663A3.923,3.923,0,0,1,47.58,78.005Z" transform="translate(0.04 -27.426)" fill="#67c69a"/>
  <path id="Path_3894" data-name="Path 3894" d="M142.464,27.221,126.521,10.548V2.719a2.719,2.719,0,1,0-5.437,0v7.83l-1.26,1.315-4.345,4.548-10.336,10.81a2.719,2.719,0,1,0,3.93,3.759l11.384-11.908.628-.655v6.441l-6.658,6.965a2.722,2.722,0,0,0,3.93,3.767l2.719-2.855v4.078a2.719,2.719,0,1,0,5.437,0v-4.09l2.743,2.867a2.649,2.649,0,0,0,.853.6,2.717,2.717,0,0,0,3.077-4.357l-6.661-6.965V18.417l6.829,7.138,5.19,5.425a2.719,2.719,0,0,0,3.93-3.759Z" transform="translate(-78.579 0)" fill="#67c69a"/>
  <path id="Path_3895" data-name="Path 3895" d="M54.747,170.638A2.719,2.719,0,0,0,49.6,172.4a13.727,13.727,0,0,0,7.733,8.225,2.753,2.753,0,0,0,1.038.205,2.719,2.719,0,0,0,1.04-5.23A8.279,8.279,0,0,1,54.747,170.638Z" transform="translate(-37.221 -127.08)" fill="#67c69a"/>
</svg>
