<svg id="seedcash-au-icons-02" xmlns="http://www.w3.org/2000/svg" width="147.637" height="192.617" viewBox="0 0 147.637 192.617">
  <path id="Path_3844" data-name="Path 3844" d="M88.209,141.417a46.586,46.586,0,0,1-8.246,2.79,45.692,45.692,0,0,1-6.154,1.026,45.027,45.027,0,0,1-4.728.251,46.337,46.337,0,0,1-5.072-.267,46.94,46.94,0,0,1-16.088-4.723l-3.477-1.728L41.4,141.16a20.611,20.611,0,0,1-24.242.882l14.462-14.513L29,123.426a47.376,47.376,0,0,1-5.513-12.216,46.361,46.361,0,0,1-1.769-10.19c-.051-.7-.077-1.4-.087-2.1V98.23A47.335,47.335,0,0,1,42.274,59.008,46.11,46.11,0,0,1,47.31,56,55.505,55.505,0,0,1,52.848,40.71c-1.692.472-3.359,1.026-4.985,1.641-.723.272-1.436.559-2.149.862a58.563,58.563,0,0,0-6.636,3.333,59.511,59.511,0,0,0-29.17,59.541,58.408,58.408,0,0,0,2.113,9.518,59.131,59.131,0,0,0,4.149,10.062L0,141.924l3.651,4.3c.554.641,1.154,1.328,1.846,2.051a32.889,32.889,0,0,0,40.309,4.759,58.669,58.669,0,0,0,22.314,4.723h1a59.571,59.571,0,0,0,10.631-.974q1.615-.292,3.19-.677a58.257,58.257,0,0,0,10.718-3.692,59.383,59.383,0,0,0,14.165-9.072,26.776,26.776,0,0,1-7.421,1.026,26.473,26.473,0,0,1-12.2-2.949Z" transform="translate(0 -19.837)" fill="#3ec430"/>
  <path id="Path_3845" data-name="Path 3845" d="M122.128,63.182a19.242,19.242,0,0,0,9.908-3.077c.354.569.728,1.123,1.118,1.656a22.565,22.565,0,0,0,12.134,8.426V80.86a5.641,5.641,0,1,0,11.283,0V70.921a22.565,22.565,0,0,0,16.749-10.8,20.39,20.39,0,0,0,4.81,2.231,17.3,17.3,0,0,0,5.093.831c6.713,0,16.078-6.005,16.078-15.785C199.3,21.308,178.432.077,152.754.01H152.6a46.392,46.392,0,0,0-37.135,18.878A47.694,47.694,0,0,0,106.05,47.4C106.05,57.177,115.414,63.182,122.128,63.182ZM188.017,47.4c0,2.857-3.636,4.5-4.8,4.5-1.605,0-5.4-1.467-5.913-3.728a25.8,25.8,0,0,0,.144-2.626c0-6.523-2.564-17.3-6.216-26.222q-.769-1.867-1.539-3.559A36.248,36.248,0,0,1,188.017,47.4ZM152.693,11.287c.856.231,4.369,2.882,8.39,12.944a83.522,83.522,0,0,1,4.308,14.621,37.639,37.639,0,0,1,.805,6.667,7.106,7.106,0,0,1-.026.728,5.672,5.672,0,0,0-.18,1.39v.251a16.5,16.5,0,0,1-2.857,7.18c-.221.3-.451.585-.7.856-2.333,2.657-5.534,3.959-9.744,3.975-10.211,0-12.7-8.057-13.334-12.108v-.133a5.641,5.641,0,0,0-.174-1.354c-.026-.421-.031-.692-.031-.764a46.488,46.488,0,0,1,1.569-10.165,85.131,85.131,0,0,1,3.544-11.134c.082-.2.159-.4.241-.595C148.462,14.057,151.857,11.513,152.693,11.287ZM135.7,15.749q-.795,1.692-1.539,3.559c-.108.262-.215.513-.318.795a96,96,0,0,0-3.79,11.718,59.632,59.632,0,0,0-2.108,13.708c0,.877.051,1.764.138,2.641-.513,2.251-4.308,3.713-5.908,3.713-1.159,0-4.8-1.646-4.8-4.5A36.468,36.468,0,0,1,121.292,30.9a36.053,36.053,0,0,1,9.118-11.467,34.726,34.726,0,0,1,5.267-3.667Z" transform="translate(-51.663 -0.01)" fill="#3ec430"/>
  <path id="Path_3846" data-name="Path 3846" d="M192.312,179.87a5.641,5.641,0,0,0-5.641,5.641,7.18,7.18,0,1,1-14.36,0,5.641,5.641,0,1,0-11.283,0,7.18,7.18,0,1,1-14.334,0,5.641,5.641,0,1,0-11.283,0,7.18,7.18,0,1,1-14.36,0,5.641,5.641,0,0,0-11.283,0,18.462,18.462,0,0,0,31.283,13.262,18.4,18.4,0,0,0,25.616,0A18.453,18.453,0,0,0,197.953,185.5,5.641,5.641,0,0,0,192.312,179.87Z" transform="translate(-53.475 -87.63)" fill="#3ec430"/>
  <ellipse id="Ellipse_138" data-name="Ellipse 138" cx="6.033" cy="6.033" rx="6.033" ry="6.033" transform="matrix(0.987, -0.16, 0.16, 0.987, 116.101, 75.255)" fill="#3ec430"/>
  <text id="Leisure" transform="translate(40.74 187.617)" fill="#3ec430" font-size="19" font-family="SegoeUI-Bold, Segoe UI" font-weight="700"><tspan x="0" y="0">Leisu</tspan><tspan y="0" letter-spacing="-0.01em">r</tspan><tspan y="0">e</tspan></text>
  <path id="Path_3847" data-name="Path 3847" d="M77.434,151.357a30.1,30.1,0,0,1,.944-30.017" transform="translate(-35.991 -59.117)" fill="none" stroke="#3ec430" stroke-linecap="round" stroke-miterlimit="10" stroke-width="11"/>
</svg>
