<svg id="seedcash-au-icons-02" xmlns="http://www.w3.org/2000/svg" width="196.058" height="256.575" viewBox="0 0 196.058 256.575">
  <path id="Path_3844" data-name="Path 3844" d="M117.139,174.446a61.862,61.862,0,0,1-10.951,3.7,60.68,60.68,0,0,1-8.172,1.362,59.8,59.8,0,0,1-6.279.334A61.531,61.531,0,0,1,85,179.492a62.335,62.335,0,0,1-21.364-6.272l-4.617-2.3-4.045,3.18a27.371,27.371,0,0,1-32.193,1.171L41.986,156l-3.48-5.448a62.914,62.914,0,0,1-7.321-16.222,61.566,61.566,0,0,1-2.35-13.532c-.068-.926-.1-1.859-.116-2.792V117.1A62.86,62.86,0,0,1,56.138,65.01a61.233,61.233,0,0,1,6.688-3.991A73.709,73.709,0,0,1,70.181,40.71c-2.247.627-4.461,1.362-6.62,2.179-.96.361-1.907.742-2.854,1.144A77.77,77.77,0,0,0,51.9,48.46a79.029,79.029,0,0,0-38.738,79.069,77.564,77.564,0,0,0,2.806,12.64,78.524,78.524,0,0,0,5.51,13.362L0,175.12l4.849,5.707c.736.851,1.532,1.764,2.452,2.724a43.675,43.675,0,0,0,53.53,6.32,77.911,77.911,0,0,0,29.632,6.272h1.328a79.11,79.11,0,0,0,14.118-1.294q2.145-.388,4.236-.9a77.364,77.364,0,0,0,14.234-4.9A78.857,78.857,0,0,0,143.189,177a35.557,35.557,0,0,1-9.855,1.362,35.155,35.155,0,0,1-16.2-3.916Z" transform="translate(0 -12.992)" fill="#3ec430"/>
  <path id="Path_3845" data-name="Path 3845" d="M127.4,83.9a25.553,25.553,0,0,0,13.158-4.086c.47.756.967,1.491,1.485,2.2A29.966,29.966,0,0,0,158.156,93.2v14.172a7.491,7.491,0,1,0,14.983,0v-13.2a29.966,29.966,0,0,0,22.243-14.343A27.078,27.078,0,0,0,201.77,82.8a22.978,22.978,0,0,0,6.763,1.1c8.915,0,21.351-7.975,21.351-20.962C229.883,28.294,202.172.1,168.072.01h-.211a61.607,61.607,0,0,0-49.314,25.069,63.337,63.337,0,0,0-12.5,37.859C106.05,75.926,118.486,83.9,127.4,83.9Zm87.5-20.962c0,3.793-4.829,5.98-6.368,5.98-2.132,0-7.171-1.948-7.852-4.951a34.266,34.266,0,0,0,.191-3.487c0-8.663-3.405-22.978-8.254-34.822q-1.022-2.479-2.043-4.726A48.136,48.136,0,0,1,214.9,62.938Zm-46.91-47.952c1.137.306,5.8,3.827,11.142,17.189a110.915,110.915,0,0,1,5.721,19.416,49.984,49.984,0,0,1,1.069,8.854,9.443,9.443,0,0,1-.034.967,7.532,7.532,0,0,0-.238,1.846v.334a21.909,21.909,0,0,1-3.793,9.535c-.293.4-.6.776-.926,1.137-3.1,3.528-7.348,5.258-12.94,5.278-13.56,0-16.869-10.7-17.707-16.079v-.177a7.492,7.492,0,0,0-.232-1.8c-.034-.558-.041-.919-.041-1.015a61.735,61.735,0,0,1,2.084-13.5A113.052,113.052,0,0,1,156.8,32.189c.109-.266.211-.531.32-.79C162.372,18.664,166.88,15.286,167.991,14.986Zm-22.563,5.925q-1.056,2.247-2.043,4.726c-.143.347-.286.681-.422,1.056a127.481,127.481,0,0,0-5.033,15.562,79.189,79.189,0,0,0-2.8,18.2c0,1.165.068,2.343.184,3.507-.681,2.99-5.721,4.931-7.846,4.931-1.539,0-6.368-2.186-6.368-5.98a48.429,48.429,0,0,1,5.19-21.889A47.877,47.877,0,0,1,138.4,25.8a46.114,46.114,0,0,1,6.994-4.869Z" transform="translate(-33.826 -0.01)" fill="#3ec430"/>
  <path id="Path_3846" data-name="Path 3846" d="M219.383,179.87a7.491,7.491,0,0,0-7.491,7.491,9.535,9.535,0,1,1-19.069,0,7.491,7.491,0,1,0-14.983,0,9.535,9.535,0,1,1-19.035,0,7.491,7.491,0,1,0-14.983,0,9.535,9.535,0,1,1-19.069,0,7.491,7.491,0,1,0-14.983,0,24.517,24.517,0,0,0,41.543,17.612,24.436,24.436,0,0,0,34.018,0,24.506,24.506,0,0,0,41.543-17.625A7.491,7.491,0,0,0,219.383,179.87Z" transform="translate(-35.012 -57.378)" fill="#3ec430"/>
  <ellipse id="Ellipse_138" data-name="Ellipse 138" cx="8.011" cy="8.011" rx="8.011" ry="8.011" transform="matrix(0.987, -0.16, 0.16, 0.987, 154.178, 99.936)" fill="#3ec430"/>
  <text id="Leisure" transform="translate(54.102 249.575)" fill="#3ec430" font-size="26" font-family="SegoeUI-Bold, Segoe UI" font-weight="700"><tspan x="0" y="0">Leisu</tspan><tspan y="0" letter-spacing="-0.01em">r</tspan><tspan y="0">e</tspan></text>
  <path id="Path_3847" data-name="Path 3847" d="M78.6,161.2a39.97,39.97,0,0,1,1.253-39.861" transform="translate(-23.565 -38.709)" fill="none" stroke="#3ec430" stroke-linecap="round" stroke-miterlimit="10" stroke-width="17"/>
</svg>
