<svg xmlns="http://www.w3.org/2000/svg" width="171.4" height="198.572" viewBox="0 0 171.4 198.572">
  <g id="seedcash-au-icons-11" transform="translate(-1)">
    <text id="Vehicle_Expenses" data-name="Vehicle Expenses" transform="translate(1 193.572)" fill="#3ec430" font-size="19" font-family="SegoeUI-Bold, Segoe UI" font-weight="700"><tspan x="0" y="0" letter-spacing="-0.07em">V</tspan><tspan y="0">ehicle Expenses</tspan></text>
    <path id="Path_3896" data-name="Path 3896" d="M226.566,45.781a32.9,32.9,0,0,0-4.846-40.3c-.708-.708-1.426-1.328-2.051-1.841L215.386,0,199.181,16.2A59.438,59.438,0,0,0,129.47,27.047l10.7,6.723a47.181,47.181,0,0,1,56.751-4.739l4.139,2.61L215.54,17.165a20.621,20.621,0,0,1-.831,24.247l-2.39,3.077,1.733,3.467a46.935,46.935,0,0,1,4.734,26.473l11.083,7.888a59.362,59.362,0,0,0-3.308-36.509Z" transform="translate(-63.134)" fill="#3ec430"/>
    <path id="Path_3897" data-name="Path 3897" d="M72.482,82.563a4.939,4.939,0,0,0-4.026-4.031,5.127,5.127,0,0,0-.836-.056h-4.9a18.149,18.149,0,0,0-1.687-4.046L64.5,70.958h0a4.923,4.923,0,0,0-6.3-7.529,5.042,5.042,0,0,0-.631.549h0L54.1,67.445a18.149,18.149,0,0,0-4.1-1.692v-4.9h0a4.923,4.923,0,0,0-9.775-.831,5.129,5.129,0,0,0-.062.831h0v4.9a18.19,18.19,0,0,0-4.067,1.687l-3.467-3.467h0a4.923,4.923,0,0,0-7.513,6.354,4.99,4.99,0,0,0,.549.631h0l3.462,3.472a18.462,18.462,0,0,0-1.692,4.041h-4.9a4.923,4.923,0,0,0-.836,9.806,5.22,5.22,0,0,0,.836.062h4.9a18.3,18.3,0,0,0,1.692,4.041l-3.472,3.467h0a4.923,4.923,0,0,0,6.318,7.5,5.1,5.1,0,0,0,.636-.549h0l3.467-3.467a18.087,18.087,0,0,0,4.067,1.687v4.9h0a4.923,4.923,0,0,0,9.775.831,4.616,4.616,0,0,0,.062-.831h0v-4.9a18.15,18.15,0,0,0,4.062-1.687L57.5,102.8h0a4.923,4.923,0,0,0,7.544-6.318,5.437,5.437,0,0,0-.549-.631h0l-3.462-3.472a18.191,18.191,0,0,0,1.687-4.067h4.9a4.934,4.934,0,0,0,4.862-5.749ZM45.076,90.441A7.041,7.041,0,1,1,52.117,83.4,7.041,7.041,0,0,1,45.076,90.441Z" transform="translate(-8.515 -27.248)" fill="#3ec430"/>
    <path id="Path_3898" data-name="Path 3898" d="M68.776,256.213A18.626,18.626,0,1,1,87.4,237.586,18.626,18.626,0,0,1,68.776,256.213Zm0-25.97a7.334,7.334,0,1,1,0,.021Z" transform="translate(-24.493 -106.668)" fill="#3ec430"/>
    <path id="Path_3899" data-name="Path 3899" d="M255.066,256.213a18.626,18.626,0,1,1,18.626-18.626A18.626,18.626,0,0,1,255.066,256.213Zm0-25.97a7.345,7.345,0,1,1,0,.021Z" transform="translate(-115.245 -106.668)" fill="#3ec430"/>
    <path id="Path_3900" data-name="Path 3900" d="M18.471,213.593a5.641,5.641,0,0,1-5.641-5.641v-7.313a32.309,32.309,0,0,1,2.692-12.308c3.513-8.267,13.334-22.145,39.689-22.145,8.375,0,13.436-2.59,19.847-5.872,8.016-4.1,17.1-8.754,33.735-8.754,14.908,0,42.2,2.764,57.536,21.268a5.641,5.641,0,1,1-8.688,7.18c-9.047-10.877-26.852-17.144-48.823-17.144-13.913,0-21.027,3.651-28.591,7.518-6.836,3.492-13.9,7.108-24.991,7.108-18.852,0-26.345,8.313-29.309,15.283a21.6,21.6,0,0,0-1.79,7.867v7.313a5.641,5.641,0,0,1-5.667,5.641Z" transform="translate(-6.312 -73.834)" fill="#3ec430"/>
    <path id="Path_3901" data-name="Path 3901" d="M141.954,233.389a5.641,5.641,0,0,1-5.611-5.047c-.359-3.333-2.159-12.974-6.1-17.436a5.651,5.651,0,1,1,8.462-7.493,29.1,29.1,0,0,1,4.616,7.467c11.062-11.375,31.847-14.4,36.781-14.4a5.641,5.641,0,0,1,2.8,10.534c-.39.236-10.565,6.457-10.565,20.714a5.641,5.641,0,0,1-11.283,0,36.719,36.719,0,0,1,3.826-16.678c-8.477,2.928-17.273,8.1-17.273,16.678a5.641,5.641,0,0,1-5.344,5.641Z" transform="translate(-62.818 -95.717)" fill="#3ec430"/>
    <path id="Path_3902" data-name="Path 3902" d="M182.521,109.773H146.2a5.641,5.641,0,1,1,0-11.283h36.319a5.641,5.641,0,1,1,0,11.283Z" transform="translate(-68.536 -47.98)" fill="#3ec430"/>
    <path id="Path_3903" data-name="Path 3903" d="M230.131,110.323A16.826,16.826,0,1,1,246.953,93.5,16.826,16.826,0,0,1,230.131,110.323Zm0-22.365A5.544,5.544,0,1,0,235.67,93.5a5.544,5.544,0,0,0-5.539-5.544Z" transform="translate(-103.972 -37.35)" fill="#3ec430"/>
    <path id="Path_3904" data-name="Path 3904" d="M309.073,153.04a5.6,5.6,0,0,1-3.267-1.026l-11.082-7.929a5.641,5.641,0,1,1,6.534-9.17L312.34,142.8a5.641,5.641,0,0,1-3.277,10.257Z" transform="translate(-142.338 -65.109)" fill="#3ec430"/>
  </g>
</svg>
