<svg id="seedcash-au-icons-09" xmlns="http://www.w3.org/2000/svg" width="218.557" height="286.586" viewBox="0 0 218.557 286.586">
  <path id="Path_3884" data-name="Path 3884" d="M185.956,191.962,185.83,175.6a63.861,63.861,0,1,0,0-127.723l.126-16.358a80.223,80.223,0,1,1,0,160.446Z" transform="translate(-47.625 -8.078)" fill="#50b748"/>
  <path id="Path_3885" data-name="Path 3885" d="M215.131,115.013a7.437,7.437,0,0,1-7.437-7.437c0-3.116-3.942-9.668-16.124-10.033A7.44,7.44,0,0,1,192,82.669c19.857.58,30.567,13.26,30.567,24.9a7.437,7.437,0,0,1-7.437,7.445Z" transform="translate(-47.244 -21.186)" fill="#50b748"/>
  <path id="Path_3886" data-name="Path 3886" d="M191.51,179.019c-.937,0-1.785,0-2.588-.074a7.453,7.453,0,0,1,.982-14.874c.476,0,1,.045,1.606.045,9.029,0,15.618-4.358,15.618-10.412,0-5.377-3.719-7.274-18.831-9.668-1.978-.312-4.09-.647-6.188-1.026a7.437,7.437,0,1,1,2.581-14.54c1.934.35,3.949.669,5.846.967,12.509,1.956,31.407,4.916,31.407,24.334C221.965,168.2,208.868,179.019,191.51,179.019Z" transform="translate(-44.871 -32.841)" fill="#50b748"/>
  <path id="Path_3887" data-name="Path 3887" d="M191.787,200.187a7.437,7.437,0,0,1-7.437-7.437v-8.843a7.437,7.437,0,0,1,14.874,0v8.843A7.437,7.437,0,0,1,191.787,200.187Z" transform="translate(-47.246 -45.226)" fill="#50b748"/>
  <path id="Path_3888" data-name="Path 3888" d="M191.787,94.4a7.437,7.437,0,0,1-7.437-7.437V77.857a7.437,7.437,0,1,1,14.874,0v9.111A7.437,7.437,0,0,1,191.787,94.4Z" transform="translate(-47.246 -18.047)" fill="#50b748"/>
  <path id="Path_3889" data-name="Path 3889" d="M102.044,99.023a9.014,9.014,0,1,0-6.393-2.63A9.021,9.021,0,0,0,102.044,99.023Z" transform="translate(-23.834 -20.754)" fill="#50b748"/>
  <ellipse id="Ellipse_140" data-name="Ellipse 140" cx="9.014" cy="9.014" rx="9.014" ry="9.014" transform="translate(69.196 94.653)" fill="#50b748"/>
  <path id="Path_3890" data-name="Path 3890" d="M102.044,191.563a9.014,9.014,0,1,0-6.393-2.63A9.021,9.021,0,0,0,102.044,191.563Z" transform="translate(-23.834 -44.47)" fill="#50b748"/>
  <path id="Path_3891" data-name="Path 3891" d="M26.34,103.667a103.176,103.176,0,0,0,20.036,61.268L27.106,184.2l5.288,6.24c.788.937,1.658,1.934,2.67,2.975a47.7,47.7,0,0,0,58.114,7.214h0A103.376,103.376,0,0,0,130,207.326V0A103.665,103.665,0,0,0,26.34,103.659Zm88.049,86.673a85.062,85.062,0,0,1-8.783-2.045,86.465,86.465,0,0,1-16.481-6.6l-1.956,1.532a29.957,29.957,0,0,1-35.163,1.212l17.15-17.15c-.476-.446-.945-.907-1.406-1.368A88.079,88.079,0,0,1,114.389,16.987Z" transform="translate(-6.75)" fill="#50b748"/>
  <text id="No_Hidden_Cost" data-name="No Hidden Cost" transform="translate(0 279.586)" fill="#50b748" font-size="29" font-family="SegoeUI-Bold, Segoe UI" font-weight="700"><tspan x="0" y="0">No Hidden Co</tspan><tspan y="0" letter-spacing="-0.01em">s</tspan><tspan y="0">t</tspan></text>
</svg>
