<svg id="seedcash-au-icons-02" xmlns="http://www.w3.org/2000/svg" width="71.149" height="91.223" viewBox="0 0 71.149 91.223">
  <path id="Path_3844" data-name="Path 3844" d="M42.509,89.242a22.45,22.45,0,0,1-3.974,1.344,22.02,22.02,0,0,1-2.966.494,21.7,21.7,0,0,1-2.279.121,22.329,22.329,0,0,1-2.444-.129A22.621,22.621,0,0,1,23.093,88.8l-1.676-.833L19.95,89.119a9.933,9.933,0,0,1-11.683.425l6.97-6.994-1.263-1.977a22.831,22.831,0,0,1-2.657-5.887,22.342,22.342,0,0,1-.853-4.911c-.025-.336-.037-.675-.042-1.013V68.43a22.812,22.812,0,0,1,9.95-18.9A22.22,22.22,0,0,1,22.8,48.08a26.749,26.749,0,0,1,2.669-7.37c-.816.227-1.619.494-2.4.791-.348.131-.692.269-1.036.415a28.223,28.223,0,0,0-3.2,1.606A28.679,28.679,0,0,0,4.775,72.216,28.147,28.147,0,0,0,5.793,76.8a28.5,28.5,0,0,0,2,4.849L0,89.487l1.76,2.071c.267.309.556.64.89.989A15.85,15.85,0,0,0,22.075,94.84a28.274,28.274,0,0,0,10.753,2.276h.482a28.708,28.708,0,0,0,5.123-.47q.779-.141,1.537-.326a28.075,28.075,0,0,0,5.165-1.779,28.617,28.617,0,0,0,6.826-4.372,12.9,12.9,0,0,1-3.576.494,12.758,12.758,0,0,1-5.877-1.421Z" transform="translate(0 -30.651)" fill="#62c988"/>
  <path id="Path_3845" data-name="Path 3845" d="M113.8,30.454a9.273,9.273,0,0,0,4.775-1.483c.171.274.351.541.539.8a10.874,10.874,0,0,0,5.848,4.061v5.143a2.719,2.719,0,1,0,5.437,0v-4.79a10.874,10.874,0,0,0,8.072-5.2,9.826,9.826,0,0,0,2.318,1.075,8.338,8.338,0,0,0,2.454.4c3.235,0,7.748-2.894,7.748-7.607A22.691,22.691,0,0,0,128.558.01h-.077a22.357,22.357,0,0,0-17.9,9.1,22.985,22.985,0,0,0-4.535,13.739C106.05,27.56,110.563,30.454,113.8,30.454Zm31.753-7.607c0,1.377-1.752,2.17-2.311,2.17-.774,0-2.6-.707-2.85-1.8a12.431,12.431,0,0,0,.069-1.265c0-3.144-1.236-8.339-3-12.637q-.371-.9-.741-1.715A17.468,17.468,0,0,1,145.552,22.846Zm-17.024-17.4c.413.111,2.106,1.389,4.043,6.238a40.251,40.251,0,0,1,2.076,7.046,18.138,18.138,0,0,1,.388,3.213,3.421,3.421,0,0,1-.012.351,2.734,2.734,0,0,0-.087.67v.121a7.951,7.951,0,0,1-1.377,3.46c-.106.143-.218.282-.336.413a5.91,5.91,0,0,1-4.7,1.915c-4.921,0-6.122-3.883-6.426-5.835v-.064a2.718,2.718,0,0,0-.084-.652c-.012-.2-.015-.334-.015-.368a22.4,22.4,0,0,1,.756-4.9,41.027,41.027,0,0,1,1.708-5.366c.04-.1.077-.193.116-.287C126.489,6.779,128.125,5.554,128.528,5.445Zm-8.188,2.15q-.383.816-.741,1.715c-.052.126-.1.247-.153.383a46.259,46.259,0,0,0-1.826,5.647,28.737,28.737,0,0,0-1.016,6.606c0,.423.025.85.067,1.273-.247,1.085-2.076,1.789-2.847,1.789-.559,0-2.311-.793-2.311-2.17A17.575,17.575,0,0,1,113.4,14.9a17.374,17.374,0,0,1,4.394-5.526A16.735,16.735,0,0,1,120.328,7.6Z" transform="translate(-79.84 -0.01)" fill="#62c988"/>
  <path id="Path_3846" data-name="Path 3846" d="M149.548,179.87a2.719,2.719,0,0,0-2.719,2.719,3.46,3.46,0,1,1-6.92,0,2.719,2.719,0,0,0-5.437,0,3.46,3.46,0,1,1-6.908,0,2.719,2.719,0,1,0-5.437,0,3.46,3.46,0,1,1-6.92,0,2.719,2.719,0,0,0-5.437,0,8.9,8.9,0,0,0,15.076,6.391,8.868,8.868,0,0,0,12.345,0,8.893,8.893,0,0,0,15.076-6.4A2.719,2.719,0,0,0,149.548,179.87Z" transform="translate(-82.641 -135.418)" fill="#62c988"/>
  <ellipse id="Ellipse_138" data-name="Ellipse 138" cx="2.907" cy="2.907" rx="2.907" ry="2.907" transform="matrix(0.987, -0.16, 0.16, 0.987, 55.951, 36.267)" fill="#62c988"/>
  <text id="Leisure" transform="translate(19.633 88.223)" fill="#62c988" font-size="12" font-family="SegoeUI-Bold, Segoe UI" font-weight="700"><tspan x="0" y="0">Leisu</tspan><tspan y="0" letter-spacing="-0.01em">r</tspan><tspan y="0">e</tspan></text>
  <path id="Path_3847" data-name="Path 3847" d="M75.592,135.806a14.505,14.505,0,0,1,.455-14.466" transform="translate(-55.62 -91.354)" fill="none" stroke="#62c988" stroke-linecap="round" stroke-miterlimit="10" stroke-width="6"/>
</svg>
