<svg xmlns="http://www.w3.org/2000/svg" width="94" height="94.093" viewBox="0 0 94 94.093">
  <g id="seedcash-au-icons-11" transform="translate(6)">
    <text id="Vehicle_Expenses" data-name="Vehicle Expenses" transform="translate(-6 91.093)" fill="#67c69a" font-size="12" font-family="SegoeUI-Bold, Segoe UI" font-weight="700"><tspan x="0" y="0" letter-spacing="-0.07em">V</tspan><tspan y="0">ehicle Expenses</tspan></text>
    <path id="Path_3896" data-name="Path 3896" d="M176.262,22.063a15.855,15.855,0,0,0-2.336-19.421c-.341-.341-.687-.64-.989-.887L170.875,0l-7.81,7.807a28.644,28.644,0,0,0-33.595,5.227l5.158,3.24a22.738,22.738,0,0,1,27.349-2.284l1.994,1.258,6.977-6.977a9.938,9.938,0,0,1-.4,11.685L169.4,21.44l.835,1.671a22.619,22.619,0,0,1,2.281,12.758l5.341,3.8a28.607,28.607,0,0,0-1.594-17.594Z" transform="translate(-97.501)" fill="#67c69a"/>
    <path id="Path_3897" data-name="Path 3897" d="M43.921,68.767a2.38,2.38,0,0,0-1.94-1.943,2.471,2.471,0,0,0-.4-.027h-2.36a8.747,8.747,0,0,0-.813-1.95l1.671-1.673h0a2.373,2.373,0,0,0-3.037-3.628,2.431,2.431,0,0,0-.3.264h0L35.06,61.481a8.747,8.747,0,0,0-1.977-.816V58.3h0a2.373,2.373,0,0,0-4.711-.4,2.471,2.471,0,0,0-.03.4h0v2.363a8.766,8.766,0,0,0-1.96.813l-1.671-1.671h0a2.373,2.373,0,0,0-3.621,3.062,2.4,2.4,0,0,0,.264.3h0l1.668,1.673a8.9,8.9,0,0,0-.816,1.948h-2.36a2.373,2.373,0,0,0-.4,4.725,2.516,2.516,0,0,0,.4.03h2.36a8.82,8.82,0,0,0,.816,1.948l-1.673,1.671h0A2.373,2.373,0,0,0,24.4,78.784a2.457,2.457,0,0,0,.306-.264h0l1.671-1.671a8.716,8.716,0,0,0,1.96.813v2.363h0a2.373,2.373,0,0,0,4.711.4,2.226,2.226,0,0,0,.03-.4h0V77.661a8.747,8.747,0,0,0,1.957-.813L36.7,78.519h0a2.373,2.373,0,0,0,3.636-3.045,2.621,2.621,0,0,0-.264-.3h0L38.4,73.5a8.766,8.766,0,0,0,.813-1.96h2.36a2.378,2.378,0,0,0,2.343-2.771Zm-13.208,3.8a3.393,3.393,0,1,1,3.393-3.393A3.393,3.393,0,0,1,30.713,72.563Z" transform="translate(-13.094 -42.109)" fill="#67c69a"/>
    <path id="Path_3898" data-name="Path 3898" d="M59.126,236.913a8.976,8.976,0,1,1,8.976-8.976A8.976,8.976,0,0,1,59.126,236.913Zm0-12.516a3.534,3.534,0,1,1,0,.01Z" transform="translate(-37.785 -164.845)" fill="#67c69a"/>
    <path id="Path_3899" data-name="Path 3899" d="M245.416,236.913a8.976,8.976,0,1,1,8.976-8.976A8.976,8.976,0,0,1,245.416,236.913Zm0-12.516a3.54,3.54,0,1,1,0,.01Z" transform="translate(-178.034 -164.845)" fill="#67c69a"/>
    <path id="Path_3900" data-name="Path 3900" d="M15.549,181.455a2.719,2.719,0,0,1-2.719-2.719v-3.524a15.57,15.57,0,0,1,1.3-5.932c1.693-3.984,6.426-10.672,19.127-10.672,4.036,0,6.475-1.248,9.565-2.83a31.6,31.6,0,0,1,16.257-4.219c7.185,0,20.338,1.332,27.727,10.249a2.719,2.719,0,1,1-4.187,3.46c-4.36-5.242-12.941-8.262-23.528-8.262-6.705,0-10.133,1.76-13.778,3.623-3.294,1.683-6.7,3.425-12.043,3.425-9.085,0-12.7,4.006-14.124,7.365a10.41,10.41,0,0,0-.863,3.791v3.524a2.719,2.719,0,0,1-2.731,2.719Z" transform="translate(-9.689 -114.102)" fill="#67c69a"/>
    <path id="Path_3901" data-name="Path 3901" d="M135.15,214.267a2.719,2.719,0,0,1-2.7-2.432c-.173-1.606-1.04-6.253-2.941-8.4a2.723,2.723,0,1,1,4.078-3.611,14.023,14.023,0,0,1,2.224,3.6c5.331-5.482,15.348-6.94,17.725-6.94a2.719,2.719,0,0,1,1.349,5.076,11.71,11.71,0,0,0-5.091,9.982,2.719,2.719,0,0,1-5.437,0A17.7,17.7,0,0,1,146.2,203.5c-4.085,1.411-8.324,3.9-8.324,8.037a2.719,2.719,0,0,1-2.575,2.719Z" transform="translate(-97.013 -147.92)" fill="#67c69a"/>
    <path id="Path_3902" data-name="Path 3902" d="M160.782,103.927h-17.5a2.719,2.719,0,0,1,0-5.437h17.5a2.719,2.719,0,1,1,0,5.437Z" transform="translate(-105.851 -74.148)" fill="#67c69a"/>
    <path id="Path_3903" data-name="Path 3903" d="M221.411,92.888a8.109,8.109,0,1,1,8.106-8.107A8.109,8.109,0,0,1,221.411,92.888Zm0-10.778a2.672,2.672,0,1,0,2.669,2.672,2.672,2.672,0,0,0-2.669-2.672Z" transform="translate(-160.613 -57.721)" fill="#67c69a"/>
    <path id="Path_3904" data-name="Path 3904" d="M300.256,142.994a2.7,2.7,0,0,1-1.574-.494l-5.341-3.821a2.719,2.719,0,1,1,3.149-4.419l5.341,3.8A2.719,2.719,0,0,1,300.251,143Z" transform="translate(-219.904 -100.619)" fill="#67c69a"/>
  </g>
</svg>
