<svg id="seedcash-au-icons-01" xmlns="http://www.w3.org/2000/svg" width="223.182" height="267.878" viewBox="0 0 223.182 267.878">
  <path id="Path_3840" data-name="Path 3840" d="M209.677,115.338a22.386,22.386,0,0,1-1.651,8.493c-3.466,8.464-12.063,14.592-23.055,16.109V143.7a7.437,7.437,0,1,1-14.874,0v-4.4c-10.2-2.231-18.147-7.995-21.4-15.469a18.98,18.98,0,0,1-1.614-7.653,7.437,7.437,0,1,1,14.874,0c0,3.057,3.354,5.95,8.181,7.653a28.492,28.492,0,0,0,9.49,1.6,21.992,21.992,0,0,0,8.56-1.6c4.1-1.748,6.649-4.8,6.649-8.493,0-5.206-3.436-7.013-18.333-9.356l-.327-.052c-6.574-1.026-13.387-2.09-18.98-4.856-6.805-3.354-9.847-8.278-11.059-12.941a22.616,22.616,0,0,1-.744-5.742c0-12.643,10.412-22.854,24.706-25.175v-3.89a7.437,7.437,0,1,1,14.874,0v4.217c14.978,2.975,22.966,13.677,22.966,23.8a7.437,7.437,0,0,1-14.874,0c0-3.183-4.1-9.765-16.763-9.765-8.843,0-16.035,4.842-16.035,10.8,0,2.67,1.019,4.373,4.358,5.742,2.759,1.138,7.125,2.053,13.818,3.1s13.6,2.127,19.337,4.983a20.876,20.876,0,0,1,9.951,9.765A21.761,21.761,0,0,1,209.677,115.338Z" transform="translate(-37.261 -11.742)" fill="#50b748"/>
  <text id="Super_Fast_Cash" data-name="Super Fast Cash" transform="translate(0 260.878)" fill="#50b748" font-size="29" font-family="SegoeUI-Bold, Segoe UI" font-weight="700"><tspan x="0" y="0">Super </tspan><tspan y="0" letter-spacing="-0.03em">F</tspan><tspan y="0">a</tspan><tspan y="0" letter-spacing="-0.01em">s</tspan><tspan y="0">t Cash</tspan></text>
  <path id="Path_3841" data-name="Path 3841" d="M39.634,198.49a9.014,9.014,0,1,0,9.014,9.014,9.014,9.014,0,0,0-9.014-9.014Z" transform="translate(-7.847 -50.851)" fill="#50b748"/>
  <path id="Path_3842" data-name="Path 3842" d="M89.023,168.539H29.035a8.925,8.925,0,0,1-8.925-8.925h0a8.925,8.925,0,0,1,8.925-8.925H78.38A68.637,68.637,0,0,0,89.023,168.539Z" transform="translate(-5.154 -38.6)" fill="#50b748"/>
  <path id="Path_3843" data-name="Path 3843" d="M227.756,76.366A86.405,86.405,0,0,0,89.425,17.761H20.11v8.925a62.9,62.9,0,0,0,6.225,25.368C30.946,61.373,39.6,72.067,55.593,76.4l.513.141a86.784,86.784,0,0,0-.565,9.884q0,3.964.357,7.824H73.836a67.916,67.916,0,0,1-.446-7.824,66.687,66.687,0,0,1,.476-8.04q.112-1,.268-1.986A67.24,67.24,0,0,1,78.47,60.532H71.4a41.648,41.648,0,0,1-11.446-1.487,27.118,27.118,0,0,1-17.4-14.48,41.239,41.239,0,0,1-3.295-8.925H95.939a68.534,68.534,0,0,1,114.1,58.605,67.536,67.536,0,0,1-4.544,17.849,68.519,68.519,0,0,1-94.065,35.7H69.686a8.925,8.925,0,0,0,0,17.849h37.736a86.271,86.271,0,0,0,120.557-71.4q.357-3.86.357-7.824a85.807,85.807,0,0,0-.58-10.055Z" transform="translate(-5.154 0.025)" fill="#50b748"/>
</svg>
