<svg id="seedcash-au-icons-05" xmlns="http://www.w3.org/2000/svg" width="71.822" height="93.356" viewBox="0 0 71.822 93.356">
  <text id="Education" transform="translate(6.712 90.356)" fill="#67c69a" font-size="12" font-family="SegoeUI-Bold, Segoe UI" font-weight="700"><tspan x="0" y="0">Educ</tspan><tspan y="0" letter-spacing="-0.01em">a</tspan><tspan y="0">tion</tspan></text>
  <path id="Path_3860" data-name="Path 3860" d="M62.009,138.4l-1.755,2.076c-.247.294-.549.64-.887.989A15.854,15.854,0,0,1,39.946,143.8a28.365,28.365,0,0,1-11.23,2.306A28.721,28.721,0,0,1,5.884,99.92v17.461a22.859,22.859,0,0,0,22.831,22.8,22.569,22.569,0,0,0,10.2-2.434l1.666-.833,1.468,1.152a9.94,9.94,0,0,0,11.688.4L46.76,131.5l1.256-1.994a22.435,22.435,0,0,0,1.112-1.977h6.455a28.852,28.852,0,0,1-1.382,3.06Z" transform="translate(0.033 -75.225)" fill="#67c69a"/>
  <path id="Path_3861" data-name="Path 3861" d="M46.4,45.589a2.719,2.719,0,0,0,2.719-2.719V26.292c0-4.117,3.235-6.243,6.673-6.243H73.616a2.719,2.719,0,0,0,2.719-2.59V17.33a2.719,2.719,0,0,0-2.719-2.719H62.292L64.1,13.5l7.036-4.328,4.543-2.793L94.3,17.837l-10.264,6.32L78.949,27.28l-3.272,2.012L69.5,25.486H59.118l4.7,2.892,11.863,7.3,6.3-3.875,5.042-3.1.524-.321,6.028-3.707,11.122-6.834L75.677,0,60.757,9.174l-4.421,2.719-6.72,4.132-.608.373a11.084,11.084,0,0,0-2.039,1.629,11.616,11.616,0,0,0-3.292,8.265V42.87A2.719,2.719,0,0,0,46.4,45.589Z" transform="translate(-32.873)" fill="#67c69a"/>
  <path id="Path_3862" data-name="Path 3862" d="M126.556,121.65a2.719,2.719,0,0,0-2.719,2.719v8.65H91.817v-8.65a2.719,2.719,0,1,0-5.437,0v14.087h42.895V124.369A2.719,2.719,0,0,0,126.556,121.65Z" transform="translate(-65.023 -91.585)" fill="#67c69a"/>
  <path id="Path_3863" data-name="Path 3863" d="M86.412,206.839a2.9,2.9,0,1,0,2.368-2.368A2.9,2.9,0,0,0,86.412,206.839Z" transform="translate(-65.015 -153.905)" fill="#67c69a"/>
</svg>
