<svg xmlns="http://www.w3.org/2000/svg" width="312.351" height="235.194" viewBox="0 0 312.351 235.194">
  <g id="seedcash-au-icons-08" transform="translate(-1415 262)">
    <path id="Path_3877" data-name="Path 3877" d="M24.53,69.834a69.913,69.913,0,1,1,131.914,32.191l18.994,19-4.269,5.045c-.6.709-1.329,1.551-2.158,2.405a38.57,38.57,0,0,1-47.246,5.682,68.982,68.982,0,0,1-27.321,5.61A69.992,69.992,0,0,1,24.53,69.834Zm102.357,50.4a24.176,24.176,0,0,0,28.427.98l-16.973-16.973,3.06-4.858a55.688,55.688,0,1,0-22.162,20.088l4.07-2.038Z" transform="translate(1405.219 -261.802)" fill="#50b748"/>
    <path id="Path_3878" data-name="Path 3878" d="M175,115.507a7.293,7.293,0,1,0,7.293-7.287A7.293,7.293,0,0,0,175,115.507Z" transform="translate(1345.219 -305.033)" fill="#50b748"/>
    <ellipse id="Ellipse_139" data-name="Ellipse 139" cx="7.287" cy="7.287" rx="7.287" ry="7.287" transform="translate(1492.375 -196.813)" fill="#50b748"/>
    <path id="Path_3879" data-name="Path 3879" d="M82.41,115.507A7.293,7.293,0,1,0,89.7,108.22,7.293,7.293,0,0,0,82.41,115.507Z" transform="translate(1382.139 -305.033)" fill="#50b748"/>
    <path id="Path_3880" data-name="Path 3880" d="M321.75,190.486A38.57,38.57,0,0,1,274.5,184.8c-.818-.812-1.521-1.623-2.159-2.375l-4.275-5.051,19-18.994a70.04,70.04,0,1,1,34.68,32.107Zm-28.223-64.334a55.315,55.315,0,0,0,8.58,29.558l3.066,4.852L288.2,177.535a24.182,24.182,0,0,0,28.427-.98l3.577-2.8,4.064,2.038a54.972,54.972,0,0,0,24.8,5.9,55.544,55.544,0,1,0-55.544-55.544Z" transform="translate(1308.107 -284.215)" fill="#50b748"/>
    <path id="Path_3881" data-name="Path 3881" d="M433,168.888a5.772,5.772,0,1,0,1.691-4.087A5.778,5.778,0,0,0,433,168.888Z" transform="translate(1242.342 -326.921)" fill="#50b748"/>
    <path id="Path_3882" data-name="Path 3882" d="M396.34,168.888a5.772,5.772,0,1,0,1.688-4.085A5.778,5.778,0,0,0,396.34,168.888Z" transform="translate(1256.96 -326.921)" fill="#50b748"/>
    <path id="Path_3883" data-name="Path 3883" d="M359.67,168.888a5.772,5.772,0,1,0,1.691-4.087A5.778,5.778,0,0,0,359.67,168.888Z" transform="translate(1271.582 -326.921)" fill="#50b748"/>
    <text id="No_Face-to-Face_Interview" data-name="No Face-to-Face Interview" transform="translate(1415 -32.806)" fill="#50b748" font-size="23" font-family="SegoeUI-Bold, Segoe UI" font-weight="700"><tspan x="0" y="0">No </tspan><tspan y="0" letter-spacing="-0.03em">F</tspan><tspan y="0">ace-to-</tspan><tspan y="0" letter-spacing="-0.03em">F</tspan><tspan y="0">ace I</tspan><tspan y="0" letter-spacing="-0.01em">n</tspan><tspan y="0">terview</tspan></text>
  </g>
</svg>
