<svg id="seedcash-au-icons-09" xmlns="http://www.w3.org/2000/svg" width="176.69" height="232.009" viewBox="0 0 176.69 232.009">
  <path id="Path_3884" data-name="Path 3884" d="M185.932,161.228,185.83,148a51.628,51.628,0,1,0,0-103.256l.1-13.225a64.856,64.856,0,1,1,0,129.711Z" transform="translate(-74.1 -12.569)" fill="#50b748"/>
  <path id="Path_3885" data-name="Path 3885" d="M209.234,108.817a6.013,6.013,0,0,1-6.012-6.013c0-2.519-3.187-7.816-13.035-8.111a6.015,6.015,0,0,1,.349-12.025c16.053.469,24.711,10.72,24.711,20.13a6.012,6.012,0,0,1-6.012,6.019Z" transform="translate(-73.508 -32.963)" fill="#50b748"/>
  <path id="Path_3886" data-name="Path 3886" d="M188.363,169.274c-.758,0-1.443,0-2.092-.06a6.026,6.026,0,0,1,.794-12.025c.385,0,.812.036,1.3.036,7.3,0,12.626-3.523,12.626-8.418,0-4.347-3.006-5.88-15.224-7.816-1.6-.253-3.307-.523-5-.83a6.013,6.013,0,1,1,2.086-11.754c1.563.283,3.193.541,4.726.782,10.113,1.581,25.391,3.974,25.391,19.673C212.984,160.525,202.4,169.274,188.363,169.274Z" transform="translate(-69.814 -51.098)" fill="#50b748"/>
  <path id="Path_3887" data-name="Path 3887" d="M190.363,195.644a6.013,6.013,0,0,1-6.013-6.013v-7.149a6.013,6.013,0,0,1,12.025,0v7.149A6.013,6.013,0,0,1,190.363,195.644Z" transform="translate(-73.509 -70.367)" fill="#50b748"/>
  <path id="Path_3888" data-name="Path 3888" d="M190.363,89.81A6.013,6.013,0,0,1,184.35,83.8V76.433a6.013,6.013,0,1,1,12.025,0V83.8A6.013,6.013,0,0,1,190.363,89.81Z" transform="translate(-73.509 -28.08)" fill="#50b748"/>
  <path id="Path_3889" data-name="Path 3889" d="M100.311,95.566a7.287,7.287,0,1,0-5.168-2.126A7.293,7.293,0,0,0,100.311,95.566Z" transform="translate(-37.084 -32.291)" fill="#50b748"/>
  <ellipse id="Ellipse_140" data-name="Ellipse 140" cx="7.287" cy="7.287" rx="7.287" ry="7.287" transform="translate(55.94 76.521)" fill="#50b748"/>
  <path id="Path_3890" data-name="Path 3890" d="M100.311,188.106a7.287,7.287,0,1,0-5.168-2.126A7.293,7.293,0,0,0,100.311,188.106Z" transform="translate(-37.084 -69.191)" fill="#50b748"/>
  <path id="Path_3891" data-name="Path 3891" d="M26.34,83.808a83.412,83.412,0,0,0,16.2,49.531L26.959,148.918l4.275,5.045c.637.758,1.341,1.563,2.158,2.405A38.558,38.558,0,0,0,80.374,162.2h0a83.573,83.573,0,0,0,29.768,5.411V0a83.807,83.807,0,0,0-83.8,83.8Zm71.182,70.07a68.764,68.764,0,0,1-7.1-1.653A69.9,69.9,0,0,1,77.1,146.892l-1.581,1.239a24.218,24.218,0,0,1-28.427.98l13.865-13.865c-.385-.361-.764-.734-1.136-1.106a71.206,71.206,0,0,1,37.7-120.407Z" transform="translate(-10.503)" fill="#50b748"/>
  <text id="No_Hidden_Cost" data-name="No Hidden Cost" transform="translate(0 226.009)" fill="#50b748" font-size="23" font-family="SegoeUI-Bold, Segoe UI" font-weight="700"><tspan x="0" y="0">No Hidden Co</tspan><tspan y="0" letter-spacing="-0.01em">s</tspan><tspan y="0">t</tspan></text>
</svg>
