<svg id="seedcash-au-icons-04" xmlns="http://www.w3.org/2000/svg" width="70.633" height="96.592" viewBox="0 0 70.633 96.592">
  <text id="Life_Events" data-name="Life Events" transform="translate(8.938 93.592)" fill="#62c988" font-size="12" font-family="SegoeUI-Bold, Segoe UI" font-weight="700"><tspan x="0" y="0">Life Eve</tspan><tspan y="0" letter-spacing="-0.01em">n</tspan><tspan y="0">ts</tspan></text>
  <path id="Path_3854" data-name="Path 3854" d="M137.13,154.983a3,3,0,1,0,3-2.983,3,3,0,0,0-3,2.983Z" transform="translate(-103.221 -114.434)" fill="#62c988"/>
  <path id="Path_3855" data-name="Path 3855" d="M54.169,128.766a28.445,28.445,0,0,0,2.333-6.077c-.452.39-.919.776-1.4,1.162a78.7,78.7,0,0,1-8.359,5.833l6.96,6.96a9.938,9.938,0,0,1-11.685-.4l-1.483-1.152-1.671.835a22.564,22.564,0,0,1-10.195,2.427,22.827,22.827,0,0,1-20.847-32.1,21.007,21.007,0,0,1-.788-5.67,22.688,22.688,0,0,1,.156-2.667.494.494,0,0,0-.9-.381,28.709,28.709,0,0,0,33.619,44.43,15.855,15.855,0,0,0,19.421-2.336c.341-.341.64-.687.887-.989l1.755-2.074Z" transform="translate(0.073 -73.259)" fill="#62c988"/>
  <path id="Path_3856" data-name="Path 3856" d="M83.658,44.34a11.953,11.953,0,0,0-9.392,4.525,17.231,17.231,0,0,0-1.055,1.394,16.05,16.05,0,0,0-1.977-2.38,11.726,11.726,0,0,0-8.487-3.539,15.791,15.791,0,0,0-12.753,6.149,16.692,16.692,0,0,0-3.336,10.168v.049c0,6.6,4.122,13.264,12.254,19.811a77.444,77.444,0,0,0,12.97,8.341l.059.03A2.719,2.719,0,0,0,73.2,89.2a2.674,2.674,0,0,0,1.251-.309l.062-.032A78.506,78.506,0,0,0,85.836,81.8c.549-.413,1.1-.843,1.651-1.285a51.34,51.34,0,0,0,5.106-4.671c4.748-5.032,7.147-10.106,7.147-15.14C99.748,51.376,92.83,44.34,83.658,44.34Zm8.01,24.047A31.774,31.774,0,0,1,86.641,74.1a70.225,70.225,0,0,1-13.435,9.313c-4.844-2.6-21.1-12.13-21.1-22.705a11.712,11.712,0,0,1,1.2-5.291,10.281,10.281,0,0,1,9.448-5.637,7.269,7.269,0,0,1,6,3.574,14.334,14.334,0,0,1,1.829,3.873,2.719,2.719,0,0,0,5.254,0,8.441,8.441,0,0,1,.279-.83,12.6,12.6,0,0,1,3.213-4.943,6.46,6.46,0,0,1,4.32-1.671c6.179,0,10.652,4.6,10.652,10.929A13.9,13.9,0,0,1,91.668,68.387Z" transform="translate(-35.108 -33.381)" fill="#62c988"/>
  <path id="Path_3857" data-name="Path 3857" d="M187.718,11a25.336,25.336,0,0,0-2.78-3.364A25.743,25.743,0,0,0,166.4,0a22.441,22.441,0,0,0-3.579.282,21.032,21.032,0,0,0-4.763,1.349l-.336.143a2.79,2.79,0,0,0,2.3,5.081l.109-.047a16.272,16.272,0,0,1,6.27-1.372A20.346,20.346,0,0,1,181.06,11.45a19.92,19.92,0,0,1,2.17,2.62A2.718,2.718,0,1,0,187.718,11Z" transform="translate(-117.559 0)" fill="#62c988"/>
  <path id="Path_3858" data-name="Path 3858" d="M97.161,98.413h0a2.719,2.719,0,0,1-4.567,2c-.321-.3-.667-.6-1.033-.919-2.158-1.883-5.111-4.449-5.111-8.7,0-3.683,2.19-7.281,5.571-7.281,1.453,0,2.775.62,2.775,2,0,2.6-2.906,1.846-2.906,5.074,0,2.983,3.423,4.2,4.75,6.236a3.065,3.065,0,0,1,.494,1.184,1.558,1.558,0,0,1,.025.188A1.963,1.963,0,0,1,97.161,98.413Z" transform="translate(-65.066 -62.871)" fill="#62c988"/>
  <path id="Path_3859" data-name="Path 3859" d="M128.144,138.594a3.065,3.065,0,0,0-.494-1.184A2.644,2.644,0,0,1,128.144,138.594Z" transform="translate(-96.084 -103.449)" fill="#62c988"/>
</svg>
