<svg id="seedcash-au-icons-08" xmlns="http://www.w3.org/2000/svg" width="386.363" height="290.526" viewBox="0 0 386.363 290.526">
  <path id="Path_3877" data-name="Path 3877" d="M24.53,86.429A86.48,86.48,0,1,1,187.7,126.247l23.494,23.5-5.28,6.24c-.744.878-1.644,1.919-2.67,2.975a47.71,47.71,0,0,1-58.441,7.028,85.327,85.327,0,0,1-33.795,6.939,86.576,86.576,0,0,1-86.48-86.5Zm126.611,62.346a29.9,29.9,0,0,0,35.163,1.212l-21-21,3.786-6.009A68.883,68.883,0,1,0,141.68,147.83l5.035-2.521Z" transform="translate(-6.287 0.198)" fill="#50b748"/>
  <path id="Path_3878" data-name="Path 3878" d="M175,117.234a9.021,9.021,0,1,0,9.021-9.014A9.021,9.021,0,0,0,175,117.234Z" transform="translate(-44.849 -27.587)" fill="#50b748"/>
  <ellipse id="Ellipse_139" data-name="Ellipse 139" cx="9.014" cy="9.014" rx="9.014" ry="9.014" transform="translate(95.709 80.633)" fill="#50b748"/>
  <path id="Path_3879" data-name="Path 3879" d="M82.41,117.234a9.021,9.021,0,1,0,9.014-9.014,9.021,9.021,0,0,0-9.014,9.014Z" transform="translate(-21.12 -27.587)" fill="#50b748"/>
  <path id="Path_3880" data-name="Path 3880" d="M334.469,222.35a47.71,47.71,0,0,1-58.441-7.036c-1.011-1-1.882-2.008-2.67-2.938l-5.288-6.247,23.5-23.494a86.636,86.636,0,1,1,42.9,39.715Zm-34.91-79.578a68.422,68.422,0,0,0,10.613,36.561l3.793,6-21,21a29.912,29.912,0,0,0,35.163-1.212l4.425-3.466,5.028,2.521a68,68,0,0,0,30.678,7.3,68.7,68.7,0,1,0-68.7-68.7Z" transform="translate(-68.701 -14.207)" fill="#50b748"/>
  <path id="Path_3881" data-name="Path 3881" d="M433,170.257a7.14,7.14,0,1,0,2.091-5.056A7.147,7.147,0,0,0,433,170.257Z" transform="translate(-110.97 -41.655)" fill="#50b748"/>
  <path id="Path_3882" data-name="Path 3882" d="M396.34,170.257a7.14,7.14,0,1,0,2.089-5.053A7.147,7.147,0,0,0,396.34,170.257Z" transform="translate(-101.575 -41.655)" fill="#50b748"/>
  <path id="Path_3883" data-name="Path 3883" d="M359.67,170.257a7.14,7.14,0,1,0,2.091-5.056A7.147,7.147,0,0,0,359.67,170.257Z" transform="translate(-92.177 -41.655)" fill="#50b748"/>
  <text id="No_Face-to-Face_Interview" data-name="No Face-to-Face Interview" transform="translate(0 283.526)" fill="#50b748" font-size="29" font-family="SegoeUI-Bold, Segoe UI" font-weight="700"><tspan x="0" y="0">No </tspan><tspan y="0" letter-spacing="-0.03em">F</tspan><tspan y="0">ace-to-</tspan><tspan y="0" letter-spacing="-0.03em">F</tspan><tspan y="0">ace I</tspan><tspan y="0" letter-spacing="-0.01em">n</tspan><tspan y="0">terview</tspan></text>
</svg>
