<svg xmlns="http://www.w3.org/2000/svg" width="95" height="93.505" viewBox="0 0 95 93.505">
  <g id="seedcash-au-icons-06" transform="translate(5)">
    <path id="Path_3864" data-name="Path 3864" d="M207.642,124.659a2.9,2.9,0,1,0,2.368-2.368,2.9,2.9,0,0,0-2.368,2.368Z" transform="translate(-156.292 -92.036)" fill="#67c69a"/>
    <text id="Utilities_and_Bills" data-name="Utilities and Bills" transform="translate(-5 90.505)" fill="#67c69a" font-size="12" font-family="SegoeUI-Bold, Segoe UI" font-weight="700"><tspan x="0" y="0">Utilities and Bills</tspan></text>
    <path id="Path_3865" data-name="Path 3865" d="M85.576,139.031l-1.757,2.076c-.262.309-.551.64-.887.976a15.854,15.854,0,0,1-19.421,2.331,28.3,28.3,0,0,1-11.23,2.306,28.719,28.719,0,0,1-22.831-46.16v17.52A22.861,22.861,0,0,0,52.28,140.818a22.6,22.6,0,0,0,10.195-2.427l1.671-.838,1.483,1.152a9.94,9.94,0,0,0,11.685.4l-6.886-6.886H75.04a13.122,13.122,0,0,0,3.307-.413Z" transform="translate(-17.726 -75.707)" fill="#67c69a"/>
    <path id="Path_3866" data-name="Path 3866" d="M219.3,124.032V124h-.012A.077.077,0,0,1,219.3,124.032Z" transform="translate(-165.093 -93.354)" fill="#67c69a"/>
    <path id="Path_3867" data-name="Path 3867" d="M128.188,13.733l-8.079-8.077-3.381-3.383a7.8,7.8,0,0,0-11.005,0L88.687,19.309H77.77A7.79,7.79,0,0,0,70,27.092V43.3a7.79,7.79,0,0,0,7.783,7.783H110a7.8,7.8,0,0,0,7.783-7.783V35.141l10.4-10.4a7.783,7.783,0,0,0,0-11.005ZM109.566,6.119a2.35,2.35,0,0,1,3.317,0l1.461,1.461-11.72,11.73H96.376Zm2.78,37.178A2.348,2.348,0,0,1,110,45.643H77.77A2.348,2.348,0,0,1,75.437,43.3V27.092a2.345,2.345,0,0,1,2.345-2.345H110a2.345,2.345,0,0,1,2.343,2.345Zm12-22.4-6.559,6.559v-.363a7.661,7.661,0,0,0-.578-2.914,7.8,7.8,0,0,0-6.92-4.864l2.378-2.378,1.671-1.668.494-.494,3.366-3.351,6.156,6.156a2.345,2.345,0,0,1,0,3.317Z" transform="translate(-52.7 0.001)" fill="#67c69a"/>
  </g>
</svg>
