<?xml version="1.0"?>
<svg xmlns="http://www.w3.org/2000/svg" xmlns:xlink="http://www.w3.org/1999/xlink" viewBox="0 0 512 512"  width="40px" height="40px"><linearGradient id="a" gradientUnits="userSpaceOnUse" x1="256" x2="256" y1="34" y2="478.882"><stop offset="0" stop-color="#3BC453"/><stop offset="1" stop-color="#3BC453"/></linearGradient><linearGradient id="b" x1="294.857" x2="294.857" xlink:href="#a" y1="34" y2="478.882"/><linearGradient id="c" x1="217.143" x2="217.143" xlink:href="#a" y1="34" y2="478.882"/><path d="m256 213.569a16.234 16.234 0 0 1 16.215 16.216 10 10 0 1 0 20 0 36.271 36.271 0 0 0 -26.215-34.8v-6.337a10 10 0 0 0 -20 0v6.337a36.211 36.211 0 0 0 10 71.015 16.216 16.216 0 1 1 -16.215 16.215 10 10 0 0 0 -20 0 36.271 36.271 0 0 0 26.215 34.8v6.337a10 10 0 0 0 20 0v-6.337a36.211 36.211 0 0 0 -10-71.015 16.216 16.216 0 0 1 0-32.431z" fill="url(#a)"/><path d="m424.009 205.345a10.023 10.023 0 0 0 -8.23-4.345 10.013 10.013 0 0 0 -8.23 4.339l-46.11 66.914a10.055 10.055 0 0 0 8.23 15.747h33.547c-6.386 34-24.729 64.213-52.357 86.731s-62.324 35.421-95.17 35.421c-44.35 0-91.452-23.923-120-60.931a10 10 0 1 0 -15.836 12.207c32.689 42.379 84.737 68.7 135.834 68.7 37.37 0 76.663-14.515 107.805-39.9 32.325-26.338 53.449-62.228 60.036-102.228h38.413a10.051 10.051 0 0 0 8.23-15.744zm-35.3 62.655 27.075-39.273 27.105 39.273z" fill="url(#b)"/><path d="m151.184 229.4a10.044 10.044 0 0 0 -8.853-5.4h-33.547c6.386-34 24.729-64.213 52.357-86.731s62.324-35.421 95.17-35.421c44.35 0 91.452 23.923 120 60.931a10 10 0 1 0 15.837-12.207c-32.69-42.379-84.739-68.7-135.835-68.7-37.37 0-76.663 14.515-107.8 39.9-32.33 26.338-53.454 62.228-60.041 102.228h-38.413a10.055 10.055 0 0 0 -8.23 15.751l46.162 66.914a10.013 10.013 0 0 0 8.23 4.335 10.013 10.013 0 0 0 8.23-4.339l46.11-66.893a10.083 10.083 0 0 0 .623-10.368zm-54.968 53.873-27.105-39.273h54.18z" fill="url(#c)"/></svg>
